<svg width="198" height="48" fill="none" xmlns="http://www.w3.org/2000/svg"><g clip-path="url(#clip0)" fill="#282828"><path d="M12.573 23.435a3.208 3.208 0 001.066-2.526v-.07c0-1.17-.372-2.046-1.118-2.63-.745-.583-1.782-.875-3.112-.877H4.062v7.05h5.452c1.328 0 2.348-.316 3.059-.947z"/><path d="M37.72 37.008v-9.856h-9.925v9.856H22.41v-24.55h5.383v9.714h9.926v-9.714h4.221a23.967 23.967 0 00-8.786-9.109 23.857 23.857 0 00-24.369 0A23.967 23.967 0 000 12.459h10.076c3.098 0 5.474.83 7.129 2.49 1.4 1.402 2.098 3.272 2.097 5.608v.07c0 1.987-.484 3.606-1.451 4.856a8.404 8.404 0 01-3.8 2.755l5.977 8.767h-6.284l-5.242-7.851H4.274v7.851H.88a23.94 23.94 0 008.65 8.066 23.84 23.84 0 0022.885 0 23.94 23.94 0 008.65-8.066l-3.344.003zm159.963-9.518H54.071v.555h143.612v-.554zM82.027 7.074l3.024 7.362H79.03l2.998-7.362zm-1.67-5.082l-8.719 20.983h3.966L77.6 18.05h8.875l1.965 4.925h4.08L83.802 1.992h-3.445zm28.219 10.588c0 4-2.62 6.686-6.514 6.686h-3.606V5.837h3.606c3.834 0 6.514 2.773 6.514 6.744zm-6.514-10.442h-7.454v20.836h7.454c6.098 0 10.525-4.392 10.525-10.447 0-6.055-4.427-10.39-10.525-10.39zm71.269 10.443c0 3.996-2.716 7.006-6.32 7.006s-6.374-3.035-6.374-7.064c0-4.03 2.717-7.006 6.32-7.006 3.604 0 6.374 3.037 6.374 7.064zm-6.32-10.797c-5.92 0-10.389 4.641-10.389 10.797 0 6.122 4.445 10.74 10.335 10.74 5.891 0 10.387-4.642 10.387-10.798s-4.44-10.74-10.333-10.74zM66.456 9.026c0 1.985-1.444 3.219-3.771 3.219h-4.769V5.838h4.742c2.459 0 3.8 1.121 3.8 3.188h-.002zm3.903-.202c0-4.126-2.843-6.69-7.422-6.69h-8.866V22.97h3.845v-7.11h3.933l4.766 7.11h4.547l-5.303-7.82c2.906-.95 4.498-3.189 4.498-6.33m49.267-6.687h-3.845v20.84h3.845V2.132zm11.806 8.575c-3.763-.947-4.433-1.615-4.433-3.022 0-1.332 1.18-2.228 2.94-2.228 1.69 0 3.369.674 5.128 2.051l.185.146 2.071-3.07-.15-.127a10.708 10.708 0 00-7.179-2.616c-4.024 0-6.843 2.535-6.843 6.165 0 3.89 2.431 5.265 6.624 6.333 3.604.875 4.212 1.613 4.212 2.932 0 1.465-1.232 2.374-3.217 2.374-2.193 0-3.979-.776-5.978-2.594l-.17-.157-2.325 2.917.15.139a11.866 11.866 0 008.238 3.325c4.342 0 7.154-2.49 7.154-6.343 0-3.25-1.853-5.052-6.4-6.214m16.757-.011c-3.762-.947-4.433-1.615-4.433-3.022 0-1.332 1.183-2.228 2.94-2.228 1.69 0 3.369.674 5.13 2.051l.184.146 2.07-3.07-.15-.127a10.708 10.708 0 00-7.178-2.616c-4.024 0-6.843 2.535-6.843 6.165 0 3.89 2.43 5.265 6.624 6.333 3.603.875 4.211 1.613 4.211 2.932 0 1.465-1.231 2.374-3.216 2.374-2.191 0-3.977-.776-5.978-2.594l-.17-.157-2.325 2.917.15.139a11.866 11.866 0 008.238 3.325c4.343 0 7.153-2.49 7.153-6.343 0-3.25-1.853-5.052-6.4-6.214m45.69-8.583V15.79l-9.993-13.568-.067-.087h-3.487v20.836h3.789V8.91l10.301 13.974.065.09h3.184V2.136h-3.792z"/><path d="M197.674 27.473H54.08v.554h143.594v-.554zM53.984 32.45h2.392v5.681h6.499v-5.68h2.392v13.658h-2.392v-5.753h-6.499v5.753h-2.392V32.45zm25.785 6.873v-.038c0-3.846 2.955-7.067 7.138-7.067s7.1 3.18 7.1 7.026v.04c0 3.846-2.956 7.067-7.138 7.067-4.183 0-7.1-3.183-7.1-7.028zm11.73 0v-.038c0-2.657-1.927-4.842-4.63-4.842s-4.592 2.147-4.592 4.801v.04c0 2.654 1.927 4.842 4.63 4.842s4.6-2.147 4.6-4.803H91.5zm20.661-4.656h-4.34v-2.225h11.071v2.225h-4.337V46.11h-2.392l-.002-11.442zm23.05-2.217h10.096v2.148h-7.701v3.553h6.827v2.167h-6.827v3.65h7.799v2.14H135.21V32.452zm28.074 0h2.394v11.48h7.154v2.179h-9.552l.004-13.658zm24.173 11.675l1.44-1.718c1.303 1.122 2.624 1.777 4.299 1.777 1.478 0 2.412-.703 2.412-1.719v-.038c0-.976-.545-1.503-3.074-2.088-2.906-.705-4.531-1.57-4.531-4.081v-.038c0-2.345 1.945-3.965 4.647-3.965a7.528 7.528 0 014.941 1.719l-1.283 1.815c-1.225-.918-2.459-1.405-3.696-1.405-1.401 0-2.217.723-2.217 1.62v.038c0 1.055.621 1.524 3.248 2.147 2.879.705 4.357 1.739 4.357 4.002v.04c0 2.558-2.012 4.08-4.862 4.08a8.38 8.38 0 01-5.681-2.186z"/></g><defs><clipPath id="clip0"><path fill="#fff" d="M0 0h198v48H0z"/></clipPath></defs></svg>