<svg width="205" height="52" fill="none" xmlns="http://www.w3.org/2000/svg"><path d="M77.868 7.773L66.316 6.758c-6.37-.584-9.343 2.776-4.25 8.717l11.652 13.532c3.16 3.639 6.848 4.348 7.666-1.73l1.549-11.62c.985-7.063.112-7.455-5.065-7.884zm3.01 7.539l-1.273 8.152c-.763 4.678-1.813 5.259-5.119.977l-5.913-7.626c-3.072-3.972-2.373-5.189 1.826-5.046l7.86.306c1.829.028 3.037.524 2.619 3.237zm25.229 7.801c-9.894 14.435-4.495 14.617 4.313 12.087l9.703-2.707c8.446-2.339 8.807-2.165 8.087-9.566l-.721-8.12c-1.075-12.813-6.645-13.177-13.653-2.889l-7.729 11.195zm4.131 10.102c-6.826 2.166-5.393-1.437-3.056-4.865l8.99-12.641c3.593-5.234 4.493-2.525 5.395 1.803l1.438 7.223c.538 2.885.717 4.335-3.419 5.593l-9.348 2.887z" fill="#2C2C2C"/><path d="M93.426 42.828L91.57 22.133c-.927-10.354-5.069-10.964-11.966-5.821l-9 6.638c-6.892 5.139-6.67 10.107-3.035 13.046L81.437 47.18c6.407 5.18 12.994 6.77 11.989-4.352zm-10.287-1.044l-9.466-7.023c-5.795-4.3-4.427-7.13-.538-10.058l5.664-4.368c5.93-4.658 7.006.455 8.053 6.993l1.754 10.606c1.456 8.57-1.515 6.844-5.467 3.85zm33.594-12.285L99.87 19.187c-3.392-2.136-7.87-5.126-5.993 5.682l2.278 13.566c1.6 9.648 3.686 12.733 10.387 8.564l11.042-6.751c7.758-4.783 5.712-6.728-.851-10.75zm-5.885 9.565l-3.645 2.289c-3.758 2.4-5.625 1.265-6.836-3.358l-3.233-12.709c-1.1-4.499-.07-4.556 3.084-2.327l10.56 7.559c4.677 3.462 3.604 6.364.07 8.546z" fill="#2C2C2C"/><path d="M106.153 10.407l-8.387-7.779c-6.089-5.663-8.773-1.52-10.37 6.2L82.85 30.613c-2.21 10.626 2.185 10.962 8.7 4.121l12.71-13.37c6.518-6.842 5.776-7.3 1.893-10.958zm-5.634 10.207l-9.965 11.174c-3.653 4.119-6.253 4.8-4.484-1.086l5.995-19.696c.94-3.11 1.608-4.06 3.813-1.95l5.243 4.996c2.517 2.33 1.61 4.139-.602 6.562zm5.588 2.499c-9.894 14.435-4.495 14.617 4.313 12.087l9.703-2.707c8.446-2.339 8.807-2.165 8.087-9.566l-.721-8.12c-1.075-12.813-6.645-13.177-13.653-2.889l-7.729 11.195zm4.131 10.102c-6.826 2.166-5.393-1.437-3.056-4.865l8.99-12.641c3.593-5.234 4.493-2.525 5.395 1.803l1.438 7.223c.538 2.885.717 4.335-3.419 5.593l-9.348 2.887zM77.868 7.773L66.316 6.758c-6.37-.584-9.343 2.776-4.25 8.717l11.652 13.532c3.16 3.639 6.848 4.348 7.666-1.73l1.549-11.62c.985-7.063.112-7.455-5.065-7.884zm3.01 7.539l-1.273 8.152c-.763 4.678-1.813 5.259-5.119.977l-5.913-7.626c-3.072-3.972-2.373-5.189 1.826-5.046l7.86.306c1.829.028 3.037.524 2.619 3.237z" fill="#2C2C2C"/><path d="M115.561 28.868l-16.008-9.791c-3.22-2.027-7.472-4.866-5.69 5.395l2.166 12.878c1.517 9.158 3.497 12.088 9.858 8.13l10.484-6.408c7.363-4.542 5.423-6.387-.81-10.204zm-5.585 9.077l-3.46 2.175c-3.571 2.278-5.342 1.203-6.49-3.186l-3.07-12.066c-1.043-4.27-.067-4.325 2.927-2.209l10.027 7.174c4.437 3.289 3.421 6.04.066 8.112zm-16.55 4.883L91.57 22.133c-.927-10.354-5.069-10.964-11.966-5.821l-9 6.638c-6.892 5.139-6.67 10.107-3.035 13.046L81.437 47.18c6.407 5.18 12.994 6.77 11.989-4.352zm-10.287-1.044l-9.466-7.023c-5.795-4.3-4.427-7.13-.538-10.058l5.664-4.368c5.93-4.658 7.006.455 8.053 6.993l1.754 10.606c1.456 8.57-1.515 6.844-5.467 3.85zM40.118 29.367c1.604-1.106 2.56-2.934 2.56-4.928 0-2.846-2.16-5.878-6.171-5.878-5.733 0-6.179 4.702-6.179 6.138v.098h3.48l.004-.091c.102-1.8 1.007-2.708 2.695-2.708 1.094 0 2.372.7 2.372 2.701 0 1.202-.55 3.226-4.264 3.226h-.108v3.331h.108c4.407 0 4.749 2.475 4.749 3.227 0 2.264-1.435 3.451-2.857 3.451-1.799 0-2.924-1.015-3.02-2.714l-.005-.097h-3.476v.101c0 3.059 2.008 6.137 6.5 6.137 4.13 0 6.686-3.553 6.686-6.846 0-2.252-1.121-4.122-3.074-5.148zM6.237 18.561H0v22.8h3.902v-8.29h2.01c5.007 0 7.245-3.666 7.245-7.302 0-4.649-2.458-7.207-6.92-7.207zm-.326 10.946h-2.01V21.93H6.21c2.042 0 3.077 1.303 3.077 3.867 0 1.716-.884 3.709-3.375 3.709zm15.752-11.269c-4.663 0-7.24 4.117-7.24 11.588 0 7.54 2.618 11.859 7.177 11.859 4.617 0 7.269-4.348 7.269-11.919 0-7.431-2.558-11.528-7.206-11.528zm0 19.915c-2.079 0-3.176-2.899-3.176-8.387 0-5.38 1.017-7.99 3.113-7.99 2.128 0 3.209 2.707 3.209 8.05 0 5.453-1.091 8.327-3.146 8.327zm31.814-19.51l-.02-.082h-4.08l-5.492 22.68-.024.12h4.032l1.1-4.9h4.875l1.03 4.9h4.105l-5.526-22.718zm-2.095 5.347c.244 1.745.677 3.935 1.088 6.057l.653 2.978h-3.475l.641-2.95c.485-2.325.864-4.447 1.093-6.085zm91.198-5.429l-2.696 6.958-2.673-6.888-.028-.07h-4.336l4.866 11.078-4.803 11.58-.063.143h4.336l2.701-7.232 2.688 7.232h4.338l-4.86-11.723 4.864-11.078h-4.334zm55.504 0h-6.241v22.801h3.897V33.07h2.021c4.997 0 7.239-3.665 7.239-7.301 0-4.649-2.457-7.207-6.916-7.207zm-.323 10.946h-2.021V21.93h2.311c2.042 0 3.078 1.303 3.078 3.867 0 1.716-.883 3.709-3.368 3.709zm-35.222-7.384h4.438v19.24h3.96v-19.24h4.467v-3.562h-12.865v3.562zm19.921-3.885c-4.67 0-7.234 4.119-7.234 11.592 0 7.535 2.605 11.855 7.158 11.855 4.632 0 7.278-4.348 7.278-11.91 0-7.438-2.553-11.537-7.202-11.537zm0 19.915c-2.077 0-3.178-2.899-3.178-8.378 0-5.39 1.017-8 3.102-8 2.14 0 3.219 2.71 3.219 8.055 0 5.449-1.087 8.323-3.143 8.323zm-27.479-8.701l-2.919-10.81-.016-.08h-4.333l5.242 17.273c-.232.988-1.108 2.028-2.882 2.028h-.101v3.5h.101c3.31 0 5.332-1.455 6.364-4.586l5.306-18.086.034-.13h-4.203l-2.593 10.89z" fill="#2C2C2C"/><path d="M80.192 20.657l2.051.23.962-7.297-2.152-.203-.86 7.27zm7.622 13.855l.202 3.153 5.672-5.085-1.317-2.643-4.557 4.575zm13.736-14.986l-3.152 3.598 3.393.915 2.469-2.674-2.71-1.839zm10.369 13.054l.406 2.288 8.811-2.745-1.671-1.78-7.546 2.237z" fill="#2C2C2C"/></svg>