<svg width="61" height="64" viewBox="0 0 61 64" fill="none" xmlns="http://www.w3.org/2000/svg">
<path d="M39.4199 24.6788C39.409 24.5567 39.374 24.438 39.3171 24.3294C39.2602 24.2208 39.1823 24.1245 39.0881 24.0461C38.9938 23.9677 38.885 23.9086 38.7679 23.8723C38.6507 23.8361 38.5276 23.8233 38.4055 23.8347L24.7677 25.0808L18.5091 18.8161C18.3342 18.641 18.0969 18.5425 17.8493 18.5424C17.6018 18.5422 17.3643 18.6403 17.1891 18.8152C17.014 18.9901 16.9155 19.2273 16.9153 19.4748C16.9151 19.7223 17.0133 19.9597 17.1882 20.1348L23.7564 26.7093C23.843 26.7961 23.9459 26.8649 24.0592 26.9119C24.1725 26.9589 24.294 26.9831 24.4166 26.983C24.4449 26.983 24.4732 26.9817 24.5017 26.9792L38.5755 25.693C38.6975 25.6819 38.8162 25.6468 38.9247 25.5898C39.0332 25.5328 39.1294 25.4549 39.2078 25.3608C39.2862 25.2666 39.3453 25.1579 39.3817 25.0409C39.4181 24.9239 39.431 24.8008 39.4199 24.6788V24.6788Z" fill="#393939"/>
<path d="M58.9802 44.5532C60.049 42.5062 60.5792 40.2219 60.5211 37.9146C60.463 35.6073 59.8185 33.3525 58.648 31.3616C57.6518 29.6354 56.2818 28.1528 54.6381 27.0218C52.9944 25.8909 51.1183 25.1401 49.1467 24.8243C49.1467 24.8073 49.1467 24.7901 49.1467 24.7731C49.1467 11.254 38.1307 0.254211 24.59 0.254211C11.0494 0.254211 0.0338745 11.2534 0.0338745 24.7731C0.0338745 38.2927 11.0499 49.2918 24.5906 49.2918C26.2906 49.2924 27.9861 49.1177 29.65 48.7704C29.7188 49.117 29.9063 49.4289 30.1803 49.6528C30.4543 49.8767 30.7978 49.9986 31.152 49.9976H34.2758V52.3597C33.5367 52.3734 32.8333 52.6795 32.3204 53.2105C31.8075 53.7416 31.5271 54.4541 31.5409 55.1914C31.5547 55.9286 31.8615 56.6302 32.3939 57.1418C32.9263 57.6534 33.6407 57.9331 34.3798 57.9194H34.4119L39.9188 57.8353C40.0477 57.8333 40.1747 57.8044 40.2917 57.7503C40.4086 57.6963 40.5129 57.6184 40.5978 57.5217C41.1898 57.5188 41.8131 57.5162 42.3582 57.5138H42.3627C42.5958 57.5134 42.8224 57.5908 43.0062 57.7339C43.1901 57.8769 43.3207 58.0772 43.3771 58.3028L44.5264 62.8619C44.5766 63.0611 44.6921 63.238 44.8545 63.3643C45.017 63.4906 45.2171 63.5593 45.4231 63.5593H58.2152C58.3569 63.5593 58.4967 63.5268 58.6238 63.4643C58.7509 63.4019 58.8619 63.3111 58.9483 63.199C59.0347 63.087 59.094 62.9566 59.1219 62.818C59.1497 62.6795 59.1452 62.5363 59.1088 62.3998C59.0874 62.32 56.9838 54.3713 57.4473 49.4032C57.5529 48.2752 58.5739 45.5599 58.9802 44.5532ZM48.1591 47.5768H48.129C47.2842 47.5749 46.474 47.2422 45.8726 46.6504C45.2712 46.0586 44.9268 45.2549 44.9136 44.4124L44.9066 43.8964C44.9008 43.474 44.9788 43.0547 45.136 42.6625C45.2932 42.2703 45.5264 41.9129 45.8224 41.6109C46.1184 41.3088 46.4713 41.0681 46.8609 40.9024C47.2504 40.7367 47.6689 40.6494 48.0923 40.6455H48.1226C48.9673 40.6475 49.7775 40.9803 50.3788 41.5721C50.9801 42.1639 51.3244 42.9676 51.3376 43.8101L51.3446 44.3259C51.3503 44.7483 51.2723 45.1676 51.1151 45.5598C50.9579 45.952 50.7246 46.3094 50.4286 46.6114C50.1326 46.9135 49.7797 47.1542 49.3902 47.3199C49.0007 47.4856 48.5822 47.5729 48.1588 47.5768H48.1591ZM1.88329 24.7731C1.88329 12.2705 12.0697 2.09892 24.5906 2.09892C37.0729 2.09892 47.234 12.2083 47.2964 24.6582C47.236 24.6567 47.1761 24.6546 47.1152 24.6538C47.0598 24.6538 47.0047 24.6529 46.9495 24.6529C43.2025 24.6526 39.5977 26.0839 36.8759 28.6526C34.1541 31.2212 32.522 34.7322 32.3151 38.464C32.3007 38.7005 32.2944 40.4405 32.2925 41.1936L30.1618 46.7579C28.3402 47.2161 26.4687 47.4476 24.59 47.4471C12.0697 47.4471 1.88329 37.2756 1.88329 24.7731ZM34.3867 56.0745C34.1393 56.0758 33.9015 55.9797 33.7247 55.8072C33.5479 55.6347 33.4464 55.3996 33.4422 55.153C33.438 54.9063 33.5315 54.6679 33.7024 54.4896C33.8732 54.3112 34.1077 54.2072 34.355 54.2002H38.9395L38.966 56.0047L34.3867 56.0745ZM36.1246 52.3554V49.0755C36.1246 48.8309 36.0272 48.5963 35.8538 48.4233C35.6803 48.2504 35.4451 48.1532 35.1999 48.1532H31.6079L34.0801 41.6941C34.12 41.5897 34.1406 41.479 34.141 41.3673C34.1437 40.1392 34.1517 38.7435 34.1609 38.57C34.3329 35.3058 35.7561 32.2323 38.1362 29.9853C40.5163 27.7383 43.6712 26.4897 46.9483 26.4979C46.9965 26.4979 47.0461 26.4979 47.0943 26.4988C47.1161 26.4988 47.1379 26.5 47.1595 26.5004V38.8927C45.9932 39.1181 44.9433 39.7452 44.1935 40.6644C43.4438 41.5837 43.0418 42.7365 43.0578 43.9214L43.0648 44.4374C43.0829 45.58 43.4877 46.6829 44.2135 47.567C44.9393 48.4511 45.9434 49.0644 47.0628 49.3075L47.073 50.3888C47.0821 51.3632 46.7028 52.3012 46.0187 52.9967C45.3346 53.6923 44.4016 54.0883 43.4248 54.0979L40.7874 54.1141L40.775 53.2645C40.7715 53.0222 40.6725 52.7909 40.4995 52.6208C40.3264 52.4507 40.0932 52.3553 39.8502 52.3553L36.1246 52.3554ZM57.3198 43.7398C57.306 43.7661 57.2934 43.7931 57.2823 43.8206C57.1267 44.2041 55.7571 47.6136 55.6062 49.2316C55.2175 53.397 56.4473 59.2466 57.0329 61.7142H46.1443L45.1706 57.8524C45.0659 57.4353 44.869 57.0469 44.5942 56.7156C44.3195 56.3843 43.9739 56.1185 43.5828 55.9377C45.0247 55.8878 46.39 55.2779 47.3875 54.238C48.3849 53.1981 48.9355 51.8107 48.9218 50.3716L48.9124 49.3616C50.1172 49.1732 51.2135 48.5577 52 47.6282C52.7865 46.6986 53.2106 45.5172 53.1943 44.3009L53.1873 43.785C53.1687 42.611 52.7417 41.48 51.9795 40.5852C51.2172 39.6905 50.167 39.0877 49.0084 38.88V26.6721C50.6793 26.9638 52.2655 27.6181 53.655 28.5886C55.0444 29.5591 56.2032 30.8223 57.0493 32.2887C58.0658 34.0173 58.6241 35.9758 58.6714 37.9793C58.7187 39.9828 58.2536 41.9653 57.3198 43.7398V43.7398Z" fill="#393939"/>
</svg>
