<svg width="51" height="66" viewBox="0 0 51 66" fill="none" xmlns="http://www.w3.org/2000/svg">
<path d="M15.7645 4.78004H14.9645V5.58004V34.2578V35.0578H15.7645H28.2447C33.533 35.0578 37.7392 33.7444 40.7472 31.0075C43.7576 28.2685 45.2315 24.5313 45.2315 19.896C45.2315 15.2619 43.7581 11.538 40.7453 8.82854C37.7374 6.09288 33.5319 4.78004 28.2447 4.78004H15.7645ZM15.7645 50.1514H34.9047V53.3996H15.7645H14.9645V54.1996V65.2H10.1836V54.1996V53.3996H9.38362H0.8V50.1514H9.38362H10.1836V49.3513V39.7464V38.9464H9.38362H0.8V35.0578H9.38362H10.1836V34.2578V0.8H29.7461C35.9618 0.8 40.8792 2.60646 44.5815 6.15742L44.5862 6.16188C48.3207 9.68594 50.2 14.24 50.2 19.896C50.2 25.5839 48.3198 30.1527 44.5863 33.6759C40.8852 37.1674 35.951 38.9464 29.6992 38.9464H15.7645H14.9645V39.7464V49.3513V50.1514H15.7645Z" stroke="#393939" stroke-width="1.6"/>
</svg>
