<svg width="31" height="31" viewBox="0 0 31 31" fill="none" xmlns="http://www.w3.org/2000/svg">
<g opacity="0.7">
<path d="M27.832 17.7711C27.6208 17.7711 27.4096 17.799 27.2041 17.8541C26.9905 17.9113 26.7889 17.9956 26.6016 18.106L24.4097 17.2717C24.5246 16.6902 24.5826 16.0965 24.5826 15.5004C24.5826 13.6985 24.064 11.9776 23.0779 10.4915L26.4269 7.14253C26.7324 7.22433 27.0474 7.26568 27.368 7.26568C29.3712 7.26568 31.0009 5.63596 31.0009 3.63278C31.0009 1.62966 29.3712 0 27.368 0C25.3648 0 23.7351 1.62966 23.7351 3.63278C23.7351 3.95326 23.7764 4.2683 23.8581 4.5737L20.5091 7.92269C19.7112 7.3932 18.8452 6.99994 17.9358 6.748L18.3671 4.66949C18.7594 4.61693 19.122 4.4388 19.4069 4.1541C20.1149 3.44593 20.1149 2.29357 19.4068 1.58528C19.0636 1.24221 18.6075 1.0533 18.1224 1.0533C17.6371 1.0533 17.181 1.24227 16.8381 1.58528C16.4949 1.92834 16.3059 2.38452 16.3059 2.86975C16.3059 3.35492 16.4949 3.8111 16.838 4.1541C16.9426 4.25879 17.0579 4.34895 17.1813 4.42397L16.7496 6.50374C16.3389 6.44762 15.9219 6.41807 15.5003 6.41807C13.1131 6.41807 10.8202 7.36383 9.12712 9.03031L4.8409 5.93447C4.77811 4.6546 3.71713 3.63278 2.42194 3.63278C1.08642 3.63278 0 4.7192 0 6.05466C0 7.39017 1.08642 8.47665 2.42194 8.47665C2.64306 8.47665 2.85964 8.44735 3.06908 8.38922L7.35312 11.4834C6.74006 12.7267 6.41807 14.1043 6.41807 15.5003C6.41807 16.271 6.51731 17.0319 6.70694 17.766L4.68723 18.433C4.44552 18.1194 4.1099 17.8944 3.72106 17.7903C3.56709 17.749 3.40863 17.7281 3.25018 17.7281C2.42993 17.7281 1.7088 18.2819 1.49639 19.0747C1.23719 20.0422 1.8133 21.0401 2.78068 21.2994C2.93478 21.3407 3.09324 21.3616 3.25169 21.3616C4.07194 21.3616 4.79307 20.8079 5.00547 20.0151C5.04392 19.872 5.06427 19.7271 5.06754 19.5827L7.08695 18.9158C7.53198 20.0111 8.18923 21.0188 9.03043 21.8734L5.93465 26.1597C4.65478 26.2226 3.6329 27.2836 3.6329 28.5788C3.6329 29.9142 4.71932 31.0008 6.05496 31.0008C7.39035 31.0008 8.47677 29.9142 8.47677 28.5788C8.47677 28.3577 8.44747 28.1411 8.3894 27.9316L11.4834 23.6475C12.7268 24.2607 14.1045 24.5826 15.5004 24.5826C17.1033 24.5826 18.6337 24.1675 19.9692 23.4139L21.7962 26.1981C21.5635 26.5035 21.4249 26.8842 21.4249 27.2969C21.4249 28.2985 22.2398 29.1133 23.2416 29.1133C24.2431 29.1133 25.0579 28.2985 25.0579 27.2969C25.0579 26.2953 24.2431 25.4805 23.2416 25.4805C23.0922 25.4805 22.9472 25.499 22.8083 25.5331L20.9818 22.7498C21.9168 22.0418 22.719 21.1479 23.3331 20.1011L25.5257 20.9357C25.8459 21.9309 26.7768 22.616 27.83 22.6158C28.0413 22.6158 28.2526 22.5879 28.458 22.5328C29.0828 22.3654 29.6051 21.9647 29.9286 21.4045C30.2521 20.8442 30.3379 20.1915 30.1705 19.5666C29.887 18.5095 28.9255 17.7711 27.832 17.7711ZM3.83574 19.7016C3.7649 19.966 3.5247 20.1507 3.25163 20.1507C3.19901 20.1507 3.14603 20.1437 3.09414 20.1297C2.77166 20.0433 2.5796 19.7106 2.66607 19.3881C2.73691 19.1237 2.9771 18.939 3.25012 18.939C3.30273 18.939 3.35571 18.9461 3.40766 18.96C3.56388 19.0018 3.69442 19.102 3.77531 19.2422C3.85621 19.3821 3.87758 19.5453 3.83574 19.7016ZM23.2415 26.6914C23.5753 26.6914 23.8469 26.963 23.8469 27.2968C23.8469 27.6307 23.5754 27.9023 23.2415 27.9023C22.9075 27.9023 22.6358 27.6306 22.6358 27.2968C22.6358 26.963 22.9075 26.6914 23.2415 26.6914ZM17.6944 2.44137C17.8087 2.32706 17.9606 2.26409 18.1224 2.26409C18.284 2.26409 18.4361 2.32712 18.5504 2.44137C18.7865 2.67745 18.7865 3.06163 18.5506 3.29765C18.4361 3.41202 18.284 3.47505 18.1224 3.47505C17.9606 3.47505 17.8086 3.41208 17.6943 3.29765C17.5798 3.18327 17.5169 3.03123 17.5169 2.86957C17.5169 2.70791 17.5799 2.55581 17.6944 2.44137ZM28.8798 20.799C28.718 21.0791 28.457 21.2794 28.1445 21.3632C28.0412 21.3908 27.9354 21.4049 27.8299 21.4049C27.2836 21.4049 26.8031 21.0357 26.6616 20.5083C26.6505 20.4664 26.6417 20.425 26.6351 20.3853C26.6004 20.1722 26.4547 19.9937 26.2529 19.9168L23.271 18.7818C22.982 18.6717 22.6567 18.7971 22.5162 19.0725C21.889 20.3019 20.9744 21.3148 19.8777 22.0484C19.8578 22.0585 19.8383 22.0695 19.8192 22.082C19.8008 22.0941 19.7834 22.1071 19.7667 22.1207C18.5209 22.9239 17.0498 23.3717 15.5003 23.3717C14.1316 23.3717 12.7835 23.0148 11.6017 22.3397C11.3329 22.186 10.9917 22.26 10.8106 22.5109L7.22155 27.4802C7.09476 27.6557 7.07139 27.8854 7.15991 28.0828C7.23014 28.239 7.26575 28.4059 7.26575 28.5788C7.26575 29.2465 6.72257 29.7898 6.0549 29.7898C5.38711 29.7898 4.84381 29.2466 4.84381 28.5788C4.84387 27.911 5.38717 27.3677 6.05496 27.3677C6.09577 27.3677 6.13724 27.3699 6.17854 27.374C6.39306 27.3957 6.60377 27.3014 6.73032 27.1262L10.3207 22.1552C10.5017 21.9045 10.4648 21.5577 10.235 21.3507C8.5788 19.8593 7.62898 17.7269 7.62898 15.5003C7.62898 14.1314 7.98591 12.7833 8.66102 11.6018C8.81451 11.3331 8.7407 10.9918 8.48979 10.8106L3.52034 7.22142C3.345 7.09476 3.11521 7.07132 2.91771 7.15997C2.76143 7.23014 2.59474 7.26568 2.42194 7.26568C1.75427 7.26568 1.21097 6.72238 1.21097 6.05466C1.21097 5.38699 1.75427 4.84375 2.42194 4.84375C3.0896 4.84375 3.6329 5.38699 3.6329 6.05466C3.6329 6.09577 3.63078 6.13743 3.62661 6.17842C3.60487 6.39342 3.69932 6.60377 3.87449 6.73032L8.84551 10.3204C9.09612 10.5014 9.44294 10.4645 9.6499 10.2347C11.1413 8.57862 13.2737 7.62885 15.5004 7.62885C16.0373 7.62885 16.5659 7.68201 17.0807 7.78646C17.0874 7.7881 17.094 7.79028 17.1008 7.79167C17.1045 7.79239 17.108 7.7927 17.1117 7.79336C18.2297 8.02484 19.2825 8.49809 20.2141 9.19572C20.4551 9.37622 20.7923 9.35224 21.0051 9.13917L24.9771 5.16714C25.1474 4.99688 25.2005 4.74203 25.1126 4.51788C25.0021 4.23621 24.9461 3.93837 24.9461 3.63266C24.9461 2.29727 26.0325 1.21085 27.368 1.21085C28.7034 1.21085 29.7899 2.29727 29.7899 3.63266C29.7899 4.96812 28.7034 6.0546 27.368 6.0546C27.0623 6.0546 26.7644 5.99853 26.4827 5.88791C26.2586 5.79999 26.0037 5.85315 25.8333 6.02341L21.8612 9.99557C21.6483 10.2085 21.6243 10.5456 21.8048 10.7866C22.8298 12.1553 23.3717 13.7852 23.3717 15.5003C23.3717 16.1762 23.2857 16.8479 23.1161 17.4971C23.0379 17.7961 23.1977 18.106 23.4865 18.216L26.4678 19.3508C26.6701 19.4279 26.898 19.391 27.0657 19.2543C27.1985 19.146 27.3506 19.0684 27.5174 19.0238C27.6208 18.9961 27.7266 18.982 27.832 18.982C28.3784 18.982 28.8589 19.3513 29.0006 19.8801C29.0844 20.1926 29.0415 20.5189 28.8798 20.799Z" fill="white"/>
</g>
</svg>
