<svg width="52" height="52" viewBox="0 0 52 52" fill="none" xmlns="http://www.w3.org/2000/svg">
<path d="M26 0C11.6635 0 0 11.6635 0 26C0 40.3365 11.6635 52 26 52C40.3365 52 52 40.3365 52 26C52 11.6635 40.3365 0 26 0ZM17.0117 21.2266C14.4916 21.2266 12.4414 19.1763 12.4414 16.6562C12.4414 14.1362 14.4916 12.0859 17.0117 12.0859C19.5318 12.0859 21.582 14.1362 21.582 16.6562C21.582 19.1763 19.5318 21.2266 17.0117 21.2266ZM37.1721 39.7109H33.1094C28.9093 39.7109 25.4922 36.2939 25.4922 32.0938V20.4141C25.4922 16.214 28.9093 12.797 33.1094 12.797H37.1719C38.0132 12.797 38.6953 13.4791 38.6953 14.3204C38.6953 15.1618 38.0132 15.8439 37.1719 15.8439H33.1094C30.5893 15.8439 28.5391 17.8941 28.5391 20.4141V32.0938C28.5391 34.6138 30.5893 36.6641 33.1094 36.6641H37.1721C38.0134 36.6641 38.6955 37.3462 38.6955 38.1875C38.6955 39.0288 38.0134 39.7109 37.1721 39.7109Z" fill="#DCD6CB"/>
</svg>
