<svg width="28" height="29" viewBox="0 0 28 29" fill="none" xmlns="http://www.w3.org/2000/svg">
<g opacity="0.7">
<path d="M27.0725 11.5131H26.4177V8.55319C26.4177 7.68636 25.7125 6.98113 24.8456 6.98113H23.526V4.8255C23.526 4.81389 23.5249 4.8025 23.5242 4.79106C23.5249 4.77962 23.526 4.76823 23.526 4.75662V3.15013C23.526 1.41313 22.1128 0 20.3758 0H7.26308C5.52609 0 4.11296 1.41313 4.11296 3.15013V4.75662C4.11296 4.76823 4.11404 4.77962 4.11472 4.79106C4.11404 4.8025 4.11296 4.81389 4.11296 4.8255V6.98107H2.79329C1.9264 6.98107 1.22117 7.6863 1.22117 8.55313V11.513H0.566406C0.253637 11.513 0 11.7666 0 12.0794V16.6356C0 16.9484 0.253637 17.202 0.566406 17.202H3.16298C3.47575 17.202 3.72939 16.9484 3.72939 16.6356V12.0794C3.72939 11.7666 3.47575 11.513 3.16298 11.513H2.35398V8.55313C2.35398 8.31094 2.55104 8.11388 2.79329 8.11388H4.11296V19.252V19.3334V25.054C4.11296 25.6257 4.51692 26.1043 5.05427 26.2209V27.4385C5.05427 28.2995 5.75474 29 6.61574 29H8.41487C9.27586 29 9.97634 28.2995 9.97634 27.4385V26.2485H17.6625V27.4385C17.6625 28.2995 18.363 29 19.224 29H21.0231C21.8841 29 22.5846 28.2995 22.5846 27.4385V26.2209C23.1219 26.1043 23.5259 25.6256 23.5259 25.054V21.9915V19.3334V19.2646V19.252V8.11388H24.8456C25.0878 8.11388 25.2849 8.31094 25.2849 8.55313V11.513H24.4759C24.1632 11.513 23.9095 11.7666 23.9095 12.0794V16.6356C23.9095 16.9484 24.1632 17.202 24.4759 17.202H27.0725C27.3853 17.202 27.6389 16.9484 27.6389 16.6356V12.0794C27.6389 11.7666 27.3853 11.5131 27.0725 11.5131ZM2.59652 12.6459V16.0692H1.13281V12.6459H2.59652ZM8.84353 27.4385C8.84353 27.6748 8.65118 27.8672 8.41487 27.8672H6.61574C6.37938 27.8672 6.18708 27.6748 6.18708 27.4385V26.2485H8.84353V27.4385ZM21.4518 27.4385C21.4518 27.6748 21.2595 27.8672 21.0232 27.8672H19.2241C18.9877 27.8672 18.7954 27.6748 18.7954 27.4385V26.2485H21.4518V27.4385ZM22.3932 25.054C22.3932 25.088 22.3655 25.1157 22.3314 25.1157H22.0182H18.229H9.40993H5.62068H5.30757C5.27347 25.1157 5.24577 25.088 5.24577 25.054V22.5579H9.45576C10.0347 22.5579 10.5056 22.087 10.5056 21.508V19.8184H17.2069V21.508C17.2069 22.087 17.6778 22.5579 18.2567 22.5579H22.3932V25.054ZM5.3194 21.4251V19.831H9.37283V21.4251H5.3194ZM22.3932 21.4251H18.3397V19.831H22.3932V21.4251ZM22.3932 7.54748V18.6856H14.2333L11.2419 15.2634C11.036 15.0279 10.6782 15.0038 10.4427 15.2098C10.2072 15.4157 10.1831 15.7735 10.389 16.009L12.7287 18.6856H5.24577V7.54748V5.3919H22.3932V7.54748ZM22.3932 4.19022H5.24577V3.15013C5.24577 2.03782 6.15072 1.13281 7.26308 1.13281H20.3758C21.4882 1.13281 22.3932 2.03782 22.3932 3.15013V4.19022ZM26.5061 16.0692H25.0423V12.6459H26.5061V16.0692Z" fill="white"/>
</g>
</svg>
