<svg width="162" height="35" viewBox="0 0 162 35" fill="none" xmlns="http://www.w3.org/2000/svg">
<g clip-path="url(#clip0)">
<path d="M90.7845 28.8366V25.6377H91.3024V26.9186H91.8941H92.0757C92.1374 26.9065 92.1966 26.8838 92.2505 26.8515C92.3111 26.8154 92.3637 26.7675 92.4052 26.7107C92.4578 26.6354 92.4965 26.5514 92.5195 26.4626L92.7616 25.6578H93.2525L93.0104 26.5296C92.9818 26.6552 92.9269 26.7733 92.8493 26.8762C92.7716 26.979 92.673 27.0644 92.5599 27.1265C92.697 27.1657 92.8205 27.2424 92.9163 27.3478C93.0053 27.4515 93.0717 27.5726 93.1113 27.7032L93.4476 28.85H92.9365L92.6204 27.8172C92.593 27.7255 92.5497 27.6393 92.4926 27.5624C92.4444 27.5024 92.3851 27.4524 92.3178 27.4149C92.2549 27.3796 92.1868 27.3547 92.116 27.3411H91.9143H91.3024V28.8366H90.7845Z" fill="#393939"/>
<path d="M96.4132 28.441H96.8369V28.7562C96.7489 28.7981 96.6564 28.8296 96.5611 28.8501C96.4685 28.8716 96.3738 28.8829 96.2787 28.8836C96.1739 28.8895 96.0701 28.8612 95.9828 28.8031C95.9406 28.7599 95.908 28.7083 95.8872 28.6517C95.8663 28.5951 95.8577 28.5347 95.8618 28.4745C95.7531 28.5689 95.6334 28.65 95.5054 28.7159C95.4044 28.7686 95.2986 28.8113 95.1893 28.8434C95.1061 28.8681 95.0204 28.8838 94.9338 28.8903H94.8194C94.6617 28.8954 94.505 28.8632 94.3622 28.7964C94.2498 28.7431 94.1509 28.6651 94.073 28.5684C94.0039 28.4787 93.9536 28.3761 93.925 28.2666C93.8989 28.1704 93.8854 28.0712 93.8847 27.9715C93.8807 27.8442 93.9059 27.7176 93.9583 27.6014C94.0107 27.4852 94.0891 27.3824 94.1873 27.3009C94.4532 27.1086 94.7734 27.0053 95.1019 27.0058L95.9223 26.9522V26.751C95.9423 26.5526 95.8923 26.3534 95.7811 26.1877C95.7062 26.125 95.6192 26.0784 95.5255 26.0507C95.4318 26.0231 95.3334 26.0149 95.2364 26.0267C95.0717 26.0281 94.9074 26.0438 94.7455 26.0737C94.5762 26.105 94.4098 26.1499 94.2478 26.2078L94.1268 25.8457C94.3207 25.7604 94.5238 25.6974 94.732 25.6579C94.94 25.615 95.1517 25.5925 95.3641 25.5908C95.648 25.5748 95.9285 25.6578 96.1577 25.8255C96.2642 25.9331 96.3454 26.0628 96.3954 26.2055C96.4454 26.3482 96.463 26.5001 96.4468 26.6504L96.4132 28.441ZM95.0682 27.368C94.8926 27.3615 94.7206 27.4186 94.5841 27.5289C94.5304 27.5796 94.4883 27.6411 94.4604 27.7093C94.4326 27.7776 94.4197 27.851 94.4227 27.9246C94.417 28.0008 94.4265 28.0775 94.4507 28.15C94.475 28.2225 94.5134 28.2895 94.5639 28.3471C94.6919 28.452 94.8561 28.5026 95.0212 28.4879C95.171 28.4859 95.3184 28.4491 95.4516 28.3806C95.6133 28.2992 95.7628 28.1953 95.8954 28.0721V27.3143L95.0682 27.368Z" fill="#393939"/>
<path d="M99.3452 28.8369V27.4085C99.1789 27.4966 98.9996 27.5577 98.814 27.5896C98.6388 27.6233 98.461 27.6412 98.2827 27.6432C98.108 27.6513 97.9337 27.6216 97.7716 27.556C97.655 27.5065 97.5547 27.4252 97.4825 27.3213C97.4162 27.2224 97.3726 27.1103 97.3547 26.9927C97.3451 26.87 97.3451 26.7466 97.3547 26.6239V25.6381H97.8859V26.5099C97.8784 26.6126 97.8784 26.7157 97.8859 26.8184C97.8956 26.8973 97.9232 26.973 97.9666 27.0397C98.0081 27.1 98.0666 27.1467 98.1348 27.1738C98.2272 27.208 98.3254 27.2239 98.4239 27.2207C98.5842 27.2208 98.7442 27.2051 98.9014 27.1738C99.0589 27.1433 99.2108 27.089 99.3519 27.0128V25.6313H99.8832V28.8369H99.3452Z" fill="#393939"/>
<path d="M102.001 25.5708C102.187 25.5662 102.372 25.5957 102.546 25.658C102.68 25.7077 102.804 25.7828 102.909 25.8793C103.002 25.9674 103.077 26.0721 103.131 26.1878C103.182 26.2971 103.22 26.4118 103.246 26.5298C103.269 26.6357 103.282 26.7434 103.286 26.8517C103.286 26.9545 103.286 27.0372 103.286 27.0998V27.3546H101.134C101.134 27.4964 101.148 27.6379 101.174 27.7771C101.196 27.904 101.245 28.025 101.316 28.1326C101.387 28.2376 101.484 28.3229 101.598 28.3807C101.736 28.4466 101.889 28.4788 102.042 28.4746C102.216 28.4762 102.39 28.456 102.56 28.4142C102.734 28.3699 102.904 28.3139 103.071 28.2466L103.199 28.5886C103.015 28.685 102.821 28.7593 102.62 28.8099C102.42 28.859 102.214 28.8838 102.008 28.8837C101.777 28.8869 101.548 28.8412 101.336 28.7495C101.163 28.6717 101.013 28.5518 100.899 28.4008C100.789 28.2462 100.713 28.0703 100.677 27.8844C100.635 27.6769 100.615 27.4657 100.616 27.2541C100.611 27.1468 100.611 27.0394 100.616 26.9322C100.63 26.8094 100.654 26.6882 100.69 26.57C100.73 26.4446 100.782 26.3233 100.845 26.2079C100.911 26.0887 100.997 25.982 101.1 25.8927C101.212 25.7973 101.339 25.7224 101.477 25.6714C101.644 25.6055 101.822 25.5714 102.001 25.5708ZM102.001 25.9665C101.866 25.9624 101.732 25.9924 101.611 26.0536C101.507 26.1082 101.418 26.1863 101.349 26.2816C101.28 26.3834 101.229 26.497 101.201 26.617C101.169 26.7467 101.148 26.8791 101.141 27.0126H102.782C102.782 26.8708 102.769 26.7293 102.741 26.5901C102.719 26.4736 102.676 26.3622 102.613 26.2615C102.556 26.1703 102.474 26.0962 102.378 26.0469C102.265 25.9904 102.141 25.9606 102.015 25.9597L102.001 25.9665Z" fill="#393939"/>
<path d="M104.463 27.2208C104.462 27.3851 104.478 27.5492 104.51 27.7103C104.536 27.8477 104.586 27.9795 104.658 28.0993C104.726 28.2107 104.824 28.3012 104.94 28.3609C105.079 28.4268 105.231 28.4589 105.384 28.4547C105.54 28.4553 105.696 28.4373 105.848 28.4011C106.006 28.3632 106.161 28.3138 106.312 28.2535L106.453 28.609C106.293 28.6925 106.124 28.7577 105.949 28.8035C105.749 28.8572 105.544 28.8843 105.337 28.8839C105.107 28.8902 104.878 28.8491 104.665 28.7632C104.491 28.6906 104.338 28.5753 104.221 28.4279C104.105 28.277 104.022 28.1033 103.979 27.9182C103.929 27.7118 103.904 27.5002 103.905 27.2878C103.907 27.1008 103.927 26.9144 103.965 26.7312C104.005 26.5339 104.08 26.3453 104.187 26.1746C104.298 25.9978 104.45 25.8505 104.631 25.7454C104.858 25.6236 105.113 25.5657 105.371 25.5777C105.518 25.5685 105.667 25.5685 105.814 25.5777C105.979 25.6009 106.14 25.646 106.292 25.7119L106.164 26.0941C106.029 26.0456 105.889 26.0119 105.747 25.9935H105.404C105.267 25.9859 105.13 26.0125 105.005 26.0711C104.881 26.1296 104.773 26.2182 104.691 26.3289C104.521 26.594 104.441 26.9067 104.463 27.2208Z" fill="#393939"/>
<path d="M107.792 26.0535H106.662V25.6377H109.453V26.0535H108.33V28.8366H107.798L107.792 26.0535Z" fill="#393939"/>
<path d="M111.356 25.6378C111.639 25.6158 111.921 25.6968 112.149 25.8659C112.235 25.9396 112.303 26.0315 112.348 26.1347C112.393 26.238 112.415 26.35 112.411 26.4627C112.402 26.5896 112.365 26.713 112.304 26.8249C112.238 26.9625 112.13 27.0753 111.995 27.1468C112.084 27.1821 112.167 27.2344 112.237 27.301C112.297 27.3589 112.347 27.427 112.385 27.5022C112.418 27.5725 112.443 27.6469 112.459 27.7235C112.466 27.7948 112.466 27.8667 112.459 27.9381C112.46 28.0656 112.433 28.1918 112.378 28.3069C112.325 28.4172 112.249 28.5154 112.156 28.5953C112.061 28.676 111.951 28.7374 111.833 28.7764C111.707 28.8179 111.576 28.8383 111.443 28.8367H109.829V25.6378H111.356ZM110.421 26.0469V26.9992H111.282C111.439 27.0068 111.593 26.9594 111.719 26.8651C111.764 26.8219 111.801 26.7699 111.825 26.7122C111.85 26.6546 111.863 26.5925 111.863 26.5298C111.863 26.4671 111.85 26.405 111.825 26.3473C111.801 26.2897 111.764 26.2377 111.719 26.1945C111.573 26.0951 111.397 26.05 111.221 26.067L110.421 26.0469ZM110.421 27.3882V28.4344H111.315C111.42 28.4371 111.525 28.4212 111.625 28.3874C111.699 28.3606 111.768 28.3196 111.826 28.2667C111.878 28.2209 111.917 28.1634 111.941 28.099C111.964 28.0344 111.975 27.9664 111.974 27.8979C111.974 27.8287 111.959 27.7603 111.932 27.6969C111.904 27.6335 111.864 27.5763 111.813 27.529C111.745 27.4704 111.666 27.4259 111.58 27.3983C111.495 27.3707 111.405 27.3604 111.315 27.3681L110.421 27.3882Z" fill="#393939"/>
<path d="M115.935 27.2473C115.936 27.4504 115.914 27.6529 115.868 27.8508C115.826 28.0414 115.746 28.2217 115.633 28.3806C115.516 28.5408 115.361 28.6698 115.182 28.7562C114.971 28.852 114.741 28.9001 114.51 28.897C114.278 28.9062 114.047 28.8602 113.837 28.7629C113.669 28.6813 113.523 28.5591 113.413 28.4075C113.304 28.252 113.226 28.0765 113.185 27.8911C113.138 27.6865 113.115 27.4772 113.118 27.2674C113.118 27.0569 113.145 26.8473 113.198 26.6437C113.247 26.4509 113.331 26.269 113.447 26.1072C113.563 25.9469 113.715 25.8159 113.891 25.725C114.1 25.6243 114.331 25.576 114.563 25.5841C114.796 25.5749 115.027 25.6233 115.236 25.725C115.408 25.8136 115.555 25.9425 115.666 26.1005C115.777 26.2624 115.855 26.4448 115.895 26.637C115.93 26.8384 115.944 27.043 115.935 27.2473ZM115.377 27.2473C115.387 27.0999 115.387 26.9521 115.377 26.8047C115.359 26.6627 115.318 26.5246 115.256 26.3956C115.199 26.2728 115.111 26.1666 115 26.0871C114.874 26.0023 114.723 25.96 114.57 25.9664C114.416 25.9601 114.264 25.9998 114.133 26.0804C114.02 26.1553 113.928 26.2566 113.864 26.3755C113.795 26.5033 113.747 26.6415 113.723 26.7845C113.697 26.9329 113.683 27.0832 113.682 27.2339C113.672 27.3857 113.672 27.5381 113.682 27.6899C113.701 27.8262 113.744 27.958 113.81 28.0789C113.874 28.1905 113.967 28.2831 114.079 28.3471C114.22 28.4205 114.378 28.4553 114.536 28.4477C114.685 28.4549 114.833 28.4175 114.96 28.3404C115.069 28.2676 115.157 28.1683 115.216 28.052C115.279 27.9279 115.323 27.7943 115.343 27.6564C115.361 27.5252 115.37 27.393 115.37 27.2607L115.377 27.2473Z" fill="#393939"/>
<path d="M120.508 28.8366V26.3687L120.367 26.6034L120.064 27.0862L119.715 27.6362L119.365 28.1861L119.082 28.622L118.941 28.8366H118.444V25.6377H118.975V28.0721L119.123 27.8306L119.271 27.5892L119.809 26.7509L120.152 26.2144L120.367 25.8791L120.522 25.6377H121.046V26.362C121.046 26.6436 121.046 26.9365 121.046 27.2405C121.046 27.5445 121.046 27.8374 121.046 28.119V28.8366H120.508Z" fill="#393939"/>
<path d="M124.899 24.377L125.148 24.2764L125.431 24.1624L125.706 24.0483L125.942 23.9478L126.103 24.2898C125.963 24.3667 125.82 24.4361 125.673 24.4977L125.377 24.6184C125.179 24.6947 124.986 24.782 124.798 24.8799C124.642 24.9602 124.499 25.0643 124.375 25.1884C124.256 25.3126 124.163 25.4583 124.099 25.6176C124.024 25.8136 123.977 26.019 123.958 26.2279C124.068 26.0598 124.218 25.9215 124.395 25.8255C124.587 25.7214 124.802 25.6683 125.02 25.6713C125.224 25.6662 125.427 25.7075 125.612 25.792C125.769 25.8685 125.903 25.984 126.002 26.1273C126.106 26.282 126.179 26.455 126.217 26.637C126.263 26.8417 126.285 27.0509 126.285 27.2606C126.285 27.4549 126.263 27.6485 126.217 27.8374C126.173 28.0251 126.093 28.2027 125.982 28.3605C125.867 28.5215 125.715 28.6526 125.538 28.7427C125.328 28.843 125.098 28.8935 124.866 28.8903C124.633 28.9007 124.402 28.8522 124.193 28.7494C124.027 28.6607 123.884 28.5344 123.776 28.3806C123.673 28.2305 123.6 28.062 123.561 27.8843C123.521 27.7084 123.5 27.5284 123.501 27.3478C123.501 27.093 123.501 26.8784 123.501 26.6772C123.501 26.476 123.501 26.362 123.501 26.248C123.501 26.134 123.501 26.0468 123.501 25.9798C123.501 25.9127 123.501 25.859 123.501 25.8188C123.565 25.4856 123.721 25.1768 123.951 24.9269C124.222 24.6753 124.546 24.4874 124.899 24.377ZM124.946 26.0736C124.795 26.0702 124.647 26.1148 124.523 26.2011C124.407 26.2824 124.311 26.3877 124.24 26.5095C124.166 26.6368 124.111 26.7748 124.079 26.9186C124.047 27.0595 124.032 27.2035 124.032 27.3478C124.022 27.4818 124.022 27.6162 124.032 27.7502C124.049 27.8774 124.09 28.0002 124.153 28.1123C124.216 28.2228 124.306 28.3152 124.415 28.3806C124.553 28.4567 124.709 28.4939 124.866 28.4879C125.014 28.4927 125.161 28.4555 125.289 28.3806C125.4 28.3136 125.49 28.2187 125.552 28.1056C125.615 27.9885 125.658 27.8616 125.679 27.7301C125.703 27.5882 125.714 27.4446 125.713 27.3009C125.722 27.1535 125.722 27.0057 125.713 26.8583C125.696 26.7203 125.655 26.5864 125.592 26.4626C125.535 26.3506 125.452 26.254 125.35 26.1809C125.229 26.1054 125.089 26.068 124.946 26.0736Z" fill="#393939"/>
<path d="M128.295 25.5708C128.481 25.5662 128.665 25.5957 128.84 25.658C128.974 25.7077 129.098 25.7828 129.203 25.8793C129.296 25.9674 129.371 26.0721 129.425 26.1878C129.476 26.2971 129.514 26.4118 129.539 26.5298C129.563 26.6357 129.576 26.7434 129.58 26.8517C129.58 26.9545 129.58 27.0372 129.58 27.0998V27.3546H127.428C127.428 27.4964 127.441 27.6379 127.468 27.7771C127.49 27.904 127.538 28.025 127.609 28.1326C127.681 28.2376 127.778 28.3229 127.892 28.3807C128.03 28.4466 128.182 28.4788 128.336 28.4746C128.51 28.4762 128.684 28.456 128.854 28.4142C129.028 28.3699 129.198 28.3139 129.365 28.2466L129.492 28.5886C129.309 28.685 129.115 28.7593 128.914 28.8099C128.714 28.859 128.508 28.8838 128.302 28.8837C128.071 28.8869 127.842 28.8412 127.63 28.7495C127.457 28.6717 127.307 28.5518 127.193 28.4008C127.083 28.2462 127.007 28.0703 126.971 27.8844C126.929 27.6769 126.909 27.4657 126.91 27.2541C126.904 27.1468 126.904 27.0394 126.91 26.9322C126.924 26.8094 126.948 26.6882 126.984 26.57C127.024 26.4446 127.075 26.3233 127.139 26.2079C127.205 26.0887 127.291 25.982 127.394 25.8927C127.506 25.7973 127.633 25.7224 127.771 25.6714C127.938 25.6055 128.116 25.5714 128.295 25.5708ZM128.295 25.9665C128.16 25.9624 128.026 25.9924 127.905 26.0536C127.801 26.1082 127.711 26.1863 127.643 26.2816C127.573 26.3834 127.523 26.497 127.495 26.617C127.463 26.7467 127.442 26.8791 127.435 27.0126H129.116C129.117 26.8708 129.103 26.7293 129.075 26.5901C129.054 26.4736 129.01 26.3622 128.948 26.2615C128.89 26.1703 128.809 26.0962 128.712 26.0469C128.587 25.984 128.449 25.954 128.309 25.9597L128.295 25.9665Z" fill="#393939"/>
<path d="M131.174 28.8902C130.959 28.891 130.745 28.8686 130.535 28.8232C130.363 28.7899 130.196 28.7358 130.037 28.6622L130.165 28.3202C130.319 28.3746 130.476 28.4194 130.636 28.4543C130.786 28.4853 130.939 28.5011 131.093 28.5012C131.326 28.5111 131.558 28.4602 131.765 28.3537C131.848 28.3015 131.915 28.2276 131.959 28.1401C132.003 28.0527 132.022 27.9549 132.014 27.8574C132.019 27.7678 131.998 27.6786 131.954 27.6003C131.91 27.522 131.844 27.4577 131.765 27.4148C131.69 27.3718 131.609 27.3422 131.523 27.3277C131.443 27.3207 131.362 27.3207 131.281 27.3277H130.79V26.9655H131.207C131.29 26.9729 131.373 26.9729 131.456 26.9655C131.538 26.9521 131.617 26.9273 131.691 26.8917C131.762 26.8563 131.822 26.8031 131.866 26.7375C131.914 26.6615 131.938 26.5725 131.933 26.4827C131.935 26.4177 131.922 26.3532 131.896 26.2939C131.869 26.2347 131.829 26.1823 131.779 26.1406C131.633 26.0405 131.458 25.9932 131.281 26.0065C131.151 25.9998 131.021 25.9998 130.891 26.0065C130.688 26.0361 130.489 26.0901 130.299 26.1675L130.185 25.8322C130.358 25.7568 130.538 25.7006 130.723 25.6645C130.92 25.621 131.12 25.5986 131.322 25.5974C131.617 25.581 131.911 25.656 132.162 25.812C132.261 25.8764 132.34 25.9654 132.393 26.0702C132.446 26.1749 132.471 26.2917 132.465 26.4089C132.47 26.5756 132.412 26.7382 132.303 26.8649C132.203 26.9806 132.073 27.0664 131.927 27.1131C132.102 27.1558 132.259 27.2519 132.377 27.388C132.494 27.5267 132.556 27.7031 132.552 27.8843C132.556 28.0437 132.516 28.2012 132.438 28.3403C132.365 28.4669 132.264 28.5748 132.142 28.6555C132.006 28.7435 131.856 28.807 131.698 28.8433C131.526 28.8795 131.35 28.8953 131.174 28.8902Z" fill="#393939"/>
<path d="M136.042 27.2473C136.043 27.4504 136.021 27.6529 135.975 27.8508C135.933 28.0414 135.853 28.2217 135.74 28.3806C135.623 28.5408 135.468 28.6698 135.289 28.7562C135.078 28.852 134.849 28.9001 134.617 28.897C134.385 28.9062 134.155 28.8602 133.944 28.7629C133.776 28.6813 133.63 28.5591 133.521 28.4075C133.411 28.252 133.333 28.0765 133.292 27.8911C133.245 27.6865 133.223 27.4772 133.225 27.2674C133.225 27.0569 133.252 26.8473 133.305 26.6437C133.354 26.4509 133.438 26.269 133.554 26.1072C133.67 25.9469 133.822 25.8159 133.998 25.725C134.207 25.6243 134.438 25.576 134.67 25.5841C134.903 25.5749 135.134 25.6233 135.343 25.725C135.515 25.8136 135.662 25.9425 135.773 26.1005C135.885 26.2624 135.962 26.4448 136.002 26.637C136.037 26.8384 136.051 27.043 136.042 27.2473ZM135.484 27.2473C135.494 27.0999 135.494 26.9521 135.484 26.8047C135.466 26.6627 135.425 26.5246 135.363 26.3956C135.306 26.2728 135.218 26.1666 135.108 26.0871C134.981 26.0023 134.83 25.96 134.677 25.9664C134.523 25.9601 134.371 25.9998 134.24 26.0804C134.128 26.1553 134.035 26.2566 133.971 26.3755C133.896 26.5153 133.845 26.6675 133.823 26.8248C133.797 26.9732 133.784 27.1235 133.783 27.2741C133.772 27.4259 133.772 27.5783 133.783 27.7301C133.801 27.8664 133.845 27.9982 133.911 28.1191C133.975 28.2308 134.068 28.3233 134.18 28.3873C134.32 28.4608 134.478 28.4955 134.637 28.4879C134.786 28.4951 134.933 28.4578 135.061 28.3806C135.169 28.3078 135.257 28.2085 135.316 28.0923C135.38 27.9681 135.423 27.8345 135.444 27.6966C135.468 27.5525 135.482 27.4068 135.484 27.2607V27.2473Z" fill="#393939"/>
<path d="M138.82 28.8367V26.0402H137.273V28.8367H136.742V25.6445H139.358C139.358 26.1766 139.358 26.7086 139.358 27.2406C139.358 27.7727 139.358 28.3047 139.358 28.8367H138.82Z" fill="#393939"/>
<path d="M142.565 28.4411H142.996V28.7563C142.91 28.7978 142.82 28.8293 142.727 28.8502C142.632 28.8723 142.535 28.8835 142.438 28.8837C142.333 28.8896 142.229 28.8613 142.142 28.8033C142.099 28.7603 142.066 28.7087 142.045 28.652C142.025 28.5954 142.016 28.5349 142.021 28.4746C141.827 28.6461 141.597 28.7721 141.348 28.8435C141.265 28.8682 141.179 28.884 141.093 28.8904H140.904C140.747 28.8952 140.59 28.8631 140.447 28.7965C140.337 28.7422 140.241 28.6643 140.165 28.5685C140.096 28.4787 140.045 28.3761 140.017 28.2668C139.991 28.1705 139.977 28.0714 139.976 27.9717C139.972 27.8443 139.998 27.7177 140.05 27.6015C140.102 27.4853 140.181 27.3825 140.279 27.301C140.545 27.1092 140.865 27.0059 141.194 27.006L142.014 26.9523V26.7511C142.032 26.5519 141.98 26.3527 141.866 26.1878C141.791 26.1252 141.704 26.0786 141.61 26.0509C141.517 26.0232 141.418 26.015 141.321 26.0269C141.157 26.0282 140.992 26.0439 140.83 26.0738C140.661 26.1053 140.495 26.1501 140.333 26.2079L140.212 25.8458C140.406 25.7604 140.609 25.6974 140.817 25.658C141.025 25.6152 141.237 25.5928 141.449 25.591C141.733 25.5743 142.014 25.6574 142.243 25.8257C142.349 25.9332 142.43 26.063 142.48 26.2056C142.53 26.3483 142.548 26.5003 142.532 26.6505L142.565 28.4411ZM141.22 27.3681C141.045 27.3616 140.873 27.4188 140.736 27.5291C140.684 27.5806 140.643 27.6424 140.617 27.7105C140.59 27.7787 140.578 27.8517 140.582 27.9247C140.575 28.001 140.585 28.0777 140.609 28.1503C140.633 28.2229 140.672 28.2899 140.723 28.3472C140.849 28.4511 141.011 28.5016 141.173 28.4881C141.323 28.486 141.471 28.4493 141.604 28.3808C141.766 28.2993 141.915 28.1954 142.048 28.0723V27.3145L141.22 27.3681Z" fill="#393939"/>
<path d="M144.099 27.2203C144.098 27.3846 144.114 27.5486 144.146 27.7099C144.173 27.8477 144.226 27.9795 144.3 28.0988C144.369 28.2102 144.466 28.3007 144.583 28.3604C144.721 28.4263 144.873 28.4585 145.027 28.4543C145.185 28.4549 145.343 28.4369 145.497 28.4006C145.653 28.3626 145.806 28.3133 145.955 28.2531L146.103 28.6085C145.942 28.692 145.773 28.7573 145.598 28.803C145.399 28.8567 145.193 28.8837 144.986 28.8835C144.756 28.8894 144.527 28.8483 144.314 28.7628C144.14 28.6902 143.987 28.5748 143.87 28.4275C143.754 28.2766 143.671 28.1029 143.628 27.9178C143.578 27.7114 143.553 27.4997 143.554 27.2874C143.556 27.1003 143.576 26.9139 143.614 26.7308C143.654 26.5334 143.729 26.3448 143.836 26.1741C143.947 25.9975 144.1 25.8503 144.28 25.7449C144.507 25.6235 144.763 25.5655 145.02 25.5773C145.168 25.568 145.316 25.568 145.464 25.5773C145.628 25.6006 145.789 25.6457 145.941 25.7114L145.813 26.0937C145.679 26.0452 145.539 26.0114 145.397 25.9931H145.054C144.916 25.9854 144.779 26.0121 144.655 26.0706C144.53 26.1292 144.422 26.2178 144.341 26.3284C144.166 26.5922 144.081 26.9048 144.099 27.2203Z" fill="#393939"/>
<path d="M148.692 28.8366V27.3411H147.138V28.8366H146.6V25.6377H147.138V26.9119H148.685V25.6377H149.216V28.8366H148.692Z" fill="#393939"/>
<path d="M152.76 27.2473C152.761 27.4504 152.739 27.6529 152.693 27.8508C152.651 28.0414 152.571 28.2217 152.458 28.3806C152.341 28.5408 152.186 28.6698 152.007 28.7562C151.796 28.852 151.566 28.9001 151.334 28.897C151.103 28.9062 150.872 28.8602 150.662 28.7629C150.493 28.6813 150.348 28.5591 150.238 28.4075C150.129 28.252 150.051 28.0765 150.01 27.8911C149.963 27.6865 149.94 27.4772 149.942 27.2674C149.943 27.0569 149.97 26.8473 150.023 26.6437C150.072 26.4509 150.156 26.269 150.272 26.1072C150.388 25.9469 150.54 25.8159 150.716 25.725C150.925 25.6243 151.156 25.576 151.388 25.5841C151.621 25.5749 151.852 25.6233 152.061 25.725C152.233 25.8136 152.38 25.9425 152.491 26.1005C152.602 26.2624 152.68 26.4448 152.72 26.637C152.755 26.8384 152.768 27.043 152.76 27.2473ZM152.202 27.2473C152.211 27.0999 152.211 26.9521 152.202 26.8047C152.184 26.6627 152.143 26.5246 152.081 26.3956C152.023 26.2728 151.935 26.1666 151.825 26.0871C151.698 26.0023 151.548 25.96 151.395 25.9664C151.241 25.9601 151.089 25.9998 150.958 26.0804C150.845 26.1553 150.753 26.2566 150.689 26.3755C150.62 26.5033 150.572 26.6415 150.548 26.7845C150.522 26.9329 150.508 27.0832 150.507 27.2339C150.497 27.3857 150.497 27.5381 150.507 27.6899C150.526 27.8262 150.569 27.958 150.635 28.0789C150.699 28.1905 150.792 28.2831 150.904 28.3471C151.045 28.4205 151.203 28.4553 151.361 28.4477C151.51 28.4549 151.658 28.4175 151.785 28.3404C151.894 28.2676 151.981 28.1683 152.041 28.052C152.104 27.9279 152.147 27.7943 152.168 27.6564C152.188 27.5254 152.2 27.3932 152.202 27.2607V27.2473Z" fill="#393939"/>
<path d="M153.95 27.2203C153.95 27.3846 153.966 27.5486 153.998 27.7099C154.025 27.8477 154.078 27.9795 154.152 28.0988C154.22 28.2102 154.318 28.3007 154.435 28.3604C154.573 28.4263 154.725 28.4585 154.878 28.4543C155.037 28.4549 155.195 28.4369 155.349 28.4006C155.505 28.3626 155.658 28.3133 155.806 28.2531L155.954 28.6085C155.794 28.692 155.625 28.7573 155.45 28.803C155.251 28.8567 155.045 28.8837 154.838 28.8835C154.608 28.8894 154.379 28.8483 154.166 28.7628C153.992 28.6902 153.839 28.5748 153.722 28.4275C153.606 28.2766 153.523 28.1029 153.48 27.9178C153.429 27.7114 153.405 27.4997 153.406 27.2874C153.408 27.1003 153.428 26.9139 153.466 26.7308C153.506 26.5334 153.581 26.3448 153.688 26.1741C153.799 25.9975 153.952 25.8503 154.132 25.7449C154.359 25.6235 154.615 25.5655 154.872 25.5773C155.02 25.568 155.168 25.568 155.316 25.5773C155.48 25.6006 155.641 25.6457 155.793 25.7114L155.665 26.0937C155.53 26.0452 155.391 26.0114 155.248 25.9931H154.905C154.768 25.9854 154.631 26.0121 154.506 26.0706C154.382 26.1292 154.274 26.2178 154.193 26.3284C154.018 26.5922 153.933 26.9048 153.95 27.2203Z" fill="#393939"/>
<path d="M157.272 26.0535H156.143V25.6377H158.933V26.0535H157.81V28.8366H157.279L157.272 26.0535Z" fill="#393939"/>
<path d="M159.902 25.6377V26.7845H160.89C161.06 26.78 161.23 26.8097 161.388 26.8716C161.518 26.9246 161.635 27.0046 161.731 27.1064C161.82 27.2012 161.888 27.313 161.933 27.435C161.977 27.5553 162 27.6824 162 27.8105C162.003 27.9576 161.975 28.1037 161.919 28.2397C161.868 28.3607 161.792 28.4702 161.697 28.5616C161.603 28.6523 161.491 28.7231 161.368 28.7695C161.235 28.8196 161.093 28.8446 160.951 28.8433H159.377V25.6377H159.902ZM159.902 27.1667V28.4342H160.857C161.022 28.4423 161.184 28.3844 161.307 28.2733C161.365 28.214 161.41 28.1435 161.439 28.0662C161.468 27.9888 161.48 27.9064 161.475 27.8239C161.481 27.734 161.467 27.644 161.433 27.5605C161.399 27.4769 161.347 27.402 161.28 27.3411C161.143 27.2263 160.968 27.1665 160.79 27.1734L159.902 27.1667Z" fill="#393939"/>
<path d="M41.7811 20.3466L49.0775 34.9998H53.2065L43.8456 16.2021L41.7811 20.3466Z" fill="#558CC9"/>
<path d="M16.6573 9.83719C17.4433 8.25891 18.5955 6.89038 20.0182 5.84523C21.441 4.80008 23.0932 4.10847 24.8377 3.8278C26.5822 3.54714 28.3687 3.68553 30.0489 4.23148C31.729 4.77743 33.2543 5.71519 34.4981 6.96691C35.1509 5.90934 35.9349 4.9382 36.8316 4.0765C35.154 2.47681 33.1224 1.29321 30.9012 0.621392C28.68 -0.050426 26.3314 -0.191615 24.0453 0.20924C21.7592 0.610095 19.5998 1.54175 17.7416 2.92888C15.8834 4.31601 14.3785 6.1197 13.3487 8.19415L0 34.9991H4.12902L16.6573 9.83719Z" fill="#558CC9"/>
<path d="M36.8317 30.2851L39.1786 34.9996H43.3076L38.8962 26.1406L36.8317 30.2851Z" fill="#558CC9"/>
<path d="M26.6032 13.0904C27.1048 13.0852 27.5976 13.2224 28.0239 13.486C28.4502 13.7496 28.7925 14.1288 29.0107 14.5792L29.8177 16.1954L31.8351 12.1314C31.2011 11.2241 30.3412 10.497 29.3399 10.0215C28.3386 9.54613 27.2305 9.33883 26.1245 9.42003C25.0186 9.50123 23.9528 9.86812 23.0322 10.4846C22.1115 11.1011 21.3676 11.946 20.8737 12.9362L9.89886 34.9998H14.0279L24.2092 14.5792C24.4265 14.1309 24.7666 13.7531 25.1903 13.4896C25.614 13.2261 26.1039 13.0877 26.6032 13.0904Z" fill="#558CC9"/>
<path d="M60.3213 8.19483C59.1044 5.72855 57.2174 3.65272 54.8752 2.20383C52.5329 0.754934 49.8297 -0.00875416 47.0735 -0.000229013C44.5535 -0.0151974 42.0722 0.618198 39.8693 1.83877C37.6665 3.05934 35.8165 4.82583 34.4981 6.96758C34.2493 7.36325 34.0139 7.77233 33.8256 8.19483L31.8418 12.1381L29.8244 16.2021L20.4635 34.9797H24.5925L31.8822 20.3466L33.9467 16.2021L36.8316 10.4079L37.1141 9.83786C37.6337 8.78487 38.3143 7.81882 39.1315 6.97429C40.3749 5.72233 41.8997 4.78419 43.5795 4.23774C45.2594 3.69129 47.0456 3.5523 48.7901 3.8323C50.5346 4.1123 52.1869 4.80321 53.61 5.84769C55.033 6.89217 56.1857 8.26008 56.9723 9.83786L69.5006 35.0065H73.6296L60.3213 8.19483Z" fill="#558CC9"/>
<path d="M47.0735 9.38871C46.0437 9.38529 45.0285 9.63202 44.1158 10.1076C43.2031 10.5831 42.4202 11.2732 41.8349 12.1182C41.6564 12.3746 41.4969 12.6435 41.3574 12.9229L39.7367 16.1822L36.8316 21.9965L34.7671 26.1544L30.3557 34.9999H34.4847L36.8316 30.3055L38.8961 26.1544L41.7811 20.3602L43.8456 16.2157L44.6525 14.5995C44.8749 14.1513 45.2185 13.7741 45.6445 13.5103C46.0705 13.2466 46.562 13.1068 47.0634 13.1068C47.5648 13.1068 48.0562 13.2466 48.4822 13.5103C48.9082 13.7741 49.2518 14.1513 49.4742 14.5995L59.6354 34.9999H63.7644L52.7828 12.943C52.2609 11.8765 51.4489 10.9777 50.4394 10.3492C49.4298 9.72075 48.2635 9.38792 47.0735 9.38871Z" fill="#558CC9"/>
<path d="M82.3517 4.15771H80.3477V31.754H82.3517V4.15771Z" fill="#393939"/>
<path d="M103.259 22.0366V11.3066L98.8072 22.0366H97.7178L93.2862 11.3066V22.0366H90.7845V7.59131H94.3689L98.3028 17.1008L102.217 7.59131H105.801V22.0366H103.259Z" fill="#393939"/>
<path d="M108.881 22.0366V7.59131H118.807V9.82449H111.409V13.5733H118.639V15.8065H111.423V19.8302H118.82V22.0634L108.881 22.0366Z" fill="#393939"/>
<path d="M121.416 22.0366V7.59131H127.771C130.81 7.59131 132.478 9.67025 132.478 12.118C132.478 14.5658 130.763 16.6448 127.771 16.6448H123.951V22.0098L121.416 22.0366ZM129.909 12.118C129.912 11.801 129.849 11.4868 129.723 11.1956C129.598 10.9044 129.412 10.6425 129.18 10.4267C128.947 10.2108 128.671 10.0458 128.371 9.94211C128.07 9.83843 127.751 9.79837 127.435 9.8245H123.958V14.4183H127.435C127.752 14.4435 128.07 14.4025 128.37 14.298C128.67 14.1935 128.945 14.0277 129.178 13.8112C129.41 13.5948 129.594 13.3324 129.719 13.0409C129.844 12.7493 129.906 12.435 129.903 12.118H129.909Z" fill="#393939"/>
<path d="M133.964 14.8276C133.964 10.388 137.286 7.35681 141.563 7.35681C142.736 7.32912 143.894 7.6157 144.917 8.18664C145.94 8.75758 146.791 9.59194 147.38 10.6026L145.208 11.7092C144.831 11.0764 144.297 10.551 143.658 10.1834C143.018 9.81579 142.295 9.61838 141.557 9.61012C138.692 9.61012 136.56 11.7964 136.56 14.8276C136.56 17.8588 138.692 20.0451 141.557 20.0451C142.296 20.042 143.021 19.8469 143.662 19.4787C144.302 19.1106 144.835 18.5823 145.208 17.946L147.38 19.0525C146.789 20.0613 145.937 20.8941 144.915 21.4648C143.892 22.0354 142.735 22.3232 141.563 22.2984C137.286 22.2984 133.964 19.2671 133.964 14.8276Z" fill="#393939"/>
<path d="M149.425 22.0366V7.59131H151.98V17.6507L159.377 7.59131H161.987V22.0366H159.445V11.7291L151.879 22.0366H149.425Z" fill="#393939"/>
</g>
<defs>
<clipPath id="clip0">
<rect width="162" height="35" fill="white"/>
</clipPath>
</defs>
</svg>
