<svg width="65" height="46" viewBox="0 0 65 46" fill="none" xmlns="http://www.w3.org/2000/svg">
<path d="M63.9832 23.3952C64.5306 23.3952 64.9137 22.9574 64.9684 22.4648V10.5329C64.9684 9.98557 64.5306 9.60244 63.9832 9.54771H61.356L60.2066 1.72085C60.1519 1.17351 59.6593 0.845113 59.112 0.899846L44.2792 3.08918H44.2245L0.875733 9.60244C0.875733 9.60244 0.0547332 9.76664 0.0547332 10.5329V22.41C0.0547332 22.9574 0.4926 23.3405 0.9852 23.3952C3.39346 23.3952 5.30913 25.3109 5.30913 27.7192C5.30913 30.1274 3.39346 32.0431 0.9852 32.0431C0.437867 32.0431 0.0547333 32.481 0 32.9736V44.8507C0 45.398 0.437867 45.7811 0.9852 45.8359H63.9285C64.4758 45.8359 64.859 45.398 64.9137 44.8507V33.0283C64.9137 32.481 64.4758 32.0978 63.9832 32.0431C61.575 32.0431 59.6593 30.1274 59.6593 27.7192C59.6593 25.3109 61.575 23.3952 63.9832 23.3952V23.3952ZM43.5677 5.16904L43.9508 7.74151C44.0056 8.23411 44.4434 8.56251 44.8813 8.56251H45.0455C45.5928 8.50778 45.9212 8.01518 45.8665 7.46784L45.4834 4.89538L58.4552 2.97971L59.4404 9.60244H13.957L43.5677 5.16904ZM63.0528 33.904V43.9749H48.8768V41.3478C48.8768 40.8004 48.439 40.3626 47.8916 40.3626C47.3443 40.3626 46.9064 40.8004 46.9064 41.3478V43.9749H2.02513V33.904C5.4186 33.3567 7.77213 30.1822 7.2248 26.7887C6.78693 24.1068 4.70706 21.9722 2.02513 21.589V11.5181H46.9612V14.0906C46.9612 14.6379 47.399 15.0758 47.9464 15.0758C48.4937 15.0758 48.9316 14.6379 48.9316 14.0906V11.4634H63.1075V21.5343C59.714 22.0816 57.3605 25.2562 57.9078 28.6496C58.2362 31.3863 60.3161 33.4662 63.0528 33.904V33.904Z" fill="#393939"/>
<path d="M47.8916 29.1969C47.3443 29.1969 46.9612 29.6348 46.9064 30.1274V36.4765C46.9064 37.0238 47.3443 37.4617 47.8916 37.4617C48.439 37.4617 48.8768 37.0238 48.8768 36.4765V30.1821C48.8768 29.6348 48.439 29.1969 47.8916 29.1969Z" fill="#393939"/>
<path d="M47.8916 18.0314C47.3443 18.0314 46.9612 18.4693 46.9064 18.9619V25.311C46.9064 25.8583 47.3443 26.2962 47.8916 26.2962C48.439 26.2962 48.8768 25.8583 48.8768 25.311V18.9619C48.8768 18.4693 48.439 18.0314 47.8916 18.0314V18.0314Z" fill="#393939"/>
<path d="M12.4245 19.564H24.3016C24.8489 19.564 25.2868 19.1261 25.2868 18.5788C25.2868 18.0314 24.8489 17.6483 24.3016 17.6483H12.4245C11.8771 17.6483 11.4393 18.0862 11.4393 18.6335C11.4393 19.1808 11.8771 19.564 12.4245 19.564Z" fill="#393939"/>
<path d="M36.1787 23.7236H12.4245C11.8771 23.7236 11.4393 24.1615 11.4393 24.7088C11.4393 25.2561 11.8771 25.694 12.4245 25.694H36.1787C36.7261 25.694 37.1639 25.2561 37.1639 24.7088C37.1639 24.1615 36.7261 23.7236 36.1787 23.7236Z" fill="#393939"/>
<path d="M36.1787 29.7991H12.4245C11.8771 29.7991 11.4393 30.237 11.4393 30.7843C11.4393 31.3316 11.8771 31.7695 12.4245 31.7695H36.1787C36.7261 31.7695 37.1639 31.3316 37.1639 30.7843C37.1639 30.237 36.7261 29.7991 36.1787 29.7991Z" fill="#393939"/>
<path d="M36.1787 35.8744H12.4245C11.8771 35.8744 11.4393 36.3123 11.4393 36.8596C11.4393 37.407 11.8771 37.8448 12.4245 37.8448H36.1787C36.7261 37.8448 37.1639 37.407 37.1639 36.8596C37.1639 36.3123 36.7261 35.8744 36.1787 35.8744Z" fill="#393939"/>
</svg>
