<svg width="34" height="68" viewBox="0 0 34 68" fill="none" xmlns="http://www.w3.org/2000/svg">
<path d="M33.6939 2.67724C33.565 2.57078 33.4069 2.50392 33.2395 2.48496C27.9896 0.840001 22.5119 0.00176843 17.0008 1.44919e-06H16.9759C11.428 -0.00127819 5.91362 0.844898 0.63098 2.50813L0.607942 2.5152V2.5176C0.492892 2.5519 0.386485 2.60957 0.295634 2.68685C0.204784 2.76414 0.131523 2.85932 0.0806138 2.9662C0.0297042 3.07308 0.00228502 3.18928 0.00013681 3.30724C-0.0020114 3.4252 0.0211603 3.54228 0.0681457 3.65088L7.4459 20.9723C7.49855 21.0963 7.58048 21.2063 7.68495 21.2931C7.78942 21.38 7.91343 21.4412 8.04676 21.4718C8.18009 21.5023 8.31891 21.5014 8.45179 21.469C8.58467 21.4366 8.70779 21.3736 8.81101 21.2854L10.942 19.4648L13.001 24.3067L6.49287 58.113L17.0008 68L27.5087 58.1121L21.0006 24.3059L23.0626 19.4662L25.1907 21.2854C25.2938 21.3735 25.4168 21.4363 25.5496 21.4687C25.6824 21.5011 25.8211 21.5021 25.9543 21.4716C26.0875 21.4411 26.2114 21.38 26.3159 21.2933C26.4203 21.2066 26.5023 21.0968 26.555 20.973L33.9334 3.65088C34.0041 3.48468 34.019 3.30071 33.9759 3.12565C33.9328 2.95058 33.8341 2.79352 33.6939 2.67724V2.67724ZM16.9752 1.69526H16.9994C21.7461 1.6966 26.4699 2.3393 31.0379 3.60525L17.0008 12.1615L2.94797 3.59522C7.51283 2.33396 12.2328 1.69465 16.9752 1.69526V1.69526ZM8.5792 19.2348L2.70464 5.44276L15.5518 13.2741L8.5792 19.2348ZM23.6543 47.2207L14.6366 50.2863C14.5288 50.3222 14.4293 50.3788 14.3439 50.4526C14.2584 50.5265 14.1887 50.6161 14.1387 50.7165C14.0886 50.8169 14.0594 50.926 14.0525 51.0375C14.0456 51.149 14.0612 51.2608 14.0985 51.3663C14.1358 51.4719 14.194 51.5692 14.2698 51.6526C14.3455 51.736 14.4373 51.8039 14.5399 51.8524C14.6425 51.9009 14.7539 51.929 14.8676 51.9351C14.9813 51.9412 15.0951 51.9252 15.2025 51.888L23.9786 48.9042L25.6379 57.5236L17.0008 65.6511L8.36452 57.5243L9.04657 53.9816L11.528 53.1378C11.7445 53.0642 11.9223 52.9092 12.0224 52.707C12.1224 52.5047 12.1365 52.2718 12.0615 52.0594C11.9864 51.8469 11.8285 51.6725 11.6223 51.5743C11.4162 51.4761 11.1788 51.4623 10.9623 51.536L9.41603 52.0616L10.2105 47.9351L22.9569 43.6013L23.6543 47.2207ZM21.6115 36.6133L19.4552 37.3464C19.348 37.3828 19.2492 37.4396 19.1643 37.5136C19.0795 37.5875 19.0104 37.6771 18.9608 37.7772C18.9113 37.8774 18.8824 37.9861 18.8757 38.0973C18.869 38.2084 18.8846 38.3197 18.9218 38.4249C18.959 38.5301 19.0169 38.6271 19.0922 38.7103C19.1676 38.7935 19.2589 38.8613 19.361 38.9099C19.463 38.9585 19.5739 38.9869 19.6871 38.9935C19.8004 39.0001 19.9138 38.9847 20.021 38.9482L21.936 38.2973L22.6329 41.9172L10.5804 46.0151L11.3749 41.8878L17.5307 39.795C17.7472 39.7214 17.925 39.5664 18.0251 39.3641C18.1251 39.1619 18.1391 38.9289 18.0641 38.7165C17.989 38.5041 17.8311 38.3296 17.6249 38.2314C17.4188 38.1333 17.1813 38.1195 16.9648 38.1931L11.7445 39.9679L14.614 25.0615H19.3877L21.6115 36.6133ZM19.5285 23.3663H14.4736L12.3139 18.2907L17.0008 14.2838L21.6895 18.2928L19.5285 23.3663ZM25.4225 19.2347L18.4497 13.2741L31.2969 5.44305L25.4225 19.2347Z" fill="#393939"/>
</svg>
