<svg width="31" height="31" viewBox="0 0 31 31" fill="none" xmlns="http://www.w3.org/2000/svg">
<path d="M15.5 0C6.93958 0 0 6.93958 0 15.5C0 24.0604 6.93958 30.9999 15.5 30.9999C24.0604 30.9999 30.9999 24.0604 30.9999 15.5C30.9909 6.9434 24.0566 0.0091469 15.5 0ZM24.0327 10.747L12.9613 21.8185C12.5289 22.2507 11.8281 22.2507 11.3958 21.8185L6.96721 17.3899C6.52738 16.9651 6.51519 16.2642 6.93996 15.8244C7.36474 15.3846 8.06562 15.3724 8.50545 15.7971C8.51466 15.8061 8.52374 15.8151 8.53269 15.8244L12.1785 19.4702L22.4672 9.18154C22.9071 8.75676 23.6079 8.76896 24.0327 9.20872C24.4471 9.63778 24.4471 10.318 24.0327 10.747Z" fill="#E7E6E6"/>
</svg>
