<svg width="54" height="54" viewBox="0 0 54 54" fill="none" xmlns="http://www.w3.org/2000/svg">
<path d="M26.9999 0C12.0883 0 0 12.0883 0 26.9999C0 41.9116 12.0883 53.9999 26.9999 53.9999C41.9116 53.9999 53.9999 41.9116 53.9999 26.9999C53.9841 12.095 41.905 0.0159333 26.9999 0ZM41.8635 18.7206L22.5777 38.0064C21.8246 38.7593 20.6038 38.7593 19.8507 38.0064L12.1364 30.292C11.3703 29.5521 11.349 28.3312 12.089 27.5651C12.8289 26.7989 14.0498 26.7777 14.8159 27.5176C14.832 27.5332 14.8478 27.5489 14.8634 27.5651L21.2142 33.9159L39.1365 15.9936C39.9026 15.2537 41.1235 15.275 41.8635 16.041C42.5853 16.7884 42.5853 17.9732 41.8635 18.7206Z" fill="#7FCB78"/>
</svg>
