<svg width="162" height="35" viewBox="0 0 162 35" fill="none" xmlns="http://www.w3.org/2000/svg">
<g clip-path="url(#clip0)">
<path d="M90.7845 28.837V25.6381H91.3024V26.919H91.8941H92.0757C92.1374 26.9068 92.1966 26.8842 92.2505 26.8519C92.3111 26.8158 92.3637 26.7679 92.4052 26.7111C92.4578 26.6358 92.4965 26.5518 92.5195 26.4629L92.7616 25.6582H93.2525L93.0104 26.53C92.9818 26.6556 92.9269 26.7737 92.8493 26.8765C92.7716 26.9794 92.673 27.0647 92.5599 27.1269C92.697 27.1661 92.8205 27.2428 92.9163 27.3482C93.0053 27.4519 93.0717 27.5729 93.1113 27.7036L93.4476 28.8504H92.9365L92.6204 27.8176C92.593 27.7259 92.5497 27.6397 92.4926 27.5628C92.4444 27.5028 92.3851 27.4527 92.3178 27.4152C92.2549 27.38 92.1868 27.3551 92.116 27.3415H91.9143H91.3024V28.837H90.7845Z" fill="white"/>
<path d="M96.4132 28.4412H96.8369V28.7564C96.7489 28.7983 96.6564 28.8298 96.5611 28.8503C96.4685 28.8719 96.3738 28.8831 96.2787 28.8838C96.1739 28.8897 96.0701 28.8615 95.9828 28.8034C95.9406 28.7602 95.908 28.7086 95.8872 28.6519C95.8663 28.5953 95.8577 28.5349 95.8618 28.4748C95.7531 28.5692 95.6334 28.6502 95.5054 28.7162C95.4044 28.7689 95.2986 28.8115 95.1893 28.8436C95.1061 28.8683 95.0204 28.8841 94.9338 28.8905H94.8194C94.6617 28.8956 94.505 28.8634 94.3622 28.7967C94.2498 28.7433 94.1509 28.6654 94.073 28.5686C94.0039 28.4789 93.9536 28.3763 93.925 28.2669C93.8989 28.1706 93.8854 28.0715 93.8847 27.9718C93.8807 27.8444 93.9059 27.7178 93.9583 27.6016C94.0107 27.4854 94.0891 27.3827 94.1873 27.3012C94.4532 27.1089 94.7734 27.0055 95.1019 27.0061L95.9223 26.9524V26.7512C95.9423 26.5528 95.8923 26.3536 95.7811 26.1879C95.7062 26.1253 95.6192 26.0787 95.5255 26.051C95.4318 26.0233 95.3334 26.0151 95.2364 26.027C95.0717 26.0284 94.9074 26.0441 94.7455 26.0739C94.5762 26.1053 94.4098 26.1501 94.2478 26.208L94.1268 25.8459C94.3207 25.7606 94.5238 25.6977 94.732 25.6581C94.94 25.6152 95.1517 25.5928 95.3641 25.5911C95.648 25.575 95.9285 25.658 96.1577 25.8258C96.2642 25.9333 96.3454 26.0631 96.3954 26.2058C96.4454 26.3484 96.463 26.5004 96.4468 26.6507L96.4132 28.4412ZM95.0682 27.3682C94.8926 27.3617 94.7206 27.4189 94.5841 27.5292C94.5304 27.5798 94.4883 27.6413 94.4604 27.7096C94.4326 27.7778 94.4197 27.8512 94.4227 27.9248C94.417 28.0011 94.4265 28.0777 94.4507 28.1502C94.475 28.2228 94.5134 28.2898 94.5639 28.3473C94.6919 28.4522 94.8561 28.5028 95.0212 28.4882C95.171 28.4861 95.3184 28.4494 95.4516 28.3809C95.6133 28.2994 95.7628 28.1956 95.8954 28.0724V27.3146L95.0682 27.3682Z" fill="white"/>
<path d="M99.3452 28.8369V27.4085C99.1789 27.4966 98.9996 27.5577 98.814 27.5896C98.6388 27.6233 98.461 27.6412 98.2827 27.6432C98.108 27.6513 97.9337 27.6216 97.7716 27.556C97.655 27.5065 97.5547 27.4252 97.4825 27.3213C97.4162 27.2224 97.3726 27.1103 97.3547 26.9927C97.3451 26.87 97.3451 26.7466 97.3547 26.6239V25.6381H97.8859V26.5099C97.8784 26.6126 97.8784 26.7157 97.8859 26.8184C97.8956 26.8973 97.9232 26.973 97.9666 27.0397C98.0081 27.1 98.0666 27.1467 98.1348 27.1738C98.2272 27.208 98.3254 27.2239 98.4239 27.2207C98.5842 27.2208 98.7442 27.2051 98.9014 27.1738C99.0589 27.1433 99.2108 27.089 99.3519 27.0128V25.6313H99.8832V28.8369H99.3452Z" fill="white"/>
<path d="M102.001 25.5709C102.187 25.5663 102.372 25.5958 102.546 25.6581C102.68 25.7078 102.804 25.7829 102.909 25.8794C103.002 25.9676 103.077 26.0722 103.131 26.1879C103.182 26.2972 103.22 26.412 103.246 26.5299C103.269 26.6358 103.282 26.7435 103.286 26.8518C103.286 26.9546 103.286 27.0373 103.286 27.0999V27.3548H101.134C101.134 27.4966 101.148 27.638 101.174 27.7773C101.196 27.9041 101.245 28.0251 101.316 28.1327C101.387 28.2377 101.484 28.323 101.598 28.3808C101.736 28.4467 101.889 28.4789 102.042 28.4747C102.216 28.4764 102.39 28.4561 102.56 28.4144C102.734 28.37 102.904 28.314 103.071 28.2467L103.199 28.5887C103.015 28.6851 102.821 28.7594 102.62 28.81C102.42 28.8592 102.214 28.8839 102.008 28.8838C101.777 28.887 101.548 28.8413 101.336 28.7497C101.163 28.6718 101.013 28.5519 100.899 28.4009C100.789 28.2464 100.713 28.0704 100.677 27.8846C100.635 27.6771 100.615 27.4658 100.616 27.2542C100.611 27.1469 100.611 27.0395 100.616 26.9323C100.63 26.8096 100.654 26.6883 100.69 26.5701C100.73 26.4447 100.782 26.3234 100.845 26.208C100.911 26.0888 100.997 25.9821 101.1 25.8928C101.212 25.7975 101.339 25.7225 101.477 25.6715C101.644 25.6056 101.822 25.5715 102.001 25.5709ZM102.001 25.9666C101.866 25.9626 101.732 25.9925 101.611 26.0538C101.507 26.1083 101.418 26.1864 101.349 26.2818C101.28 26.3835 101.229 26.4972 101.201 26.6171C101.169 26.7468 101.148 26.8793 101.141 27.0127H102.782C102.782 26.8709 102.769 26.7294 102.741 26.5903C102.719 26.4737 102.676 26.3623 102.613 26.2616C102.556 26.1704 102.474 26.0963 102.378 26.047C102.265 25.9905 102.141 25.9607 102.015 25.9599L102.001 25.9666Z" fill="white"/>
<path d="M104.463 27.2207C104.462 27.385 104.478 27.549 104.51 27.7102C104.536 27.8476 104.586 27.9793 104.658 28.0992C104.726 28.2106 104.824 28.3011 104.94 28.3607C105.079 28.4266 105.231 28.4588 105.384 28.4546C105.54 28.4552 105.696 28.4372 105.848 28.401C106.006 28.363 106.161 28.3137 106.312 28.2534L106.453 28.6089C106.293 28.6924 106.124 28.7576 105.949 28.8033C105.749 28.8571 105.544 28.8841 105.337 28.8838C105.107 28.8901 104.878 28.849 104.665 28.7631C104.491 28.6905 104.338 28.5752 104.221 28.4278C104.105 28.2769 104.022 28.1032 103.979 27.9181C103.929 27.7116 103.904 27.5 103.905 27.2877C103.907 27.1007 103.927 26.9142 103.965 26.7311C104.005 26.5337 104.08 26.3452 104.187 26.1745C104.298 25.9977 104.45 25.8504 104.631 25.7453C104.858 25.6235 105.113 25.5655 105.371 25.5776C105.518 25.5684 105.667 25.5684 105.814 25.5776C105.979 25.6008 106.14 25.6459 106.292 25.7118L106.164 26.094C106.029 26.0455 105.889 26.0118 105.747 25.9934H105.404C105.267 25.9858 105.13 26.0124 105.005 26.071C104.881 26.1295 104.773 26.2181 104.691 26.3287C104.521 26.5939 104.441 26.9066 104.463 27.2207Z" fill="white"/>
<path d="M107.792 26.0538H106.662V25.6381H109.453V26.0538H108.33V28.837H107.798L107.792 26.0538Z" fill="white"/>
<path d="M111.356 25.638C111.639 25.6159 111.921 25.6969 112.149 25.866C112.235 25.9397 112.303 26.0316 112.348 26.1349C112.393 26.2381 112.415 26.3502 112.411 26.4628C112.402 26.5897 112.365 26.7131 112.304 26.825C112.238 26.9626 112.13 27.0754 111.995 27.1469C112.084 27.1822 112.167 27.2346 112.237 27.3011C112.297 27.3591 112.347 27.4271 112.385 27.5023C112.418 27.5727 112.443 27.647 112.459 27.7236C112.466 27.795 112.466 27.8669 112.459 27.9382C112.46 28.0657 112.433 28.1919 112.378 28.3071C112.325 28.4174 112.249 28.5155 112.156 28.5954C112.061 28.6761 111.951 28.7376 111.833 28.7765C111.707 28.818 111.576 28.8384 111.443 28.8369H109.829V25.638H111.356ZM110.421 26.047V26.9993H111.282C111.439 27.0069 111.593 26.9595 111.719 26.8652C111.764 26.822 111.801 26.77 111.825 26.7123C111.85 26.6547 111.863 26.5926 111.863 26.5299C111.863 26.4672 111.85 26.4051 111.825 26.3475C111.801 26.2898 111.764 26.2378 111.719 26.1946C111.573 26.0953 111.397 26.0502 111.221 26.0672L110.421 26.047ZM110.421 27.3883V28.4345H111.315C111.42 28.4372 111.525 28.4213 111.625 28.3875C111.699 28.3607 111.768 28.3197 111.826 28.2668C111.878 28.221 111.917 28.1635 111.941 28.0992C111.964 28.0346 111.975 27.9665 111.974 27.898C111.974 27.8288 111.959 27.7604 111.932 27.697C111.904 27.6336 111.864 27.5765 111.813 27.5291C111.745 27.4705 111.666 27.4261 111.58 27.3984C111.495 27.3708 111.405 27.3605 111.315 27.3682L110.421 27.3883Z" fill="white"/>
<path d="M115.935 27.2475C115.936 27.4506 115.914 27.6532 115.868 27.8511C115.826 28.0417 115.746 28.2219 115.633 28.3809C115.516 28.541 115.361 28.67 115.182 28.7564C114.971 28.8522 114.741 28.9003 114.51 28.8973C114.278 28.9065 114.047 28.8605 113.837 28.7631C113.669 28.6815 113.523 28.5594 113.413 28.4077C113.304 28.2523 113.226 28.0768 113.185 27.8913C113.138 27.6868 113.115 27.4774 113.118 27.2676C113.118 27.0572 113.145 26.8476 113.198 26.644C113.247 26.4512 113.331 26.2692 113.447 26.1075C113.563 25.9471 113.715 25.8162 113.891 25.7252C114.1 25.6245 114.331 25.5762 114.563 25.5844C114.796 25.5751 115.027 25.6235 115.236 25.7252C115.408 25.8139 115.555 25.9427 115.666 26.1008C115.777 26.2626 115.855 26.445 115.895 26.6373C115.93 26.8387 115.944 27.0432 115.935 27.2475ZM115.377 27.2475C115.387 27.1001 115.387 26.9523 115.377 26.8049C115.359 26.663 115.318 26.5249 115.256 26.3958C115.199 26.273 115.111 26.1669 115 26.0873C114.874 26.0026 114.723 25.9603 114.57 25.9666C114.416 25.9604 114.264 26.0001 114.133 26.0806C114.02 26.1556 113.928 26.2569 113.864 26.3757C113.795 26.5036 113.747 26.6417 113.723 26.7848C113.697 26.9332 113.683 27.0835 113.682 27.2341C113.672 27.3859 113.672 27.5383 113.682 27.6901C113.701 27.8265 113.744 27.9583 113.81 28.0791C113.874 28.1908 113.967 28.2834 114.079 28.3474C114.22 28.4208 114.378 28.4555 114.536 28.4479C114.685 28.4551 114.833 28.4178 114.96 28.3406C115.069 28.2678 115.157 28.1686 115.216 28.0523C115.279 27.9281 115.323 27.7945 115.343 27.6566C115.361 27.5255 115.37 27.3933 115.37 27.2609L115.377 27.2475Z" fill="white"/>
<path d="M120.508 28.837V26.369L120.367 26.6038L120.064 27.0866L119.715 27.6365L119.365 28.1864L119.082 28.6223L118.941 28.837H118.444V25.6381H118.975V28.0724L119.123 27.831L119.271 27.5896L119.809 26.7513L120.152 26.2148L120.367 25.8795L120.522 25.6381H121.046V26.3623C121.046 26.644 121.046 26.9368 121.046 27.2409C121.046 27.5449 121.046 27.8377 121.046 28.1194V28.837H120.508Z" fill="white"/>
<path d="M124.899 24.3772L125.148 24.2766L125.431 24.1626L125.706 24.0486L125.942 23.948L126.103 24.29C125.963 24.3669 125.82 24.4363 125.673 24.4979L125.377 24.6186C125.179 24.6949 124.986 24.7822 124.798 24.8802C124.642 24.9604 124.499 25.0645 124.375 25.1887C124.256 25.3128 124.163 25.4585 124.099 25.6179C124.024 25.8139 123.977 26.0192 123.958 26.2281C124.068 26.06 124.218 25.9218 124.395 25.8258C124.587 25.7216 124.802 25.6685 125.02 25.6715C125.224 25.6665 125.427 25.7078 125.612 25.7922C125.769 25.8687 125.903 25.9842 126.002 26.1275C126.106 26.2822 126.179 26.4552 126.217 26.6372C126.263 26.842 126.285 27.0512 126.285 27.2609C126.285 27.4551 126.263 27.6487 126.217 27.8376C126.173 28.0254 126.093 28.203 125.982 28.3607C125.867 28.5218 125.715 28.6529 125.538 28.743C125.328 28.8433 125.098 28.8938 124.866 28.8905C124.633 28.9009 124.402 28.8525 124.193 28.7497C124.027 28.661 123.884 28.5346 123.776 28.3808C123.673 28.2307 123.6 28.0623 123.561 27.8846C123.521 27.7086 123.5 27.5286 123.501 27.3481C123.501 27.0932 123.501 26.8786 123.501 26.6774C123.501 26.4763 123.501 26.3623 123.501 26.2482C123.501 26.1342 123.501 26.0471 123.501 25.98C123.501 25.9129 123.501 25.8593 123.501 25.819C123.565 25.4858 123.721 25.177 123.951 24.9271C124.222 24.6756 124.546 24.4877 124.899 24.3772ZM124.946 26.0739C124.795 26.0705 124.647 26.1151 124.523 26.2013C124.407 26.2827 124.311 26.3879 124.24 26.5098C124.166 26.6371 124.111 26.7751 124.079 26.9189C124.047 27.0598 124.032 27.2037 124.032 27.3481C124.022 27.482 124.022 27.6165 124.032 27.7504C124.049 27.8777 124.09 28.0005 124.153 28.1126C124.216 28.223 124.306 28.3154 124.415 28.3808C124.553 28.457 124.709 28.4941 124.866 28.4881C125.014 28.493 125.161 28.4558 125.289 28.3808C125.4 28.3138 125.49 28.219 125.552 28.1059C125.615 27.9888 125.658 27.8618 125.679 27.7303C125.703 27.5885 125.714 27.4449 125.713 27.3011C125.722 27.1537 125.722 27.0059 125.713 26.8585C125.696 26.7206 125.655 26.5867 125.592 26.4628C125.535 26.3509 125.452 26.2542 125.35 26.1812C125.229 26.1057 125.089 26.0683 124.946 26.0739Z" fill="white"/>
<path d="M128.295 25.5709C128.481 25.5663 128.665 25.5958 128.84 25.6581C128.974 25.7078 129.098 25.7829 129.203 25.8794C129.296 25.9676 129.371 26.0722 129.425 26.1879C129.476 26.2972 129.514 26.412 129.539 26.5299C129.563 26.6358 129.576 26.7435 129.58 26.8518C129.58 26.9546 129.58 27.0373 129.58 27.0999V27.3548H127.428C127.428 27.4966 127.441 27.638 127.468 27.7773C127.49 27.9041 127.538 28.0251 127.609 28.1327C127.681 28.2377 127.778 28.323 127.892 28.3808C128.03 28.4467 128.182 28.4789 128.336 28.4747C128.51 28.4764 128.684 28.4561 128.854 28.4144C129.028 28.37 129.198 28.314 129.365 28.2467L129.492 28.5887C129.309 28.6851 129.115 28.7594 128.914 28.81C128.714 28.8592 128.508 28.8839 128.302 28.8838C128.071 28.887 127.842 28.8413 127.63 28.7497C127.457 28.6718 127.307 28.5519 127.193 28.4009C127.083 28.2464 127.007 28.0704 126.971 27.8846C126.929 27.6771 126.909 27.4658 126.91 27.2542C126.904 27.1469 126.904 27.0395 126.91 26.9323C126.924 26.8096 126.948 26.6883 126.984 26.5701C127.024 26.4447 127.075 26.3234 127.139 26.208C127.205 26.0888 127.291 25.9821 127.394 25.8928C127.506 25.7975 127.633 25.7225 127.771 25.6715C127.938 25.6056 128.116 25.5715 128.295 25.5709ZM128.295 25.9666C128.16 25.9626 128.026 25.9925 127.905 26.0538C127.801 26.1083 127.711 26.1864 127.643 26.2818C127.573 26.3835 127.523 26.4972 127.495 26.6171C127.463 26.7468 127.442 26.8793 127.435 27.0127H129.116C129.117 26.8709 129.103 26.7294 129.075 26.5903C129.054 26.4737 129.01 26.3623 128.948 26.2616C128.89 26.1704 128.809 26.0963 128.712 26.047C128.587 25.9842 128.449 25.9542 128.309 25.9599L128.295 25.9666Z" fill="white"/>
<path d="M131.174 28.8906C130.959 28.8914 130.745 28.8689 130.535 28.8235C130.363 28.7902 130.196 28.7362 130.037 28.6626L130.165 28.3205C130.319 28.3749 130.476 28.4197 130.636 28.4547C130.786 28.4857 130.939 28.5014 131.093 28.5016C131.326 28.5115 131.558 28.4606 131.765 28.3541C131.848 28.3018 131.915 28.228 131.959 28.1405C132.003 28.053 132.022 27.9553 132.014 27.8578C132.019 27.7681 131.998 27.679 131.954 27.6007C131.91 27.5224 131.844 27.4581 131.765 27.4152C131.69 27.3721 131.609 27.3426 131.523 27.328C131.443 27.3211 131.362 27.3211 131.281 27.328H130.79V26.9659H131.207C131.29 26.9733 131.373 26.9733 131.456 26.9659C131.538 26.9525 131.617 26.9277 131.691 26.8921C131.762 26.8566 131.822 26.8035 131.866 26.7379C131.914 26.6619 131.938 26.5729 131.933 26.483C131.935 26.4181 131.922 26.3535 131.896 26.2943C131.869 26.235 131.829 26.1826 131.779 26.141C131.633 26.0409 131.458 25.9935 131.281 26.0069C131.151 26.0002 131.021 26.0002 130.891 26.0069C130.688 26.0365 130.489 26.0905 130.299 26.1678L130.185 25.8325C130.358 25.7572 130.538 25.701 130.723 25.6649C130.92 25.6214 131.12 25.5989 131.322 25.5978C131.617 25.5814 131.911 25.6563 132.162 25.8124C132.261 25.8768 132.34 25.9658 132.393 26.0705C132.446 26.1753 132.471 26.2921 132.465 26.4093C132.47 26.576 132.412 26.7386 132.303 26.8653C132.203 26.9809 132.073 27.0668 131.927 27.1134C132.102 27.1561 132.259 27.2522 132.377 27.3884C132.494 27.5271 132.556 27.7035 132.552 27.8846C132.556 28.0441 132.516 28.2016 132.438 28.3407C132.365 28.4672 132.264 28.5751 132.142 28.6559C132.006 28.7438 131.856 28.8074 131.698 28.8436C131.526 28.8799 131.35 28.8956 131.174 28.8906Z" fill="white"/>
<path d="M136.042 27.2475C136.043 27.4506 136.021 27.6532 135.975 27.8511C135.933 28.0417 135.853 28.2219 135.74 28.3809C135.623 28.541 135.468 28.67 135.289 28.7564C135.078 28.8522 134.849 28.9003 134.617 28.8973C134.385 28.9065 134.155 28.8605 133.944 28.7631C133.776 28.6815 133.63 28.5594 133.521 28.4077C133.411 28.2523 133.333 28.0768 133.292 27.8913C133.245 27.6868 133.223 27.4774 133.225 27.2676C133.225 27.0572 133.252 26.8476 133.305 26.644C133.354 26.4512 133.438 26.2692 133.554 26.1075C133.67 25.9471 133.822 25.8162 133.998 25.7252C134.207 25.6245 134.438 25.5762 134.67 25.5844C134.903 25.5751 135.134 25.6235 135.343 25.7252C135.515 25.8139 135.662 25.9427 135.773 26.1008C135.885 26.2626 135.962 26.445 136.002 26.6373C136.037 26.8387 136.051 27.0432 136.042 27.2475ZM135.484 27.2475C135.494 27.1001 135.494 26.9523 135.484 26.8049C135.466 26.663 135.425 26.5249 135.363 26.3958C135.306 26.273 135.218 26.1669 135.108 26.0873C134.981 26.0026 134.83 25.9603 134.677 25.9666C134.523 25.9604 134.371 26.0001 134.24 26.0806C134.128 26.1556 134.035 26.2569 133.971 26.3757C133.896 26.5156 133.845 26.6677 133.823 26.825C133.797 26.9734 133.784 27.1237 133.783 27.2743C133.772 27.4262 133.772 27.5786 133.783 27.7304C133.801 27.8667 133.845 27.9985 133.911 28.1193C133.975 28.231 134.068 28.3236 134.18 28.3876C134.32 28.461 134.478 28.4957 134.637 28.4882C134.786 28.4954 134.933 28.458 135.061 28.3809C135.169 28.3081 135.257 28.2088 135.316 28.0925C135.38 27.9683 135.423 27.8347 135.444 27.6968C135.468 27.5527 135.482 27.407 135.484 27.2609V27.2475Z" fill="white"/>
<path d="M138.82 28.837V26.0404H137.273V28.837H136.742V25.6448H139.358C139.358 26.1768 139.358 26.7088 139.358 27.2409C139.358 27.7729 139.358 28.3049 139.358 28.837H138.82Z" fill="white"/>
<path d="M142.565 28.4412H142.996V28.7564C142.91 28.798 142.82 28.8295 142.727 28.8503C142.632 28.8724 142.535 28.8836 142.438 28.8839C142.333 28.8897 142.229 28.8615 142.142 28.8034C142.099 28.7604 142.066 28.7088 142.045 28.6522C142.025 28.5955 142.016 28.535 142.021 28.4748C141.827 28.6462 141.597 28.7723 141.348 28.8436C141.265 28.8684 141.179 28.8841 141.093 28.8906H140.904C140.747 28.8954 140.59 28.8632 140.447 28.7967C140.337 28.7423 140.241 28.6644 140.165 28.5687C140.096 28.4789 140.045 28.3763 140.017 28.2669C139.991 28.1707 139.977 28.0715 139.976 27.9718C139.972 27.8444 139.998 27.7178 140.05 27.6016C140.102 27.4854 140.181 27.3827 140.279 27.3012C140.545 27.1093 140.865 27.006 141.194 27.0061L142.014 26.9524V26.7513C142.032 26.552 141.98 26.3528 141.866 26.1879C141.791 26.1253 141.704 26.0787 141.61 26.051C141.517 26.0233 141.418 26.0151 141.321 26.027C141.157 26.0284 140.992 26.0441 140.83 26.0739C140.661 26.1054 140.495 26.1503 140.333 26.2081L140.212 25.8459C140.406 25.7605 140.609 25.6975 140.817 25.6581C141.025 25.6153 141.237 25.5929 141.449 25.5911C141.733 25.5745 142.014 25.6575 142.243 25.8258C142.349 25.9333 142.43 26.0631 142.48 26.2058C142.53 26.3484 142.548 26.5004 142.532 26.6507L142.565 28.4412ZM141.22 27.3682C141.045 27.3617 140.873 27.4189 140.736 27.5292C140.684 27.5807 140.643 27.6425 140.617 27.7107C140.59 27.7788 140.578 27.8518 140.582 27.9249C140.575 28.0011 140.585 28.0778 140.609 28.1504C140.633 28.223 140.672 28.29 140.723 28.3473C140.849 28.4512 141.011 28.5018 141.173 28.4882C141.323 28.4861 141.471 28.4494 141.604 28.3809C141.766 28.2994 141.915 28.1956 142.048 28.0724V27.3146L141.22 27.3682Z" fill="white"/>
<path d="M144.099 27.2207C144.098 27.385 144.114 27.549 144.146 27.7102C144.173 27.8481 144.226 27.9798 144.3 28.0992C144.369 28.2106 144.466 28.3011 144.583 28.3608C144.721 28.4267 144.873 28.4588 145.027 28.4546C145.185 28.4553 145.343 28.4373 145.497 28.401C145.653 28.3629 145.806 28.3136 145.955 28.2535L146.103 28.6089C145.942 28.6924 145.773 28.7576 145.598 28.8034C145.399 28.857 145.193 28.8841 144.986 28.8838C144.756 28.8897 144.527 28.8487 144.314 28.7631C144.14 28.6905 143.987 28.5752 143.87 28.4278C143.754 28.277 143.671 28.1032 143.628 27.9181C143.578 27.7118 143.553 27.5001 143.554 27.2878C143.556 27.1007 143.576 26.9143 143.614 26.7311C143.654 26.5338 143.729 26.3452 143.836 26.1745C143.947 25.9979 144.1 25.8506 144.28 25.7453C144.507 25.6238 144.763 25.5659 145.02 25.5777C145.168 25.5684 145.316 25.5684 145.464 25.5777C145.628 25.6009 145.789 25.646 145.941 25.7118L145.813 26.094C145.679 26.0455 145.539 26.0118 145.397 25.9934H145.054C144.916 25.9858 144.779 26.0124 144.655 26.071C144.53 26.1295 144.422 26.2181 144.341 26.3288C144.166 26.5925 144.081 26.9052 144.099 27.2207Z" fill="white"/>
<path d="M148.692 28.837V27.3415H147.138V28.837H146.6V25.6381H147.138V26.9123H148.685V25.6381H149.216V28.837H148.692Z" fill="white"/>
<path d="M152.76 27.2475C152.761 27.4506 152.739 27.6532 152.693 27.8511C152.651 28.0417 152.571 28.2219 152.458 28.3809C152.341 28.541 152.186 28.67 152.007 28.7564C151.796 28.8522 151.566 28.9003 151.334 28.8973C151.103 28.9065 150.872 28.8605 150.662 28.7631C150.493 28.6815 150.348 28.5594 150.238 28.4077C150.129 28.2523 150.051 28.0768 150.01 27.8913C149.963 27.6868 149.94 27.4774 149.942 27.2676C149.943 27.0572 149.97 26.8476 150.023 26.644C150.072 26.4512 150.156 26.2692 150.272 26.1075C150.388 25.9471 150.54 25.8162 150.716 25.7252C150.925 25.6245 151.156 25.5762 151.388 25.5844C151.621 25.5751 151.852 25.6235 152.061 25.7252C152.233 25.8139 152.38 25.9427 152.491 26.1008C152.602 26.2626 152.68 26.445 152.72 26.6373C152.755 26.8387 152.768 27.0432 152.76 27.2475ZM152.202 27.2475C152.211 27.1001 152.211 26.9523 152.202 26.8049C152.184 26.663 152.143 26.5249 152.081 26.3958C152.023 26.273 151.935 26.1669 151.825 26.0873C151.698 26.0026 151.548 25.9603 151.395 25.9666C151.241 25.9604 151.089 26.0001 150.958 26.0806C150.845 26.1556 150.753 26.2569 150.689 26.3757C150.62 26.5036 150.572 26.6417 150.548 26.7848C150.522 26.9332 150.508 27.0835 150.507 27.2341C150.497 27.3859 150.497 27.5383 150.507 27.6901C150.526 27.8265 150.569 27.9583 150.635 28.0791C150.699 28.1908 150.792 28.2834 150.904 28.3474C151.045 28.4208 151.203 28.4555 151.361 28.4479C151.51 28.4551 151.658 28.4178 151.785 28.3406C151.894 28.2678 151.981 28.1686 152.041 28.0523C152.104 27.9281 152.147 27.7945 152.168 27.6566C152.188 27.5256 152.2 27.3934 152.202 27.2609V27.2475Z" fill="white"/>
<path d="M153.95 27.2207C153.95 27.385 153.966 27.549 153.998 27.7102C154.025 27.8481 154.078 27.9798 154.152 28.0992C154.22 28.2106 154.318 28.3011 154.435 28.3608C154.573 28.4267 154.725 28.4588 154.878 28.4546C155.037 28.4553 155.195 28.4373 155.349 28.401C155.505 28.3629 155.658 28.3136 155.806 28.2535L155.954 28.6089C155.794 28.6924 155.625 28.7576 155.45 28.8034C155.251 28.857 155.045 28.8841 154.838 28.8838C154.608 28.8897 154.379 28.8487 154.166 28.7631C153.992 28.6905 153.839 28.5752 153.722 28.4278C153.606 28.277 153.523 28.1032 153.48 27.9181C153.429 27.7118 153.405 27.5001 153.406 27.2878C153.408 27.1007 153.428 26.9143 153.466 26.7311C153.506 26.5338 153.581 26.3452 153.688 26.1745C153.799 25.9979 153.952 25.8506 154.132 25.7453C154.359 25.6238 154.615 25.5659 154.872 25.5777C155.02 25.5684 155.168 25.5684 155.316 25.5777C155.48 25.6009 155.641 25.646 155.793 25.7118L155.665 26.094C155.53 26.0455 155.391 26.0118 155.248 25.9934H154.905C154.768 25.9858 154.631 26.0124 154.506 26.071C154.382 26.1295 154.274 26.2181 154.193 26.3288C154.018 26.5925 153.933 26.9052 153.95 27.2207Z" fill="white"/>
<path d="M157.272 26.0538H156.143V25.6381H158.933V26.0538H157.81V28.837H157.279L157.272 26.0538Z" fill="white"/>
<path d="M159.902 25.6381V26.7848H160.89C161.06 26.7804 161.23 26.81 161.388 26.872C161.518 26.9249 161.635 27.005 161.731 27.1067C161.82 27.2015 161.888 27.3133 161.933 27.4353C161.977 27.5557 162 27.6828 162 27.8109C162.003 27.958 161.975 28.1041 161.919 28.2401C161.868 28.3611 161.792 28.4705 161.697 28.562C161.603 28.6527 161.491 28.7234 161.368 28.7699C161.235 28.82 161.093 28.845 160.951 28.8437H159.377V25.6381H159.902ZM159.902 27.1671V28.4346H160.857C161.022 28.4426 161.184 28.3847 161.307 28.2736C161.365 28.2144 161.41 28.1439 161.439 28.0665C161.468 27.9892 161.48 27.9067 161.475 27.8243C161.481 27.7344 161.467 27.6444 161.433 27.5608C161.399 27.4773 161.347 27.4023 161.28 27.3415C161.143 27.2266 160.968 27.1668 160.79 27.1738L159.902 27.1671Z" fill="white"/>
<path d="M41.7811 20.3467L49.0775 34.9999H53.2065L43.8456 16.2023L41.7811 20.3467Z" fill="#558CC9"/>
<path d="M16.6573 9.83731C17.4433 8.25903 18.5955 6.8905 20.0182 5.84536C21.441 4.80021 23.0932 4.10859 24.8377 3.82793C26.5822 3.54726 28.3687 3.68565 30.0489 4.2316C31.729 4.77755 33.2543 5.71532 34.4981 6.96703C35.1509 5.90946 35.9349 4.93832 36.8316 4.07663C35.154 2.47693 33.1224 1.29333 30.9012 0.621514C28.68 -0.050304 26.3314 -0.191492 24.0453 0.209362C21.7592 0.610217 19.5998 1.54187 17.7416 2.929C15.8834 4.31613 14.3785 6.11983 13.3487 8.19427L0 34.9992H4.12902L16.6573 9.83731Z" fill="#558CC9"/>
<path d="M36.8317 30.2855L39.1786 35H43.3076L38.8962 26.141L36.8317 30.2855Z" fill="#558CC9"/>
<path d="M26.6032 13.0906C27.1048 13.0853 27.5976 13.2225 28.0239 13.4861C28.4502 13.7498 28.7925 14.1289 29.0107 14.5794L29.8177 16.1956L31.8351 12.1316C31.2011 11.2242 30.3412 10.4971 29.3399 10.0217C28.3386 9.54626 27.2305 9.33895 26.1245 9.42015C25.0186 9.50135 23.9528 9.86825 23.0322 10.4848C22.1115 11.1013 21.3676 11.9462 20.8737 12.9363L9.89886 34.9999H14.0279L24.2092 14.5794C24.4265 14.131 24.7666 13.7532 25.1903 13.4897C25.614 13.2262 26.1039 13.0878 26.6032 13.0906Z" fill="#558CC9"/>
<path d="M60.3213 8.19495C59.1044 5.72868 57.2174 3.65284 54.8752 2.20395C52.5329 0.755056 49.8297 -0.00863209 47.0735 -0.000106942C44.5535 -0.0150753 42.0722 0.61832 39.8693 1.83889C37.6665 3.05946 35.8165 4.82595 34.4981 6.9677C34.2493 7.36337 34.0139 7.77246 33.8256 8.19495L31.8418 12.1382L29.8244 16.2022L20.4635 34.9798H24.5925L31.8822 20.3467L33.9467 16.2022L36.8316 10.408L37.1141 9.83799C37.6337 8.785 38.3143 7.81894 39.1315 6.97441C40.3749 5.72245 41.8997 4.78431 43.5795 4.23786C45.2594 3.69142 47.0456 3.55242 48.7901 3.83242C50.5346 4.11242 52.1869 4.80334 53.61 5.84781C55.033 6.89229 56.1857 8.2602 56.9723 9.83799L69.5006 35.0066H73.6296L60.3213 8.19495Z" fill="#558CC9"/>
<path d="M47.0735 9.38871C46.0437 9.38529 45.0285 9.63202 44.1158 10.1076C43.2031 10.5831 42.4202 11.2732 41.8349 12.1182C41.6564 12.3746 41.4969 12.6435 41.3574 12.9229L39.7367 16.1822L36.8316 21.9965L34.7671 26.1544L30.3557 34.9999H34.4847L36.8316 30.3055L38.8961 26.1544L41.7811 20.3602L43.8456 16.2157L44.6525 14.5995C44.8749 14.1513 45.2185 13.7741 45.6445 13.5103C46.0705 13.2466 46.562 13.1068 47.0634 13.1068C47.5648 13.1068 48.0562 13.2466 48.4822 13.5103C48.9082 13.7741 49.2518 14.1513 49.4742 14.5995L59.6354 34.9999H63.7644L52.7828 12.943C52.2609 11.8765 51.4489 10.9777 50.4394 10.3492C49.4298 9.72075 48.2635 9.38792 47.0735 9.38871Z" fill="#558CC9"/>
<path d="M82.3517 4.15784H80.3477V31.7541H82.3517V4.15784Z" fill="white"/>
<path d="M103.259 22.0367V11.3067L98.8072 22.0367H97.7178L93.2862 11.3067V22.0367H90.7845V7.59143H94.3689L98.3028 17.1009L102.217 7.59143H105.801V22.0367H103.259Z" fill="white"/>
<path d="M108.881 22.0367V7.59143H118.807V9.82462H111.409V13.5734H118.639V15.8066H111.423V19.8304H118.82V22.0636L108.881 22.0367Z" fill="white"/>
<path d="M121.416 22.0367V7.59143H127.771C130.81 7.59143 132.478 9.67037 132.478 12.1182C132.478 14.5659 130.763 16.6449 127.771 16.6449H123.951V22.0099L121.416 22.0367ZM129.909 12.1182C129.912 11.8011 129.849 11.487 129.723 11.1957C129.598 10.9045 129.412 10.6426 129.18 10.4268C128.947 10.2109 128.671 10.0459 128.371 9.94223C128.07 9.83855 127.751 9.79849 127.435 9.82462H123.958V14.4184H127.435C127.752 14.4436 128.07 14.4026 128.37 14.2981C128.67 14.1936 128.945 14.0278 129.178 13.8113C129.41 13.5949 129.594 13.3325 129.719 13.041C129.844 12.7494 129.906 12.4351 129.903 12.1182H129.909Z" fill="white"/>
<path d="M133.964 14.8275C133.964 10.3879 137.286 7.35669 141.563 7.35669C142.736 7.329 143.894 7.61557 144.917 8.18651C145.94 8.75745 146.791 9.59182 147.38 10.6025L145.208 11.7091C144.831 11.0763 144.297 10.5509 143.658 10.1833C143.018 9.81567 142.295 9.61825 141.557 9.61C138.692 9.61 136.56 11.7962 136.56 14.8275C136.56 17.8587 138.692 20.0449 141.557 20.0449C142.296 20.0419 143.021 19.8467 143.662 19.4786C144.302 19.1105 144.835 18.5822 145.208 17.9459L147.38 19.0524C146.789 20.0612 145.937 20.894 144.915 21.4647C143.892 22.0353 142.735 22.3231 141.563 22.2983C137.286 22.2983 133.964 19.267 133.964 14.8275Z" fill="white"/>
<path d="M149.425 22.0367V7.59143H151.98V17.6508L159.377 7.59143H161.987V22.0367H159.445V11.7292L151.879 22.0367H149.425Z" fill="white"/>
</g>
<defs>
<clipPath id="clip0">
<rect width="162" height="35" fill="white"/>
</clipPath>
</defs>
</svg>
