<svg width="83" height="83" viewBox="0 0 83 83" fill="none" xmlns="http://www.w3.org/2000/svg">
<path d="M46.4199 35.6788C46.409 35.5567 46.374 35.438 46.3171 35.3294C46.2602 35.2208 46.1823 35.1245 46.0881 35.0461C45.9938 34.9677 45.885 34.9086 45.7679 34.8723C45.6507 34.8361 45.5276 34.8233 45.4055 34.8347L31.7677 36.0808L25.5091 29.8161C25.3342 29.641 25.0969 29.5425 24.8493 29.5424C24.6018 29.5422 24.3643 29.6403 24.1891 29.8152C24.014 29.9901 23.9155 30.2273 23.9153 30.4748C23.9151 30.7223 24.0133 30.9597 24.1882 31.1348L30.7564 37.7093C30.843 37.7961 30.9459 37.8649 31.0592 37.9119C31.1725 37.9589 31.294 37.9831 31.4166 37.983C31.4449 37.983 31.4732 37.9817 31.5017 37.9792L45.5755 36.693C45.6975 36.6819 45.8162 36.6468 45.9247 36.5898C46.0332 36.5328 46.1294 36.4549 46.2078 36.3608C46.2862 36.2666 46.3453 36.1579 46.3817 36.0409C46.4181 35.9239 46.431 35.8008 46.4199 35.6788V35.6788Z" fill="#393939"/>
<path d="M65.9802 55.5532C67.049 53.5062 67.5792 51.2219 67.5211 48.9146C67.463 46.6073 66.8185 44.3525 65.648 42.3616C64.6518 40.6354 63.2818 39.1528 61.6381 38.0218C59.9944 36.8909 58.1183 36.1401 56.1467 35.8243C56.1467 35.8073 56.1467 35.7901 56.1467 35.7731C56.1467 22.254 45.1307 11.2542 31.59 11.2542C18.0494 11.2542 7.03387 22.2534 7.03387 35.7731C7.03387 49.2927 18.0499 60.2918 31.5906 60.2918C33.2906 60.2924 34.9861 60.1177 36.65 59.7704C36.7188 60.117 36.9063 60.4289 37.1803 60.6528C37.4543 60.8767 37.7978 60.9986 38.152 60.9976H41.2758V63.3597C40.5367 63.3734 39.8333 63.6795 39.3204 64.2105C38.8075 64.7416 38.5271 65.4541 38.5409 66.1914C38.5547 66.9286 38.8615 67.6302 39.3939 68.1418C39.9263 68.6534 40.6407 68.9331 41.3798 68.9194H41.4119L46.9188 68.8353C47.0477 68.8333 47.1747 68.8044 47.2917 68.7503C47.4086 68.6963 47.5129 68.6184 47.5978 68.5217C48.1898 68.5188 48.8131 68.5162 49.3582 68.5138H49.3627C49.5958 68.5134 49.8224 68.5908 50.0062 68.7339C50.1901 68.8769 50.3207 69.0772 50.3771 69.3028L51.5264 73.8619C51.5766 74.0611 51.6921 74.238 51.8545 74.3643C52.017 74.4906 52.2171 74.5593 52.4231 74.5593H65.2152C65.3569 74.5593 65.4967 74.5268 65.6238 74.4643C65.7509 74.4019 65.8619 74.3111 65.9483 74.199C66.0347 74.087 66.094 73.9566 66.1219 73.818C66.1497 73.6795 66.1452 73.5363 66.1088 73.3998C66.0874 73.32 63.9838 65.3713 64.4473 60.4032C64.5529 59.2752 65.5739 56.5599 65.9802 55.5532ZM55.1591 58.5768H55.129C54.2842 58.5749 53.474 58.2422 52.8726 57.6504C52.2712 57.0586 51.9268 56.2549 51.9136 55.4124L51.9066 54.8964C51.9008 54.474 51.9788 54.0547 52.136 53.6625C52.2932 53.2703 52.5264 52.9129 52.8224 52.6109C53.1184 52.3088 53.4713 52.0681 53.8609 51.9024C54.2504 51.7367 54.6689 51.6494 55.0923 51.6455H55.1226C55.9673 51.6475 56.7775 51.9803 57.3788 52.5721C57.9801 53.1639 58.3244 53.9676 58.3376 54.8101L58.3446 55.3259C58.3503 55.7483 58.2723 56.1676 58.1151 56.5598C57.9579 56.952 57.7246 57.3094 57.4286 57.6114C57.1326 57.9135 56.7797 58.1542 56.3902 58.3199C56.0007 58.4856 55.5822 58.5729 55.1588 58.5768H55.1591ZM8.88329 35.7731C8.88329 23.2705 19.0697 13.0989 31.5906 13.0989C44.0729 13.0989 54.234 23.2083 54.2964 35.6582C54.236 35.6567 54.1761 35.6546 54.1152 35.6538C54.0598 35.6538 54.0047 35.6529 53.9495 35.6529C50.2025 35.6526 46.5977 37.0839 43.8759 39.6526C41.1541 42.2212 39.522 45.7322 39.3151 49.464C39.3007 49.7005 39.2944 51.4405 39.2925 52.1936L37.1618 57.7579C35.3402 58.2161 33.4687 58.4476 31.59 58.4471C19.0697 58.4471 8.88329 48.2756 8.88329 35.7731ZM41.3867 67.0745C41.1393 67.0758 40.9015 66.9797 40.7247 66.8072C40.5479 66.6347 40.4464 66.3996 40.4422 66.153C40.438 65.9063 40.5315 65.6679 40.7024 65.4896C40.8732 65.3112 41.1077 65.2072 41.355 65.2002H45.9395L45.966 67.0047L41.3867 67.0745ZM43.1246 63.3554V60.0755C43.1246 59.8309 43.0272 59.5963 42.8538 59.4233C42.6803 59.2504 42.4451 59.1532 42.1999 59.1532H38.6079L41.0801 52.6941C41.12 52.5897 41.1406 52.479 41.141 52.3673C41.1437 51.1392 41.1517 49.7435 41.1609 49.57C41.3329 46.3058 42.7561 43.2323 45.1362 40.9853C47.5163 38.7383 50.6712 37.4897 53.9483 37.4979C53.9965 37.4979 54.0461 37.4979 54.0943 37.4988C54.1161 37.4988 54.1379 37.5 54.1595 37.5004V49.8927C52.9932 50.1181 51.9433 50.7452 51.1935 51.6644C50.4438 52.5837 50.0418 53.7365 50.0578 54.9214L50.0648 55.4374C50.0829 56.58 50.4877 57.6829 51.2135 58.567C51.9393 59.4511 52.9434 60.0644 54.0628 60.3075L54.073 61.3888C54.0821 62.3632 53.7028 63.3012 53.0187 63.9967C52.3346 64.6923 51.4016 65.0883 50.4248 65.0979L47.7874 65.1141L47.775 64.2645C47.7715 64.0222 47.6725 63.7909 47.4995 63.6208C47.3264 63.4507 47.0932 63.3553 46.8502 63.3553L43.1246 63.3554ZM64.3198 54.7398C64.306 54.7661 64.2934 54.7931 64.2823 54.8206C64.1267 55.2041 62.7571 58.6136 62.6062 60.2316C62.2175 64.397 63.4473 70.2466 64.0329 72.7142H53.1443L52.1706 68.8524C52.0659 68.4353 51.869 68.0469 51.5942 67.7156C51.3195 67.3843 50.9739 67.1185 50.5828 66.9377C52.0247 66.8878 53.39 66.2779 54.3875 65.238C55.3849 64.1981 55.9355 62.8107 55.9218 61.3716L55.9124 60.3616C57.1172 60.1732 58.2135 59.5577 59 58.6282C59.7865 57.6986 60.2106 56.5172 60.1943 55.3009L60.1873 54.785C60.1687 53.611 59.7417 52.48 58.9795 51.5852C58.2172 50.6905 57.167 50.0877 56.0084 49.88V37.6721C57.6793 37.9638 59.2655 38.6181 60.655 39.5886C62.0444 40.5591 63.2032 41.8223 64.0493 43.2887C65.0658 45.0173 65.6241 46.9758 65.6714 48.9793C65.7187 50.9828 65.2536 52.9653 64.3198 54.7398V54.7398Z" fill="#393939"/>
</svg>
