<svg width="73" height="66" viewBox="0 0 73 66" fill="none" xmlns="http://www.w3.org/2000/svg">
<path d="M58.5659 34.6733C58.5607 34.6639 58.5555 34.6552 58.5503 34.6465C58.122 33.9518 57.5367 33.369 56.8423 32.9462V16.9498C56.8423 16.5923 56.631 16.2692 56.3055 16.1277L56.1248 16.0496C46.4772 11.8619 37.3559 6.53463 28.9528 0.179051C28.6376 -0.0596836 28.2041 -0.0596836 27.889 0.179051C19.4858 6.53463 10.3651 11.8619 0.717484 16.0496L0.536814 16.1277C0.210685 16.2692 0 16.5923 0 16.9498V33.0633C0 38.705 1.46729 43.9501 4.3609 48.6526C6.66516 52.3972 9.87219 55.8012 13.8919 58.7691C20.7043 63.7983 27.4127 65.8124 27.6956 65.8951C27.8555 65.9422 28.0258 65.9434 28.1862 65.8974C28.3351 65.8549 31.6507 64.8929 36.026 62.6628C36.1143 62.894 36.2182 63.1193 36.3377 63.3359C37.2324 64.9902 38.9566 66.0138 40.8244 65.9999H67.563C69.4245 65.9999 71.14 64.9832 72.0463 63.3429C72.9525 61.7032 72.9075 59.6961 71.9285 58.0995L58.5659 34.6733ZM36.4584 58.0989C35.9521 58.9176 35.6832 59.8632 35.6837 60.8286C33.2005 62.1353 30.6129 63.23 27.9478 64.1005C26.6854 63.6905 20.7493 61.6264 14.8963 57.2936C11.6748 54.9086 9.01156 52.2389 6.94973 49.3374C7.23834 49.1819 7.41901 48.8791 7.41901 48.5484V46.8499C7.41901 46.3561 7.02188 45.9555 6.5324 45.9555C6.04291 45.9555 5.64579 46.3561 5.64579 46.8499V47.3343C3.07831 43.0156 1.77322 38.2176 1.77322 33.0627V17.538C11.2154 13.4073 20.1565 8.19703 28.4211 2.01032C36.6858 8.19703 45.6269 13.4073 55.0691 17.538V32.2824C54.7799 32.2318 54.4867 32.2061 54.1934 32.2056C52.4191 32.1997 50.7694 33.1238 49.8366 34.6465C49.8314 34.6552 49.8262 34.6639 49.821 34.6733L36.4584 58.0989ZM70.4999 62.4666C69.914 63.5491 68.7856 64.2193 67.563 64.2099H40.8239C39.6036 64.2099 38.4792 63.5426 37.887 62.4672C37.2942 61.3911 37.3265 60.0752 37.9718 59.0306C37.977 59.0218 37.9822 59.0131 37.9874 59.0044L51.3495 35.5793C51.9642 34.5929 53.0384 33.9943 54.1934 33.9943C55.3485 33.9943 56.4221 34.5929 57.0368 35.5793L70.3983 59.0044C70.4035 59.0131 70.4087 59.0218 70.4145 59.0306C71.0685 60.0728 71.1014 61.3929 70.5005 62.4666H70.4999Z" fill="#393939"/>
<path d="M54.5217 42.087C53.993 42.087 53.5652 42.4887 53.5652 42.9837V54.5815C53.5652 55.0772 53.993 55.4783 54.5217 55.4783C55.0498 55.4783 55.4783 55.0772 55.4783 54.5815V42.9837C55.4783 42.4887 55.0498 42.087 54.5217 42.087V42.087Z" fill="#393939"/>
<path d="M54.5217 57.3913C53.993 57.3913 53.5652 57.7888 53.5652 58.2799V59.3722C53.5652 59.8628 53.993 60.2609 54.5217 60.2609C55.0498 60.2609 55.4783 59.8628 55.4783 59.3722V58.2799C55.4783 57.7888 55.0498 57.3913 54.5217 57.3913Z" fill="#393939"/>
</svg>
