<svg width="29" height="32" viewBox="0 0 29 32" fill="none" xmlns="http://www.w3.org/2000/svg">
<g opacity="0.7">
<path d="M25.4367 10.9464C25.4367 4.90087 20.5358 0 14.4903 0C8.44476 0 3.5439 4.90087 3.5439 10.9464C1.981 11.141 0.503235 12.1627 0.503235 14.5344V20.2508C0.503235 22.9266 2.37628 23.8996 4.15203 23.8996H5.91561C6.25146 23.8996 6.52375 23.6273 6.52375 23.2915V11.518C6.52375 11.1822 6.25146 10.9099 5.91561 10.9099H4.76016C4.76016 5.53614 9.11652 1.17978 14.4903 1.17978C19.864 1.17978 24.2204 5.53614 24.2204 10.9099H23.065C22.7291 10.9099 22.4568 11.1822 22.4568 11.518V23.2732C22.4568 23.6091 22.7291 23.8814 23.065 23.8814H24.2204C24.0501 28.0592 22.0433 29.0383 18.0357 29.2147V28.8072C18.0357 28.1355 17.4912 27.591 16.8194 27.591H12.9943C12.3225 27.591 11.778 28.1355 11.778 28.8072V30.7837C11.778 31.4554 12.3225 31.9999 12.9943 31.9999H16.8316C17.5034 31.9999 18.0479 31.4554 18.0479 30.7837V30.431C21.9034 30.2546 25.236 29.4579 25.4367 23.8449C26.9996 23.6503 28.4773 22.6286 28.4773 20.2569V14.5405C28.4773 12.1566 27.0057 11.141 25.4367 10.9464ZM5.30748 12.0836V22.6651H4.12162C3.22159 22.6651 1.68909 22.3489 1.68909 20.2326V14.5161C1.68909 12.4181 3.20334 12.0836 4.12162 12.0836H5.30748ZM16.8316 29.8654V30.7898H12.9943V28.8133H16.8316V29.8654ZM27.2611 20.2508C27.2611 22.3489 25.7468 22.6833 24.8285 22.6833H23.6731V12.1262H24.8589C25.759 12.1262 27.2915 12.4424 27.2915 14.5587L27.2611 20.2508Z" fill="white"/>
</g>
</svg>
