<svg width="168" height="42" viewBox="0 0 168 42" fill="none" xmlns="http://www.w3.org/2000/svg">
<path d="M63.8139 6.37017L54.3469 5.53804C49.1272 5.05917 46.6905 7.81324 50.8645 12.6814L60.4128 23.7712C63.0021 26.7536 66.0251 27.3349 66.6951 22.3535L67.9646 12.8317C68.7715 7.0429 68.0566 6.7215 63.8139 6.37017ZM66.2804 12.5481L65.237 19.2292C64.6124 23.0627 63.7517 23.5386 61.0425 20.0295L56.1963 13.7797C53.6786 10.525 54.252 9.5276 57.6929 9.64504L64.1349 9.8952C65.6328 9.9186 66.6231 10.3246 66.2804 12.5481Z" fill="url(#paint0_linear)"/>
<path d="M86.9558 18.9418C78.8475 30.771 83.2722 30.9206 90.4904 28.8468L98.4419 26.6288C105.364 24.7118 105.659 24.854 105.07 18.7893L104.479 12.1351C103.598 1.63416 99.0328 1.33619 93.2896 9.76716L86.9558 18.9418ZM90.3414 27.2203C84.7472 28.9951 85.9215 26.0426 87.8373 23.233L95.2041 12.8739C98.1491 8.58436 98.8864 10.8046 99.626 14.3514L100.804 20.2704C101.245 22.635 101.391 23.8237 98.002 24.854L90.3414 27.2203Z" fill="url(#paint1_linear)"/>
<path d="M76.5637 35.0979L75.0437 18.1387C74.2841 9.6527 70.8895 9.15337 65.2369 13.3677L57.862 18.8082C52.2137 23.0189 52.3961 27.0908 55.3744 29.4994L66.7388 38.6643C71.9889 42.9102 77.3875 44.2134 76.5637 35.0979ZM68.1334 34.2424L60.3762 28.4874C55.6265 24.9633 56.7477 22.6439 59.9346 20.2444L64.5771 16.665C69.4363 12.8479 70.3184 17.0378 71.1765 22.396L72.6138 31.0872C73.8066 38.1109 71.3725 36.6958 68.1334 34.2424Z" fill="url(#paint2_linear)"/>
<path d="M95.6638 24.1745L81.8443 15.7243C79.0649 13.9739 75.3949 11.5236 76.9333 20.3805L78.8002 31.4978C80.1122 39.4044 81.8207 41.9331 87.3122 38.516L96.3619 32.9835C102.72 29.0639 101.042 27.4702 95.6638 24.1745ZM90.8412 32.0138L87.8541 33.8892C84.7744 35.8566 83.2441 34.9263 82.2518 31.1371L79.6023 20.7224C78.7004 17.0353 79.5453 16.9885 82.13 18.8151L90.7842 25.0099C94.6165 27.8472 93.7373 30.2252 90.8412 32.0138Z" fill="url(#paint3_linear)"/>
<path d="M86.994 8.52874L80.1202 2.15401C75.1305 -2.48683 72.9306 0.907773 71.6216 7.23401L67.8962 25.0885C66.0853 33.7967 69.687 34.0722 75.0266 28.4659L85.442 17.5085C90.7842 11.9019 90.1758 11.5271 86.994 8.52874ZM82.3765 16.8937L74.2102 26.0508C71.2166 29.4262 69.0854 29.9847 70.5354 25.1607L75.448 9.01964C76.2193 6.47084 76.7658 5.69271 78.5734 7.42204L82.8699 11.5157C84.9324 13.4256 84.1897 14.9077 82.3765 16.8937Z" fill="url(#paint4_linear)"/>
<path d="M86.9558 18.9418C78.8475 30.771 83.2722 30.9206 90.4904 28.8468L98.4419 26.6288C105.364 24.7118 105.659 24.854 105.07 18.7893L104.479 12.1351C103.598 1.63416 99.0328 1.33619 93.2896 9.76716L86.9558 18.9418ZM90.3414 27.2203C84.7472 28.9951 85.9215 26.0426 87.8373 23.233L95.2041 12.8739C98.1491 8.58436 98.8864 10.8046 99.626 14.3514L100.804 20.2704C101.245 22.635 101.391 23.8237 98.002 24.854L90.3414 27.2203Z" fill="url(#paint5_linear)"/>
<path d="M63.8139 6.37017L54.3469 5.53804C49.1272 5.05917 46.6905 7.81324 50.8645 12.6814L60.4128 23.7712C63.0021 26.7536 66.0251 27.3349 66.6951 22.3535L67.9646 12.8317C68.7715 7.0429 68.0566 6.7215 63.8139 6.37017ZM66.2804 12.5481L65.237 19.2292C64.6124 23.0627 63.7517 23.5386 61.0425 20.0295L56.1963 13.7797C53.6786 10.525 54.252 9.5276 57.6929 9.64504L64.1349 9.8952C65.6328 9.9186 66.6231 10.3246 66.2804 12.5481Z" fill="url(#paint6_linear)"/>
<path d="M94.7033 23.6576L81.5852 15.6336C78.946 13.9726 75.4613 11.646 76.9213 20.0548L78.6969 30.6085C79.9398 38.1143 81.5631 40.515 86.7754 37.2714L95.3677 32.0203C101.401 28.2978 99.8113 26.7858 94.7033 23.6576ZM90.1266 31.0967L87.2911 32.8785C84.3649 34.7457 82.9137 33.8648 81.9729 30.2675L79.4568 20.3798C78.602 16.8798 79.4018 16.8349 81.8556 18.5695L90.0722 24.4488C93.7091 27.1436 92.8759 29.3983 90.1266 31.0967Z" fill="url(#paint7_linear)"/>
<path d="M76.5637 35.0979L75.0437 18.1387C74.2841 9.6527 70.8895 9.15337 65.2369 13.3677L57.862 18.8082C52.2137 23.0189 52.3961 27.0908 55.3744 29.4994L66.7388 38.6643C71.9889 42.9102 77.3875 44.2134 76.5637 35.0979ZM68.1334 34.2424L60.3762 28.4874C55.6265 24.9633 56.7477 22.6439 59.9346 20.2444L64.5771 16.665C69.4363 12.8479 70.3184 17.0378 71.1765 22.396L72.6138 31.0872C73.8066 38.1109 71.3725 36.6958 68.1334 34.2424Z" fill="url(#paint8_linear)"/>
<path d="M32.877 24.0663C34.192 23.16 34.9752 21.6626 34.9752 20.0283C34.9752 17.6955 33.2048 15.2114 29.9176 15.2114C25.2198 15.2114 24.8545 19.0644 24.8545 20.2413V20.3217H27.7055L27.7091 20.2469C27.7927 18.7719 28.5343 18.0279 29.9176 18.0279C30.8143 18.0279 31.8621 18.6008 31.8621 20.2413C31.8621 21.2264 31.4105 22.8848 28.367 22.8848H28.2786V25.6151H28.367C31.9789 25.6151 32.2592 27.6431 32.2592 28.2589C32.2592 30.1147 31.0833 31.0874 29.9176 31.0874C28.444 31.0874 27.5217 30.2559 27.4435 28.8633L27.4387 28.7839H24.5906V28.8665C24.5906 31.373 26.2358 33.8955 29.9176 33.8955C33.3015 33.8955 35.3961 30.9843 35.3961 28.2852C35.3961 26.4397 34.4774 24.9072 32.877 24.0663Z" fill="#00187F"/>
<path d="M5.11152 15.2114H0V33.8955H3.19735V27.1014H4.84428C8.94849 27.1014 10.7825 24.0979 10.7825 21.1177C10.7825 17.3084 8.76804 15.2114 5.11152 15.2114ZM4.84428 24.1811H3.19735V17.973H5.08837C6.7617 17.973 7.61027 19.0403 7.61027 21.1421C7.61027 22.5478 6.88561 24.1811 4.84428 24.1811Z" fill="#00187F"/>
<path d="M17.753 14.9463C13.9314 14.9463 11.8203 18.3201 11.8203 24.4433C11.8203 30.6216 13.9649 34.1616 17.7013 34.1616C21.4853 34.1616 23.6583 30.5985 23.6583 24.3939C23.6583 18.3038 21.5618 14.9463 17.753 14.9463ZM17.753 31.267C16.0495 31.267 15.1506 28.8913 15.1506 24.3939C15.1506 19.9847 15.9841 17.8454 17.7013 17.8454C19.4454 17.8454 20.3309 20.0647 20.3309 24.4433C20.3309 28.9114 19.4368 31.267 17.753 31.267Z" fill="#00187F"/>
<path d="M43.8252 15.2781L43.8087 15.2114H40.4644L35.9644 33.7982L35.9444 33.8955H39.2485L40.1502 29.8799H44.1459L44.9898 33.8955H48.3539L43.8252 15.2781ZM42.1083 19.66C42.3083 21.0904 42.6627 22.8848 43.0001 24.6236L43.5346 27.0647H40.6868L41.2129 24.6473C41.6102 22.7417 41.9209 21.0026 42.1083 19.66Z" fill="#00187F"/>
<path d="M116.846 15.2114L114.637 20.9131L112.446 15.2687L112.423 15.2114H108.87L112.857 24.2898L108.922 33.78L108.87 33.8971H112.423L114.637 27.97L116.839 33.8971H120.394L116.412 24.2898L120.398 15.2114H116.846Z" fill="#00187F"/>
<path d="M162.332 15.2114H157.217V33.8971H160.411V27.1014H162.068C166.162 27.1014 168 24.0979 168 21.1177C168 17.3084 165.987 15.2114 162.332 15.2114ZM162.068 24.1811H160.411V17.973H162.305C163.979 17.973 164.828 19.0403 164.828 21.1421C164.828 22.5478 164.104 24.1811 162.068 24.1811Z" fill="#00187F"/>
<path d="M133.203 18.1304H136.84V33.8971H140.085V18.1304H143.746V15.2114H133.203V18.1304Z" fill="#00187F"/>
<path d="M149.528 14.9463C145.701 14.9463 143.6 18.3217 143.6 24.4466C143.6 30.6216 145.735 34.1616 149.466 34.1616C153.262 34.1616 155.43 30.5985 155.43 24.4014C155.43 18.3061 153.338 14.9463 149.528 14.9463ZM149.528 31.267C147.826 31.267 146.924 28.8913 146.924 24.4014C146.924 19.9847 147.757 17.8454 149.466 17.8454C151.22 17.8454 152.104 20.066 152.104 24.4466C152.104 28.9114 151.214 31.267 149.528 31.267Z" fill="#00187F"/>
<path d="M127.009 24.1362L124.617 15.2781L124.604 15.2114H121.053L125.349 29.3675C125.158 30.1772 124.44 31.0295 122.987 31.0295H122.904V33.8971H122.987C125.699 33.8971 127.357 32.7048 128.202 30.1395L132.55 15.3178L132.579 15.2114H129.134L127.009 24.1362Z" fill="#00187F"/>
<path d="M65.7184 16.929L67.3992 17.1165L68.1877 11.1374L66.4239 10.9707L65.7184 16.929Z" fill="url(#paint9_linear)"/>
<path d="M71.9644 28.2832L72.1304 30.8665L76.7787 26.6999L75.6996 24.5332L71.9644 28.2832Z" fill="url(#paint10_linear)"/>
<path d="M83.2219 16.002L80.6383 18.9499L83.419 19.6999L85.442 17.5084L83.2219 16.002Z" fill="url(#paint11_linear)"/>
<path d="M91.7194 26.7L92.0514 28.575L99.2727 26.325L97.9032 24.8667L91.7194 26.7Z" fill="url(#paint12_linear)"/>
<defs>
<linearGradient id="paint0_linear" x1="49.0569" y1="7.14928" x2="69.846" y2="17.9875" gradientUnits="userSpaceOnUse">
<stop offset="0.01" stop-color="#3F94DF"/>
<stop offset="0.99" stop-color="#C20067"/>
</linearGradient>
<linearGradient id="paint1_linear" x1="97.7438" y1="3.32674" x2="91.3379" y2="30.957" gradientUnits="userSpaceOnUse">
<stop offset="0.01" stop-color="#E9EB00"/>
<stop offset="0.99" stop-color="#3F94DF"/>
</linearGradient>
<linearGradient id="paint2_linear" x1="76.6476" y1="26.355" x2="53.3245" y2="26.355" gradientUnits="userSpaceOnUse">
<stop offset="0.01" stop-color="#653597"/>
<stop offset="0.99" stop-color="#C20067"/>
</linearGradient>
<linearGradient id="paint3_linear" x1="92.7745" y1="18.8144" x2="75.087" y2="31.4225" gradientUnits="userSpaceOnUse">
<stop offset="0.01" stop-color="#3F94DF"/>
<stop offset="0.99" stop-color="#541F8C"/>
</linearGradient>
<linearGradient id="paint4_linear" x1="83.4203" y1="3.69957" x2="60.2367" y2="22.4866" gradientUnits="userSpaceOnUse">
<stop offset="0.01" stop-color="#E9EB00"/>
<stop offset="0.99" stop-color="#C20067"/>
</linearGradient>
<linearGradient id="paint5_linear" x1="97.7438" y1="3.32674" x2="91.3379" y2="30.957" gradientUnits="userSpaceOnUse">
<stop offset="0.01" stop-color="#E9EB00"/>
<stop offset="0.99" stop-color="#3F94DF"/>
</linearGradient>
<linearGradient id="paint6_linear" x1="49.0569" y1="7.14928" x2="69.846" y2="17.9875" gradientUnits="userSpaceOnUse">
<stop offset="0.01" stop-color="#3F94DF"/>
<stop offset="0.99" stop-color="#C20067"/>
</linearGradient>
<linearGradient id="paint7_linear" x1="91.9608" y1="18.5682" x2="75.1704" y2="30.5377" gradientUnits="userSpaceOnUse">
<stop offset="0.01" stop-color="#3F94DF"/>
<stop offset="0.99" stop-color="#541F8C"/>
</linearGradient>
<linearGradient id="paint8_linear" x1="76.6476" y1="26.355" x2="53.3245" y2="26.355" gradientUnits="userSpaceOnUse">
<stop offset="0.01" stop-color="#653597"/>
<stop offset="0.99" stop-color="#C20067"/>
</linearGradient>
<linearGradient id="paint9_linear" x1="49.0569" y1="7.14931" x2="70.2755" y2="9.13534" gradientUnits="userSpaceOnUse">
<stop offset="0.01" stop-color="#3F94DF"/>
<stop offset="0.99" stop-color="#C20067"/>
</linearGradient>
<linearGradient id="paint10_linear" x1="83.4203" y1="3.69942" x2="61.6275" y2="25.6015" gradientUnits="userSpaceOnUse">
<stop offset="0.01" stop-color="#E9EB00"/>
<stop offset="0.99" stop-color="#C20067"/>
</linearGradient>
<linearGradient id="paint11_linear" x1="83.4203" y1="3.69948" x2="73.2988" y2="33.4072" gradientUnits="userSpaceOnUse">
<stop offset="0.01" stop-color="#E9EB00"/>
<stop offset="0.99" stop-color="#C20067"/>
</linearGradient>
<linearGradient id="paint12_linear" x1="97.7438" y1="3.32677" x2="96.5531" y2="31.4608" gradientUnits="userSpaceOnUse">
<stop offset="0.01" stop-color="#E9EB00"/>
<stop offset="0.99" stop-color="#3F94DF"/>
</linearGradient>
</defs>
</svg>
