<svg width="65" height="65" viewBox="0 0 65 65" fill="none" xmlns="http://www.w3.org/2000/svg">
<path d="M55.4811 9.51904C49.3426 3.38055 41.1811 0 32.5 0C23.8189 0 15.6575 3.38055 9.51904 9.51904C3.38069 15.6574 0 23.8189 0 32.5C0 41.1811 3.38055 49.3426 9.51904 55.481C15.6575 61.6194 23.8189 65 32.5 65C41.1811 65 49.3426 61.6194 55.481 55.481C61.6193 49.3426 65 41.1811 65 32.5C65 23.8189 61.6193 15.6574 55.4811 9.51904ZM32.5 62.9255C15.7232 62.9255 2.07447 49.2768 2.07447 32.5C2.07447 15.7232 15.7234 2.07447 32.5 2.07447C49.2766 2.07447 62.9255 15.7232 62.9255 32.5C62.9255 49.2768 49.2766 62.9255 32.5 62.9255Z" fill="#393939"/>
<path d="M45.8155 40.0839C45.3407 39.7629 44.6959 39.8876 44.3752 40.3621C41.6985 44.3209 37.2591 46.6844 32.5001 46.6844C27.741 46.6844 23.3017 44.3209 20.6248 40.3619C20.3041 39.8875 19.6592 39.7628 19.1845 40.0836C18.71 40.4045 18.5854 41.0492 18.9063 41.5238C21.9694 46.0541 27.0512 48.7587 32.5 48.7587C37.9487 48.7587 43.0305 46.0542 46.0936 41.524C46.4146 41.0495 46.2901 40.4047 45.8155 40.0839Z" fill="#393939"/>
<path d="M45.2345 23.0197C42.3747 23.0197 40.0483 25.3461 40.0483 28.2058C40.0483 28.7787 40.5125 29.2431 41.0855 29.2431C41.6585 29.2431 42.1227 28.7787 42.1227 28.2058C42.1227 26.49 43.5187 25.0941 45.2345 25.0941C46.9502 25.0941 48.3462 26.49 48.3462 28.2058C48.3462 28.7787 48.8104 29.2431 49.3834 29.2431C49.9564 29.2431 50.4206 28.7787 50.4206 28.2058C50.4206 25.3461 48.0942 23.0197 45.2345 23.0197Z" fill="#393939"/>
<path d="M22.8772 28.2058C22.8772 28.7787 23.3416 29.2431 23.9145 29.2431C24.4873 29.2431 24.9517 28.7787 24.9517 28.2058C24.9517 25.3461 22.6252 23.0197 19.7655 23.0197C16.9058 23.0197 14.5793 25.3461 14.5793 28.2058C14.5793 28.7787 15.0438 29.2431 15.6166 29.2431C16.1894 29.2431 16.6538 28.7787 16.6538 28.2058C16.6538 26.49 18.0497 25.0941 19.7655 25.0941C21.4814 25.0941 22.8772 26.49 22.8772 28.2058Z" fill="#393939"/>
<path d="M34.5745 50.8332H30.4255C29.8527 50.8332 29.3883 51.2976 29.3883 51.8704C29.3883 52.4433 29.8527 52.9077 30.4255 52.9077H34.5745C35.1474 52.9077 35.6117 52.4433 35.6117 51.8704C35.6117 51.2976 35.1473 50.8332 34.5745 50.8332Z" fill="#393939"/>
<path d="M13.2074 33.9043C12.6346 33.9043 12.1702 34.3687 12.1702 34.9415C12.1702 35.7041 11.5498 36.3245 10.7872 36.3245C10.0246 36.3245 9.40424 35.7041 9.40424 34.9415C9.40424 34.1789 10.0246 33.5585 10.7872 33.5585C11.36 33.5585 11.8245 33.0941 11.8245 32.5213C11.8245 31.9485 11.36 31.4841 10.7872 31.4841C8.88078 31.4841 7.32977 33.0351 7.32977 34.9415C7.32977 36.848 8.88078 38.399 10.7872 38.399C12.6937 38.399 14.2447 36.848 14.2447 34.9415C14.2447 34.3687 13.7803 33.9043 13.2074 33.9043Z" fill="#393939"/>
<path d="M56.633 33.9043C56.06 33.9043 55.5957 34.3687 55.5957 34.9415C55.5957 35.7041 54.9753 36.3245 54.2128 36.3245C53.4502 36.3245 52.8298 35.7041 52.8298 34.9415C52.8298 34.1789 53.4502 33.5585 54.2128 33.5585C54.7857 33.5585 55.25 33.0941 55.25 32.5213C55.25 31.9485 54.7857 31.4841 54.2128 31.4841C52.3063 31.4841 50.7553 33.0351 50.7553 34.9415C50.7553 36.848 52.3063 38.399 54.2128 38.399C56.1192 38.399 57.6702 36.848 57.6702 34.9415C57.6702 34.3687 57.2058 33.9043 56.633 33.9043Z" fill="#393939"/>
</svg>
