<svg width="46" height="10" viewBox="0 0 46 10" fill="none" xmlns="http://www.w3.org/2000/svg">
<path d="M11.8748 5.60778V0.222168L13.8129 0.222168V5.54037C13.8129 6.78999 14.5404 7.64899 15.9268 7.64899C17.3133 7.64899 18.0261 6.78912 18.0261 5.54037V0.222168L19.9781 0.222168V5.59482C19.9781 7.82442 18.6583 9.34193 15.9268 9.34193C13.1937 9.34193 11.8748 7.81059 11.8748 5.60778Z" fill="#999999"/>
<path d="M24.5836 7.9178L25.6193 6.46769C26.2524 7.1262 27.2344 7.67582 28.4728 7.67582C29.5233 7.67582 30.0343 7.19274 30.0343 6.68201C30.0343 5.09709 24.8659 6.1851 24.8659 2.81391C24.8659 1.32319 26.158 0.0874023 28.2711 0.0874023C29.6982 0.0874023 30.8821 0.516903 31.7706 1.33702L30.7072 2.73354C29.9814 2.06207 29.0115 1.75355 28.0961 1.75355C27.2751 1.75355 26.8179 2.11565 26.8179 2.65317C26.8179 4.07649 31.9724 3.12329 31.9724 6.46769C31.9724 8.10619 30.8016 9.34198 28.3793 9.34198C26.6568 9.34198 25.4184 8.76383 24.5836 7.9178Z" fill="#999999"/>
<path d="M36.4567 4.67179C36.4567 1.94961 38.4511 0 41.1791 0C43.92 0 45.9144 1.94961 45.9144 4.67179C45.9144 7.39312 43.92 9.34272 41.1791 9.34272C38.4511 9.34272 36.4567 7.39312 36.4567 4.67179ZM43.933 4.67179C43.933 2.97972 42.8479 1.70677 41.1791 1.70677C39.5102 1.70677 38.4381 2.97972 38.4381 4.67179C38.4381 6.35091 39.5102 7.63682 41.1791 7.63682C42.8479 7.63682 43.933 6.35091 43.933 4.67179Z" fill="#999999"/>
<path d="M5.24979 5.76852C6.21887 5.54037 7.21565 4.69433 7.21565 3.10941C7.21565 1.44413 6.07164 0.222168 4.20018 0.222168L0 0.222168L0 1.90042L1.9113 1.90042H2.05333L3.91786 1.90042C4.68515 1.90042 5.26365 2.35671 5.26365 3.10941C5.26365 3.86126 4.68428 4.31841 3.91786 4.31841L2.05333 4.31841H1.9113H0.000865871L0.000865871 9.18032H1.91216L1.91216 5.99753H3.31251L5.07486 9.18119L7.26934 9.18119L5.24979 5.76852Z" fill="#999999"/>
</svg>
