<svg width="49" height="49" viewBox="0 0 49 49" fill="none" xmlns="http://www.w3.org/2000/svg">
<path d="M45.7627 15.4836C44.7141 14.4343 43.0473 14.3684 41.9201 15.2869C41.7571 15.4197 41.8833 15.3026 39.4015 17.7845L45.8438 24.227L48.1592 21.9405C49.2786 20.8211 49.2786 18.9997 48.1592 17.8801L45.7627 15.4836Z" fill="#DCD6CB"/>
<path d="M26.1902 31.1177L22.4006 39.2385C22.1453 39.7856 22.2595 40.4338 22.6863 40.8606C23.1132 41.2876 23.7617 41.4016 24.3085 41.1464L32.4293 37.3566C32.7506 37.2067 31.7779 38.117 43.8009 26.2442L37.3713 19.8145C25.4507 31.7351 26.3432 30.7901 26.1902 31.1177Z" fill="#DCD6CB"/>
<path d="M34.8478 39.1207C34.4962 39.4678 34.091 39.7496 33.6434 39.9585L25.5226 43.7483C23.9257 44.4935 21.9748 44.2098 20.6563 42.891C19.3805 41.6153 19.0358 39.6596 19.7988 38.0244L23.5885 29.9034C23.8014 29.4474 24.0898 29.0357 24.4457 28.6796L36.6543 16.4711V4.30664C36.6543 1.93196 34.7223 0 32.3477 0H4.30664C1.93196 0 0 1.93196 0 4.30664V44.6934C0 47.068 1.93196 49 4.30664 49H32.3477C34.7223 49 36.6543 47.068 36.6543 44.6934V37.3366L34.8478 39.1207ZM7.65635 9.2832H29.0938C29.8866 9.2832 30.5294 9.92595 30.5294 10.7188C30.5294 11.5116 29.8866 12.1543 29.0938 12.1543H7.65635C6.86354 12.1543 6.2208 11.5116 6.2208 10.7188C6.2208 9.92595 6.86354 9.2832 7.65635 9.2832ZM7.65635 16.9395H24.5001C25.2929 16.9395 25.9356 17.5822 25.9356 18.375C25.9356 19.1678 25.2929 19.8105 24.5001 19.8105H7.65635C6.86354 19.8105 6.2208 19.1678 6.2208 18.375C6.2208 17.5822 6.86354 16.9395 7.65635 16.9395ZM6.2208 26.0312C6.2208 25.2384 6.86354 24.5957 7.65635 24.5957H19.9063C20.6992 24.5957 21.3419 25.2384 21.3419 26.0312C21.3419 26.8241 20.6992 27.4668 19.9063 27.4668H7.65635C6.86354 27.4668 6.2208 26.8241 6.2208 26.0312Z" fill="#DCD6CB"/>
</svg>
