<svg width="49" height="49" viewBox="0 0 49 49" fill="none" xmlns="http://www.w3.org/2000/svg">
<path d="M47.8669 7.12709C47.2141 6.853 46.4604 7.00244 45.9614 7.50464L38.4796 14.9882L34.1811 10.5305L41.4654 2.96127C42.1354 2.2662 42.1151 1.15958 41.42 0.489501C41.0938 0.175049 40.6582 -0.000511019 40.205 1.11734e-06H27.9684C27.5048 0.000103545 27.0602 0.18437 26.7325 0.51224L19.7401 7.50464C19.4122 7.8324 19.2279 8.27694 19.2278 8.74052V18.5053L2.32213 35.413C-0.774042 38.5091 -0.774042 43.529 2.32213 46.6253C5.4183 49.7215 10.4381 49.7214 13.5344 46.6253L30.4402 29.7177H40.205C40.6683 29.7181 41.1128 29.5345 41.4409 29.2073L48.4333 22.2149C48.7616 21.8867 48.9459 21.4415 48.9454 20.9773V8.74052C48.9448 8.03419 48.5193 7.3976 47.8669 7.12709ZM11.7233 39.6958L9.97518 41.4439C9.29209 42.1265 8.18506 42.1261 7.50248 41.443C6.81991 40.7599 6.82032 39.6528 7.50341 38.9703L9.25153 37.2221C9.93462 36.5396 11.0416 36.54 11.7242 37.223C12.4068 37.9062 12.4064 39.0132 11.7233 39.6958Z" fill="#DCD6CB"/>
</svg>
