<svg version="1.1" xmlns="http://www.w3.org/2000/svg" xmlns:xlink="http://www.w3.org/1999/xlink" width="0" height="0" class="hidden">

  
    <symbol id="arrow" viewBox="0 0 8 13" fill="none" xmlns="http://www.w3.org/2000/svg">
       <path d="M3.64645 12.3536C3.84171 12.5488 4.15829 12.5488 4.35355 12.3536L7.53553 9.17157C7.7308 8.97631 7.7308 8.65973 7.53553 8.46447C7.34027 8.2692 7.02369 8.2692 6.82843 8.46447L4 11.2929L1.17157 8.46447C0.976311 8.2692 0.659729 8.2692 0.464466 8.46447C0.269204 8.65973 0.269204 8.97631 0.464466 9.17157L3.64645 12.3536ZM3.5 2.18557e-08L3.5 12L4.5 12L4.5 -2.18557e-08L3.5 2.18557e-08Z" fill="white"/>
    </symbol>

    <symbol id="obrabotka" viewBox="0 0 31 31" fill="none" xmlns="http://www.w3.org/2000/svg">
    <path d="M27.832 17.7711C27.6208 17.7711 27.4096 17.799 27.2041 17.8541C26.9905 17.9113 26.7889 17.9956 26.6016 18.106L24.4097 17.2717C24.5246 16.6902 24.5826 16.0965 24.5826 15.5004C24.5826 13.6985 24.064 11.9776 23.0779 10.4915L26.4269 7.14253C26.7324 7.22433 27.0474 7.26568 27.368 7.26568C29.3712 7.26568 31.0009 5.63596 31.0009 3.63278C31.0009 1.62966 29.3712 0 27.368 0C25.3648 0 23.7351 1.62966 23.7351 3.63278C23.7351 3.95326 23.7764 4.2683 23.8581 4.5737L20.5091 7.92269C19.7112 7.3932 18.8452 6.99994 17.9358 6.748L18.3671 4.66949C18.7594 4.61693 19.122 4.4388 19.4069 4.1541C20.1149 3.44593 20.1149 2.29357 19.4068 1.58528C19.0636 1.24221 18.6075 1.0533 18.1224 1.0533C17.6371 1.0533 17.181 1.24227 16.8381 1.58528C16.4949 1.92834 16.3059 2.38452 16.3059 2.86975C16.3059 3.35492 16.4949 3.8111 16.838 4.1541C16.9426 4.25879 17.0579 4.34895 17.1813 4.42397L16.7496 6.50374C16.3389 6.44762 15.9219 6.41807 15.5003 6.41807C13.1131 6.41807 10.8202 7.36383 9.12712 9.03031L4.8409 5.93447C4.77811 4.6546 3.71713 3.63278 2.42194 3.63278C1.08642 3.63278 0 4.7192 0 6.05466C0 7.39017 1.08642 8.47665 2.42194 8.47665C2.64306 8.47665 2.85964 8.44735 3.06908 8.38922L7.35312 11.4834C6.74006 12.7267 6.41807 14.1043 6.41807 15.5003C6.41807 16.271 6.51731 17.0319 6.70694 17.766L4.68723 18.433C4.44552 18.1194 4.1099 17.8944 3.72106 17.7903C3.56709 17.749 3.40863 17.7281 3.25018 17.7281C2.42993 17.7281 1.7088 18.2819 1.49639 19.0747C1.23719 20.0422 1.8133 21.0401 2.78068 21.2994C2.93478 21.3407 3.09324 21.3616 3.25169 21.3616C4.07194 21.3616 4.79307 20.8079 5.00547 20.0151C5.04392 19.872 5.06427 19.7271 5.06754 19.5827L7.08695 18.9158C7.53198 20.0111 8.18923 21.0188 9.03043 21.8734L5.93465 26.1597C4.65478 26.2226 3.6329 27.2836 3.6329 28.5788C3.6329 29.9142 4.71932 31.0008 6.05496 31.0008C7.39035 31.0008 8.47677 29.9142 8.47677 28.5788C8.47677 28.3577 8.44747 28.1411 8.3894 27.9316L11.4834 23.6475C12.7268 24.2607 14.1045 24.5826 15.5004 24.5826C17.1033 24.5826 18.6337 24.1675 19.9692 23.4139L21.7962 26.1981C21.5635 26.5035 21.4249 26.8842 21.4249 27.2969C21.4249 28.2985 22.2398 29.1133 23.2416 29.1133C24.2431 29.1133 25.0579 28.2985 25.0579 27.2969C25.0579 26.2953 24.2431 25.4805 23.2416 25.4805C23.0922 25.4805 22.9472 25.499 22.8083 25.5331L20.9818 22.7498C21.9168 22.0418 22.719 21.1479 23.3331 20.1011L25.5257 20.9357C25.8459 21.9309 26.7768 22.616 27.83 22.6158C28.0413 22.6158 28.2526 22.5879 28.458 22.5328C29.0828 22.3654 29.6051 21.9647 29.9286 21.4045C30.2521 20.8442 30.3379 20.1915 30.1705 19.5666C29.887 18.5095 28.9255 17.7711 27.832 17.7711ZM3.83574 19.7016C3.7649 19.966 3.5247 20.1507 3.25163 20.1507C3.19901 20.1507 3.14603 20.1437 3.09414 20.1297C2.77166 20.0433 2.5796 19.7106 2.66607 19.3881C2.73691 19.1237 2.9771 18.939 3.25012 18.939C3.30273 18.939 3.35571 18.9461 3.40766 18.96C3.56388 19.0018 3.69442 19.102 3.77531 19.2422C3.85621 19.3821 3.87758 19.5453 3.83574 19.7016ZM23.2415 26.6914C23.5753 26.6914 23.8469 26.963 23.8469 27.2968C23.8469 27.6307 23.5754 27.9023 23.2415 27.9023C22.9075 27.9023 22.6358 27.6306 22.6358 27.2968C22.6358 26.963 22.9075 26.6914 23.2415 26.6914ZM17.6944 2.44137C17.8087 2.32706 17.9606 2.26409 18.1224 2.26409C18.284 2.26409 18.4361 2.32712 18.5504 2.44137C18.7865 2.67745 18.7865 3.06163 18.5506 3.29765C18.4361 3.41202 18.284 3.47505 18.1224 3.47505C17.9606 3.47505 17.8086 3.41208 17.6943 3.29765C17.5798 3.18327 17.5169 3.03123 17.5169 2.86957C17.5169 2.70791 17.5799 2.55581 17.6944 2.44137ZM28.8798 20.799C28.718 21.0791 28.457 21.2794 28.1445 21.3632C28.0412 21.3908 27.9354 21.4049 27.8299 21.4049C27.2836 21.4049 26.8031 21.0357 26.6616 20.5083C26.6505 20.4664 26.6417 20.425 26.6351 20.3853C26.6004 20.1722 26.4547 19.9937 26.2529 19.9168L23.271 18.7818C22.982 18.6717 22.6567 18.7971 22.5162 19.0725C21.889 20.3019 20.9744 21.3148 19.8777 22.0484C19.8578 22.0585 19.8383 22.0695 19.8192 22.082C19.8008 22.0941 19.7834 22.1071 19.7667 22.1207C18.5209 22.9239 17.0498 23.3717 15.5003 23.3717C14.1316 23.3717 12.7835 23.0148 11.6017 22.3397C11.3329 22.186 10.9917 22.26 10.8106 22.5109L7.22155 27.4802C7.09476 27.6557 7.07139 27.8854 7.15991 28.0828C7.23014 28.239 7.26575 28.4059 7.26575 28.5788C7.26575 29.2465 6.72257 29.7898 6.0549 29.7898C5.38711 29.7898 4.84381 29.2466 4.84381 28.5788C4.84387 27.911 5.38717 27.3677 6.05496 27.3677C6.09577 27.3677 6.13724 27.3699 6.17854 27.374C6.39306 27.3957 6.60377 27.3014 6.73032 27.1262L10.3207 22.1552C10.5017 21.9045 10.4648 21.5577 10.235 21.3507C8.5788 19.8593 7.62898 17.7269 7.62898 15.5003C7.62898 14.1314 7.98591 12.7833 8.66102 11.6018C8.81451 11.3331 8.7407 10.9918 8.48979 10.8106L3.52034 7.22142C3.345 7.09476 3.11521 7.07132 2.91771 7.15997C2.76143 7.23014 2.59474 7.26568 2.42194 7.26568C1.75427 7.26568 1.21097 6.72238 1.21097 6.05466C1.21097 5.38699 1.75427 4.84375 2.42194 4.84375C3.0896 4.84375 3.6329 5.38699 3.6329 6.05466C3.6329 6.09577 3.63078 6.13743 3.62661 6.17842C3.60487 6.39342 3.69932 6.60377 3.87449 6.73032L8.84551 10.3204C9.09612 10.5014 9.44294 10.4645 9.6499 10.2347C11.1413 8.57862 13.2737 7.62885 15.5004 7.62885C16.0373 7.62885 16.5659 7.68201 17.0807 7.78646C17.0874 7.7881 17.094 7.79028 17.1008 7.79167C17.1045 7.79239 17.108 7.7927 17.1117 7.79336C18.2297 8.02484 19.2825 8.49809 20.2141 9.19572C20.4551 9.37622 20.7923 9.35224 21.0051 9.13917L24.9771 5.16714C25.1474 4.99688 25.2005 4.74203 25.1126 4.51788C25.0021 4.23621 24.9461 3.93837 24.9461 3.63266C24.9461 2.29727 26.0325 1.21085 27.368 1.21085C28.7034 1.21085 29.7899 2.29727 29.7899 3.63266C29.7899 4.96812 28.7034 6.0546 27.368 6.0546C27.0623 6.0546 26.7644 5.99853 26.4827 5.88791C26.2586 5.79999 26.0037 5.85315 25.8333 6.02341L21.8612 9.99557C21.6483 10.2085 21.6243 10.5456 21.8048 10.7866C22.8298 12.1553 23.3717 13.7852 23.3717 15.5003C23.3717 16.1762 23.2857 16.8479 23.1161 17.4971C23.0379 17.7961 23.1977 18.106 23.4865 18.216L26.4678 19.3508C26.6701 19.4279 26.898 19.391 27.0657 19.2543C27.1985 19.146 27.3506 19.0684 27.5174 19.0238C27.6208 18.9961 27.7266 18.982 27.832 18.982C28.3784 18.982 28.8589 19.3513 29.0006 19.8801C29.0844 20.1926 29.0415 20.5189 28.8798 20.799Z" fill="white"/>
    </symbol>

<symbol id="choose" viewBox="0 0 1440 1554" fill="none" xmlns="http://www.w3.org/2000/svg">
<path d="M1182.5 1552C1408.58 1569.63 1566.38 1400.4 1626.55 1321.54L1547 1350.02L1600 0.000241819L-183.69 31.5001C-206.526 410.839 -384.616 1211.09 -241 1443.5C-61.4805 1734.01 76.4693 1301.52 357.065 1309.99C721.5 1321 849 1526 1182.5 1552Z" fill="#FAFAFA"/>
</symbol>


<symbol id="nadejnosti" viewBox="0 0 28 29" fill="none" xmlns="http://www.w3.org/2000/svg">
<path d="M27.0725 11.5131H26.4177V8.55319C26.4177 7.68636 25.7125 6.98113 24.8456 6.98113H23.526V4.8255C23.526 4.81389 23.5249 4.8025 23.5242 4.79106C23.5249 4.77962 23.526 4.76823 23.526 4.75662V3.15013C23.526 1.41313 22.1128 0 20.3758 0H7.26308C5.52609 0 4.11296 1.41313 4.11296 3.15013V4.75662C4.11296 4.76823 4.11404 4.77962 4.11472 4.79106C4.11404 4.8025 4.11296 4.81389 4.11296 4.8255V6.98107H2.79329C1.9264 6.98107 1.22117 7.6863 1.22117 8.55313V11.513H0.566406C0.253637 11.513 0 11.7666 0 12.0794V16.6356C0 16.9484 0.253637 17.202 0.566406 17.202H3.16298C3.47575 17.202 3.72939 16.9484 3.72939 16.6356V12.0794C3.72939 11.7666 3.47575 11.513 3.16298 11.513H2.35398V8.55313C2.35398 8.31094 2.55104 8.11388 2.79329 8.11388H4.11296V19.252V19.3334V25.054C4.11296 25.6257 4.51692 26.1043 5.05427 26.2209V27.4385C5.05427 28.2995 5.75474 29 6.61574 29H8.41487C9.27586 29 9.97634 28.2995 9.97634 27.4385V26.2485H17.6625V27.4385C17.6625 28.2995 18.363 29 19.224 29H21.0231C21.8841 29 22.5846 28.2995 22.5846 27.4385V26.2209C23.1219 26.1043 23.5259 25.6256 23.5259 25.054V21.9915V19.3334V19.2646V19.252V8.11388H24.8456C25.0878 8.11388 25.2849 8.31094 25.2849 8.55313V11.513H24.4759C24.1632 11.513 23.9095 11.7666 23.9095 12.0794V16.6356C23.9095 16.9484 24.1632 17.202 24.4759 17.202H27.0725C27.3853 17.202 27.6389 16.9484 27.6389 16.6356V12.0794C27.6389 11.7666 27.3853 11.5131 27.0725 11.5131ZM2.59652 12.6459V16.0692H1.13281V12.6459H2.59652ZM8.84353 27.4385C8.84353 27.6748 8.65118 27.8672 8.41487 27.8672H6.61574C6.37938 27.8672 6.18708 27.6748 6.18708 27.4385V26.2485H8.84353V27.4385ZM21.4518 27.4385C21.4518 27.6748 21.2595 27.8672 21.0232 27.8672H19.2241C18.9877 27.8672 18.7954 27.6748 18.7954 27.4385V26.2485H21.4518V27.4385ZM22.3932 25.054C22.3932 25.088 22.3655 25.1157 22.3314 25.1157H22.0182H18.229H9.40993H5.62068H5.30757C5.27347 25.1157 5.24577 25.088 5.24577 25.054V22.5579H9.45576C10.0347 22.5579 10.5056 22.087 10.5056 21.508V19.8184H17.2069V21.508C17.2069 22.087 17.6778 22.5579 18.2567 22.5579H22.3932V25.054ZM5.3194 21.4251V19.831H9.37283V21.4251H5.3194ZM22.3932 21.4251H18.3397V19.831H22.3932V21.4251ZM22.3932 7.54748V18.6856H14.2333L11.2419 15.2634C11.036 15.0279 10.6782 15.0038 10.4427 15.2098C10.2072 15.4157 10.1831 15.7735 10.389 16.009L12.7287 18.6856H5.24577V7.54748V5.3919H22.3932V7.54748ZM22.3932 4.19022H5.24577V3.15013C5.24577 2.03782 6.15072 1.13281 7.26308 1.13281H20.3758C21.4882 1.13281 22.3932 2.03782 22.3932 3.15013V4.19022ZM26.5061 16.0692H25.0423V12.6459H26.5061V16.0692Z" fill="white"/>
</symbol>

<symbol id="free" viewBox="0 0 65 46" fill="none" xmlns="http://www.w3.org/2000/svg">
<path d="M63.9832 23.3952C64.5306 23.3952 64.9137 22.9574 64.9684 22.4648V10.5329C64.9684 9.98557 64.5306 9.60244 63.9832 9.54771H61.356L60.2066 1.72085C60.1519 1.17351 59.6593 0.845113 59.112 0.899846L44.2792 3.08918H44.2245L0.875733 9.60244C0.875733 9.60244 0.0547332 9.76664 0.0547332 10.5329V22.41C0.0547332 22.9574 0.4926 23.3405 0.9852 23.3952C3.39346 23.3952 5.30913 25.3109 5.30913 27.7192C5.30913 30.1274 3.39346 32.0431 0.9852 32.0431C0.437867 32.0431 0.0547333 32.481 0 32.9736V44.8507C0 45.398 0.437867 45.7811 0.9852 45.8359H63.9285C64.4758 45.8359 64.859 45.398 64.9137 44.8507V33.0283C64.9137 32.481 64.4758 32.0978 63.9832 32.0431C61.575 32.0431 59.6593 30.1274 59.6593 27.7192C59.6593 25.3109 61.575 23.3952 63.9832 23.3952V23.3952ZM43.5677 5.16904L43.9508 7.74151C44.0056 8.23411 44.4434 8.56251 44.8813 8.56251H45.0455C45.5928 8.50778 45.9212 8.01518 45.8665 7.46784L45.4834 4.89538L58.4552 2.97971L59.4404 9.60244H13.957L43.5677 5.16904ZM63.0528 33.904V43.9749H48.8768V41.3478C48.8768 40.8004 48.439 40.3626 47.8916 40.3626C47.3443 40.3626 46.9064 40.8004 46.9064 41.3478V43.9749H2.02513V33.904C5.4186 33.3567 7.77213 30.1822 7.2248 26.7887C6.78693 24.1068 4.70706 21.9722 2.02513 21.589V11.5181H46.9612V14.0906C46.9612 14.6379 47.399 15.0758 47.9464 15.0758C48.4937 15.0758 48.9316 14.6379 48.9316 14.0906V11.4634H63.1075V21.5343C59.714 22.0816 57.3605 25.2562 57.9078 28.6496C58.2362 31.3863 60.3161 33.4662 63.0528 33.904V33.904Z" fill="#393939"/>
<path d="M47.8916 29.1969C47.3443 29.1969 46.9612 29.6348 46.9064 30.1274V36.4765C46.9064 37.0238 47.3443 37.4617 47.8916 37.4617C48.439 37.4617 48.8768 37.0238 48.8768 36.4765V30.1821C48.8768 29.6348 48.439 29.1969 47.8916 29.1969Z" fill="#393939"/>
<path d="M47.8916 18.0314C47.3443 18.0314 46.9612 18.4693 46.9064 18.9619V25.311C46.9064 25.8583 47.3443 26.2962 47.8916 26.2962C48.439 26.2962 48.8768 25.8583 48.8768 25.311V18.9619C48.8768 18.4693 48.439 18.0314 47.8916 18.0314V18.0314Z" fill="#393939"/>
<path d="M12.4245 19.564H24.3016C24.8489 19.564 25.2868 19.1261 25.2868 18.5788C25.2868 18.0314 24.8489 17.6483 24.3016 17.6483H12.4245C11.8771 17.6483 11.4393 18.0862 11.4393 18.6335C11.4393 19.1808 11.8771 19.564 12.4245 19.564Z" fill="#393939"/>
<path d="M36.1787 23.7236H12.4245C11.8771 23.7236 11.4393 24.1615 11.4393 24.7088C11.4393 25.2561 11.8771 25.694 12.4245 25.694H36.1787C36.7261 25.694 37.1639 25.2561 37.1639 24.7088C37.1639 24.1615 36.7261 23.7236 36.1787 23.7236Z" fill="#393939"/>
<path d="M36.1787 29.7991H12.4245C11.8771 29.7991 11.4393 30.237 11.4393 30.7843C11.4393 31.3316 11.8771 31.7695 12.4245 31.7695H36.1787C36.7261 31.7695 37.1639 31.3316 37.1639 30.7843C37.1639 30.237 36.7261 29.7991 36.1787 29.7991Z" fill="#393939"/>
<path d="M36.1787 35.8744H12.4245C11.8771 35.8744 11.4393 36.3123 11.4393 36.8596C11.4393 37.407 11.8771 37.8448 12.4245 37.8448H36.1787C36.7261 37.8448 37.1639 37.407 37.1639 36.8596C37.1639 36.3123 36.7261 35.8744 36.1787 35.8744Z" fill="#393939"/></symbol>


<symbol id="galstuk" viewBox="0 0 34 68" fill="none" xmlns="http://www.w3.org/2000/svg">
<path d="M33.6939 2.67724C33.565 2.57078 33.4069 2.50392 33.2395 2.48496C27.9896 0.840001 22.5119 0.00176843 17.0008 1.44919e-06H16.9759C11.428 -0.00127819 5.91362 0.844898 0.63098 2.50813L0.607942 2.5152V2.5176C0.492892 2.5519 0.386485 2.60957 0.295634 2.68685C0.204784 2.76414 0.131523 2.85932 0.0806138 2.9662C0.0297042 3.07308 0.00228502 3.18928 0.00013681 3.30724C-0.0020114 3.4252 0.0211603 3.54228 0.0681457 3.65088L7.4459 20.9723C7.49855 21.0963 7.58048 21.2063 7.68495 21.2931C7.78942 21.38 7.91343 21.4412 8.04676 21.4718C8.18009 21.5023 8.31891 21.5014 8.45179 21.469C8.58467 21.4366 8.70779 21.3736 8.81101 21.2854L10.942 19.4648L13.001 24.3067L6.49287 58.113L17.0008 68L27.5087 58.1121L21.0006 24.3059L23.0626 19.4662L25.1907 21.2854C25.2938 21.3735 25.4168 21.4363 25.5496 21.4687C25.6824 21.5011 25.8211 21.5021 25.9543 21.4716C26.0875 21.4411 26.2114 21.38 26.3159 21.2933C26.4203 21.2066 26.5023 21.0968 26.555 20.973L33.9334 3.65088C34.0041 3.48468 34.019 3.30071 33.9759 3.12565C33.9328 2.95058 33.8341 2.79352 33.6939 2.67724V2.67724ZM16.9752 1.69526H16.9994C21.7461 1.6966 26.4699 2.3393 31.0379 3.60525L17.0008 12.1615L2.94797 3.59522C7.51283 2.33396 12.2328 1.69465 16.9752 1.69526V1.69526ZM8.5792 19.2348L2.70464 5.44276L15.5518 13.2741L8.5792 19.2348ZM23.6543 47.2207L14.6366 50.2863C14.5288 50.3222 14.4293 50.3788 14.3439 50.4526C14.2584 50.5265 14.1887 50.6161 14.1387 50.7165C14.0886 50.8169 14.0594 50.926 14.0525 51.0375C14.0456 51.149 14.0612 51.2608 14.0985 51.3663C14.1358 51.4719 14.194 51.5692 14.2698 51.6526C14.3455 51.736 14.4373 51.8039 14.5399 51.8524C14.6425 51.9009 14.7539 51.929 14.8676 51.9351C14.9813 51.9412 15.0951 51.9252 15.2025 51.888L23.9786 48.9042L25.6379 57.5236L17.0008 65.6511L8.36452 57.5243L9.04657 53.9816L11.528 53.1378C11.7445 53.0642 11.9223 52.9092 12.0224 52.707C12.1224 52.5047 12.1365 52.2718 12.0615 52.0594C11.9864 51.8469 11.8285 51.6725 11.6223 51.5743C11.4162 51.4761 11.1788 51.4623 10.9623 51.536L9.41603 52.0616L10.2105 47.9351L22.9569 43.6013L23.6543 47.2207ZM21.6115 36.6133L19.4552 37.3464C19.348 37.3828 19.2492 37.4396 19.1643 37.5136C19.0795 37.5875 19.0104 37.6771 18.9608 37.7772C18.9113 37.8774 18.8824 37.9861 18.8757 38.0973C18.869 38.2084 18.8846 38.3197 18.9218 38.4249C18.959 38.5301 19.0169 38.6271 19.0922 38.7103C19.1676 38.7935 19.2589 38.8613 19.361 38.9099C19.463 38.9585 19.5739 38.9869 19.6871 38.9935C19.8004 39.0001 19.9138 38.9847 20.021 38.9482L21.936 38.2973L22.6329 41.9172L10.5804 46.0151L11.3749 41.8878L17.5307 39.795C17.7472 39.7214 17.925 39.5664 18.0251 39.3641C18.1251 39.1619 18.1391 38.9289 18.0641 38.7165C17.989 38.5041 17.8311 38.3296 17.6249 38.2314C17.4188 38.1333 17.1813 38.1195 16.9648 38.1931L11.7445 39.9679L14.614 25.0615H19.3877L21.6115 36.6133ZM19.5285 23.3663H14.4736L12.3139 18.2907L17.0008 14.2838L21.6895 18.2928L19.5285 23.3663ZM25.4225 19.2347L18.4497 13.2741L31.2969 5.44305L25.4225 19.2347Z" fill="#393939"/>
</symbol>

<symbol id="comfort" viewBox="0 0 52 52" fill="none" xmlns="http://www.w3.org/2000/svg">
<path d="M26 0C11.6635 0 0 11.6635 0 26C0 40.3365 11.6635 52 26 52C40.3365 52 52 40.3365 52 26C52 11.6635 40.3365 0 26 0ZM17.0117 21.2266C14.4916 21.2266 12.4414 19.1763 12.4414 16.6562C12.4414 14.1362 14.4916 12.0859 17.0117 12.0859C19.5318 12.0859 21.582 14.1362 21.582 16.6562C21.582 19.1763 19.5318 21.2266 17.0117 21.2266ZM37.1721 39.7109H33.1094C28.9093 39.7109 25.4922 36.2939 25.4922 32.0938V20.4141C25.4922 16.214 28.9093 12.797 33.1094 12.797H37.1719C38.0132 12.797 38.6953 13.4791 38.6953 14.3204C38.6953 15.1618 38.0132 15.8439 37.1719 15.8439H33.1094C30.5893 15.8439 28.5391 17.8941 28.5391 20.4141V32.0938C28.5391 34.6138 30.5893 36.6641 33.1094 36.6641H37.1721C38.0134 36.6641 38.6955 37.3462 38.6955 38.1875C38.6955 39.0288 38.0134 39.7109 37.1721 39.7109Z" fill="#DCD6CB"/>
</symbol>


<symbol id="microfon" viewBox="0 0 83 83" fill="none" xmlns="http://www.w3.org/2000/svg">
<path d="M46.4199 35.6788C46.409 35.5567 46.374 35.438 46.3171 35.3294C46.2602 35.2208 46.1823 35.1245 46.0881 35.0461C45.9938 34.9677 45.885 34.9086 45.7679 34.8723C45.6507 34.8361 45.5276 34.8233 45.4055 34.8347L31.7677 36.0808L25.5091 29.8161C25.3342 29.641 25.0969 29.5425 24.8493 29.5424C24.6018 29.5422 24.3643 29.6403 24.1891 29.8152C24.014 29.9901 23.9155 30.2273 23.9153 30.4748C23.9151 30.7223 24.0133 30.9597 24.1882 31.1348L30.7564 37.7093C30.843 37.7961 30.9459 37.8649 31.0592 37.9119C31.1725 37.9589 31.294 37.9831 31.4166 37.983C31.4449 37.983 31.4732 37.9817 31.5017 37.9792L45.5755 36.693C45.6975 36.6819 45.8162 36.6468 45.9247 36.5898C46.0332 36.5328 46.1294 36.4549 46.2078 36.3608C46.2862 36.2666 46.3453 36.1579 46.3817 36.0409C46.4181 35.9239 46.431 35.8008 46.4199 35.6788V35.6788Z" fill="#393939"/>
<path d="M65.9802 55.5532C67.049 53.5062 67.5792 51.2219 67.5211 48.9146C67.463 46.6073 66.8185 44.3525 65.648 42.3616C64.6518 40.6354 63.2818 39.1528 61.6381 38.0218C59.9944 36.8909 58.1183 36.1401 56.1467 35.8243C56.1467 35.8073 56.1467 35.7901 56.1467 35.7731C56.1467 22.254 45.1307 11.2542 31.59 11.2542C18.0494 11.2542 7.03387 22.2534 7.03387 35.7731C7.03387 49.2927 18.0499 60.2918 31.5906 60.2918C33.2906 60.2924 34.9861 60.1177 36.65 59.7704C36.7188 60.117 36.9063 60.4289 37.1803 60.6528C37.4543 60.8767 37.7978 60.9986 38.152 60.9976H41.2758V63.3597C40.5367 63.3734 39.8333 63.6795 39.3204 64.2105C38.8075 64.7416 38.5271 65.4541 38.5409 66.1914C38.5547 66.9286 38.8615 67.6302 39.3939 68.1418C39.9263 68.6534 40.6407 68.9331 41.3798 68.9194H41.4119L46.9188 68.8353C47.0477 68.8333 47.1747 68.8044 47.2917 68.7503C47.4086 68.6963 47.5129 68.6184 47.5978 68.5217C48.1898 68.5188 48.8131 68.5162 49.3582 68.5138H49.3627C49.5958 68.5134 49.8224 68.5908 50.0062 68.7339C50.1901 68.8769 50.3207 69.0772 50.3771 69.3028L51.5264 73.8619C51.5766 74.0611 51.6921 74.238 51.8545 74.3643C52.017 74.4906 52.2171 74.5593 52.4231 74.5593H65.2152C65.3569 74.5593 65.4967 74.5268 65.6238 74.4643C65.7509 74.4019 65.8619 74.3111 65.9483 74.199C66.0347 74.087 66.094 73.9566 66.1219 73.818C66.1497 73.6795 66.1452 73.5363 66.1088 73.3998C66.0874 73.32 63.9838 65.3713 64.4473 60.4032C64.5529 59.2752 65.5739 56.5599 65.9802 55.5532ZM55.1591 58.5768H55.129C54.2842 58.5749 53.474 58.2422 52.8726 57.6504C52.2712 57.0586 51.9268 56.2549 51.9136 55.4124L51.9066 54.8964C51.9008 54.474 51.9788 54.0547 52.136 53.6625C52.2932 53.2703 52.5264 52.9129 52.8224 52.6109C53.1184 52.3088 53.4713 52.0681 53.8609 51.9024C54.2504 51.7367 54.6689 51.6494 55.0923 51.6455H55.1226C55.9673 51.6475 56.7775 51.9803 57.3788 52.5721C57.9801 53.1639 58.3244 53.9676 58.3376 54.8101L58.3446 55.3259C58.3503 55.7483 58.2723 56.1676 58.1151 56.5598C57.9579 56.952 57.7246 57.3094 57.4286 57.6114C57.1326 57.9135 56.7797 58.1542 56.3902 58.3199C56.0007 58.4856 55.5822 58.5729 55.1588 58.5768H55.1591ZM8.88329 35.7731C8.88329 23.2705 19.0697 13.0989 31.5906 13.0989C44.0729 13.0989 54.234 23.2083 54.2964 35.6582C54.236 35.6567 54.1761 35.6546 54.1152 35.6538C54.0598 35.6538 54.0047 35.6529 53.9495 35.6529C50.2025 35.6526 46.5977 37.0839 43.8759 39.6526C41.1541 42.2212 39.522 45.7322 39.3151 49.464C39.3007 49.7005 39.2944 51.4405 39.2925 52.1936L37.1618 57.7579C35.3402 58.2161 33.4687 58.4476 31.59 58.4471C19.0697 58.4471 8.88329 48.2756 8.88329 35.7731ZM41.3867 67.0745C41.1393 67.0758 40.9015 66.9797 40.7247 66.8072C40.5479 66.6347 40.4464 66.3996 40.4422 66.153C40.438 65.9063 40.5315 65.6679 40.7024 65.4896C40.8732 65.3112 41.1077 65.2072 41.355 65.2002H45.9395L45.966 67.0047L41.3867 67.0745ZM43.1246 63.3554V60.0755C43.1246 59.8309 43.0272 59.5963 42.8538 59.4233C42.6803 59.2504 42.4451 59.1532 42.1999 59.1532H38.6079L41.0801 52.6941C41.12 52.5897 41.1406 52.479 41.141 52.3673C41.1437 51.1392 41.1517 49.7435 41.1609 49.57C41.3329 46.3058 42.7561 43.2323 45.1362 40.9853C47.5163 38.7383 50.6712 37.4897 53.9483 37.4979C53.9965 37.4979 54.0461 37.4979 54.0943 37.4988C54.1161 37.4988 54.1379 37.5 54.1595 37.5004V49.8927C52.9932 50.1181 51.9433 50.7452 51.1935 51.6644C50.4438 52.5837 50.0418 53.7365 50.0578 54.9214L50.0648 55.4374C50.0829 56.58 50.4877 57.6829 51.2135 58.567C51.9393 59.4511 52.9434 60.0644 54.0628 60.3075L54.073 61.3888C54.0821 62.3632 53.7028 63.3012 53.0187 63.9967C52.3346 64.6923 51.4016 65.0883 50.4248 65.0979L47.7874 65.1141L47.775 64.2645C47.7715 64.0222 47.6725 63.7909 47.4995 63.6208C47.3264 63.4507 47.0932 63.3553 46.8502 63.3553L43.1246 63.3554ZM64.3198 54.7398C64.306 54.7661 64.2934 54.7931 64.2823 54.8206C64.1267 55.2041 62.7571 58.6136 62.6062 60.2316C62.2175 64.397 63.4473 70.2466 64.0329 72.7142H53.1443L52.1706 68.8524C52.0659 68.4353 51.869 68.0469 51.5942 67.7156C51.3195 67.3843 50.9739 67.1185 50.5828 66.9377C52.0247 66.8878 53.39 66.2779 54.3875 65.238C55.3849 64.1981 55.9355 62.8107 55.9218 61.3716L55.9124 60.3616C57.1172 60.1732 58.2135 59.5577 59 58.6282C59.7865 57.6986 60.2106 56.5172 60.1943 55.3009L60.1873 54.785C60.1687 53.611 59.7417 52.48 58.9795 51.5852C58.2172 50.6905 57.167 50.0877 56.0084 49.88V37.6721C57.6793 37.9638 59.2655 38.6181 60.655 39.5886C62.0444 40.5591 63.2032 41.8223 64.0493 43.2887C65.0658 45.0173 65.6241 46.9758 65.6714 48.9793C65.7187 50.9828 65.2536 52.9653 64.3198 54.7398V54.7398Z" fill="#393939"/>
</symbol>


<symbol id="reliability" viewBox="0 0 73 66" fill="none" xmlns="http://www.w3.org/2000/svg">
<path d="M58.5659 34.6733C58.5607 34.6639 58.5555 34.6552 58.5503 34.6465C58.122 33.9518 57.5367 33.369 56.8423 32.9462V16.9498C56.8423 16.5923 56.631 16.2692 56.3055 16.1277L56.1248 16.0496C46.4772 11.8619 37.3559 6.53463 28.9528 0.179051C28.6376 -0.0596836 28.2041 -0.0596836 27.889 0.179051C19.4858 6.53463 10.3651 11.8619 0.717484 16.0496L0.536814 16.1277C0.210685 16.2692 0 16.5923 0 16.9498V33.0633C0 38.705 1.46729 43.9501 4.3609 48.6526C6.66516 52.3972 9.87219 55.8012 13.8919 58.7691C20.7043 63.7983 27.4127 65.8124 27.6956 65.8951C27.8555 65.9422 28.0258 65.9434 28.1862 65.8974C28.3351 65.8549 31.6507 64.8929 36.026 62.6628C36.1143 62.894 36.2182 63.1193 36.3377 63.3359C37.2324 64.9902 38.9566 66.0138 40.8244 65.9999H67.563C69.4245 65.9999 71.14 64.9832 72.0463 63.3429C72.9525 61.7032 72.9075 59.6961 71.9285 58.0995L58.5659 34.6733ZM36.4584 58.0989C35.9521 58.9176 35.6832 59.8632 35.6837 60.8286C33.2005 62.1353 30.6129 63.23 27.9478 64.1005C26.6854 63.6905 20.7493 61.6264 14.8963 57.2936C11.6748 54.9086 9.01156 52.2389 6.94973 49.3374C7.23834 49.1819 7.41901 48.8791 7.41901 48.5484V46.8499C7.41901 46.3561 7.02188 45.9555 6.5324 45.9555C6.04291 45.9555 5.64579 46.3561 5.64579 46.8499V47.3343C3.07831 43.0156 1.77322 38.2176 1.77322 33.0627V17.538C11.2154 13.4073 20.1565 8.19703 28.4211 2.01032C36.6858 8.19703 45.6269 13.4073 55.0691 17.538V32.2824C54.7799 32.2318 54.4867 32.2061 54.1934 32.2056C52.4191 32.1997 50.7694 33.1238 49.8366 34.6465C49.8314 34.6552 49.8262 34.6639 49.821 34.6733L36.4584 58.0989ZM70.4999 62.4666C69.914 63.5491 68.7856 64.2193 67.563 64.2099H40.8239C39.6036 64.2099 38.4792 63.5426 37.887 62.4672C37.2942 61.3911 37.3265 60.0752 37.9718 59.0306C37.977 59.0218 37.9822 59.0131 37.9874 59.0044L51.3495 35.5793C51.9642 34.5929 53.0384 33.9943 54.1934 33.9943C55.3485 33.9943 56.4221 34.5929 57.0368 35.5793L70.3983 59.0044C70.4035 59.0131 70.4087 59.0218 70.4145 59.0306C71.0685 60.0728 71.1014 61.3929 70.5005 62.4666H70.4999Z" fill="#393939"/>
<path d="M54.5217 42.087C53.993 42.087 53.5652 42.4887 53.5652 42.9837V54.5815C53.5652 55.0772 53.993 55.4783 54.5217 55.4783C55.0498 55.4783 55.4783 55.0772 55.4783 54.5815V42.9837C55.4783 42.4887 55.0498 42.087 54.5217 42.087V42.087Z" fill="#393939"/>
<path d="M54.5217 57.3913C53.993 57.3913 53.5652 57.7888 53.5652 58.2799V59.3722C53.5652 59.8628 53.993 60.2609 54.5217 60.2609C55.0498 60.2609 55.4783 59.8628 55.4783 59.3722V58.2799C55.4783 57.7888 55.0498 57.3913 54.5217 57.3913Z" fill="#393939"/>
</symbol>

<symbol id="dispetcer" viewBox="0 0 29 32" fill="none" xmlns="http://www.w3.org/2000/svg">
<path d="M25.4367 10.9464C25.4367 4.90087 20.5358 0 14.4903 0C8.44476 0 3.5439 4.90087 3.5439 10.9464C1.981 11.141 0.503235 12.1627 0.503235 14.5344V20.2508C0.503235 22.9266 2.37628 23.8996 4.15203 23.8996H5.91561C6.25146 23.8996 6.52375 23.6273 6.52375 23.2915V11.518C6.52375 11.1822 6.25146 10.9099 5.91561 10.9099H4.76016C4.76016 5.53614 9.11652 1.17978 14.4903 1.17978C19.864 1.17978 24.2204 5.53614 24.2204 10.9099H23.065C22.7291 10.9099 22.4568 11.1822 22.4568 11.518V23.2732C22.4568 23.6091 22.7291 23.8814 23.065 23.8814H24.2204C24.0501 28.0592 22.0433 29.0383 18.0357 29.2147V28.8072C18.0357 28.1355 17.4912 27.591 16.8194 27.591H12.9943C12.3225 27.591 11.778 28.1355 11.778 28.8072V30.7837C11.778 31.4554 12.3225 31.9999 12.9943 31.9999H16.8316C17.5034 31.9999 18.0479 31.4554 18.0479 30.7837V30.431C21.9034 30.2546 25.236 29.4579 25.4367 23.8449C26.9996 23.6503 28.4773 22.6286 28.4773 20.2569V14.5405C28.4773 12.1566 27.0057 11.141 25.4367 10.9464ZM5.30748 12.0836V22.6651H4.12162C3.22159 22.6651 1.68909 22.3489 1.68909 20.2326V14.5161C1.68909 12.4181 3.20334 12.0836 4.12162 12.0836H5.30748ZM16.8316 29.8654V30.7898H12.9943V28.8133H16.8316V29.8654ZM27.2611 20.2508C27.2611 22.3489 25.7468 22.6833 24.8285 22.6833H23.6731V12.1262H24.8589C25.759 12.1262 27.2915 12.4424 27.2915 14.5587L27.2611 20.2508Z" fill="white"/>
</symbol>

<symbol id="price-quality" viewBox="0 0 65 65" fill="none" xmlns="http://www.w3.org/2000/svg">
<path d="M55.4811 9.51904C49.3426 3.38055 41.1811 0 32.5 0C23.8189 0 15.6575 3.38055 9.51904 9.51904C3.38069 15.6574 0 23.8189 0 32.5C0 41.1811 3.38055 49.3426 9.51904 55.481C15.6575 61.6194 23.8189 65 32.5 65C41.1811 65 49.3426 61.6194 55.481 55.481C61.6193 49.3426 65 41.1811 65 32.5C65 23.8189 61.6193 15.6574 55.4811 9.51904ZM32.5 62.9255C15.7232 62.9255 2.07447 49.2768 2.07447 32.5C2.07447 15.7232 15.7234 2.07447 32.5 2.07447C49.2766 2.07447 62.9255 15.7232 62.9255 32.5C62.9255 49.2768 49.2766 62.9255 32.5 62.9255Z" fill="#393939"/>
<path d="M45.8155 40.0839C45.3407 39.7629 44.6959 39.8876 44.3752 40.3621C41.6985 44.3209 37.2591 46.6844 32.5001 46.6844C27.741 46.6844 23.3017 44.3209 20.6248 40.3619C20.3041 39.8875 19.6592 39.7628 19.1845 40.0836C18.71 40.4045 18.5854 41.0492 18.9063 41.5238C21.9694 46.0541 27.0512 48.7587 32.5 48.7587C37.9487 48.7587 43.0305 46.0542 46.0936 41.524C46.4146 41.0495 46.2901 40.4047 45.8155 40.0839Z" fill="#393939"/>
<path d="M45.2345 23.0197C42.3747 23.0197 40.0483 25.3461 40.0483 28.2058C40.0483 28.7787 40.5125 29.2431 41.0855 29.2431C41.6585 29.2431 42.1227 28.7787 42.1227 28.2058C42.1227 26.49 43.5187 25.0941 45.2345 25.0941C46.9502 25.0941 48.3462 26.49 48.3462 28.2058C48.3462 28.7787 48.8104 29.2431 49.3834 29.2431C49.9564 29.2431 50.4206 28.7787 50.4206 28.2058C50.4206 25.3461 48.0942 23.0197 45.2345 23.0197Z" fill="#393939"/>
<path d="M22.8772 28.2058C22.8772 28.7787 23.3416 29.2431 23.9145 29.2431C24.4873 29.2431 24.9517 28.7787 24.9517 28.2058C24.9517 25.3461 22.6252 23.0197 19.7655 23.0197C16.9058 23.0197 14.5793 25.3461 14.5793 28.2058C14.5793 28.7787 15.0438 29.2431 15.6166 29.2431C16.1894 29.2431 16.6538 28.7787 16.6538 28.2058C16.6538 26.49 18.0497 25.0941 19.7655 25.0941C21.4814 25.0941 22.8772 26.49 22.8772 28.2058Z" fill="#393939"/>
<path d="M34.5745 50.8332H30.4255C29.8527 50.8332 29.3883 51.2976 29.3883 51.8704C29.3883 52.4433 29.8527 52.9077 30.4255 52.9077H34.5745C35.1474 52.9077 35.6117 52.4433 35.6117 51.8704C35.6117 51.2976 35.1473 50.8332 34.5745 50.8332Z" fill="#393939"/>
<path d="M13.2074 33.9043C12.6346 33.9043 12.1702 34.3687 12.1702 34.9415C12.1702 35.7041 11.5498 36.3245 10.7872 36.3245C10.0246 36.3245 9.40424 35.7041 9.40424 34.9415C9.40424 34.1789 10.0246 33.5585 10.7872 33.5585C11.36 33.5585 11.8245 33.0941 11.8245 32.5213C11.8245 31.9485 11.36 31.4841 10.7872 31.4841C8.88078 31.4841 7.32977 33.0351 7.32977 34.9415C7.32977 36.848 8.88078 38.399 10.7872 38.399C12.6937 38.399 14.2447 36.848 14.2447 34.9415C14.2447 34.3687 13.7803 33.9043 13.2074 33.9043Z" fill="#393939"/>
<path d="M56.633 33.9043C56.06 33.9043 55.5957 34.3687 55.5957 34.9415C55.5957 35.7041 54.9753 36.3245 54.2128 36.3245C53.4502 36.3245 52.8298 35.7041 52.8298 34.9415C52.8298 34.1789 53.4502 33.5585 54.2128 33.5585C54.7857 33.5585 55.25 33.0941 55.25 32.5213C55.25 31.9485 54.7857 31.4841 54.2128 31.4841C52.3063 31.4841 50.7553 33.0351 50.7553 34.9415C50.7553 36.848 52.3063 38.399 54.2128 38.399C56.1192 38.399 57.6702 36.848 57.6702 34.9415C57.6702 34.3687 57.2058 33.9043 56.633 33.9043Z" fill="#393939"/>
</symbol>

<symbol id="money" viewBox="0 0 51 66" fill="none" xmlns="http://www.w3.org/2000/svg">
<path d="M15.7645 4.78004H14.9645V5.58004V34.2578V35.0578H15.7645H28.2447C33.533 35.0578 37.7392 33.7444 40.7472 31.0075C43.7576 28.2685 45.2315 24.5313 45.2315 19.896C45.2315 15.2619 43.7581 11.538 40.7453 8.82854C37.7374 6.09288 33.5319 4.78004 28.2447 4.78004H15.7645ZM15.7645 50.1514H34.9047V53.3996H15.7645H14.9645V54.1996V65.2H10.1836V54.1996V53.3996H9.38362H0.8V50.1514H9.38362H10.1836V49.3513V39.7464V38.9464H9.38362H0.8V35.0578H9.38362H10.1836V34.2578V0.8H29.7461C35.9618 0.8 40.8792 2.60646 44.5815 6.15742L44.5862 6.16188C48.3207 9.68594 50.2 14.24 50.2 19.896C50.2 25.5839 48.3198 30.1527 44.5863 33.6759C40.8852 37.1674 35.951 38.9464 29.6992 38.9464H15.7645H14.9645V39.7464V49.3513V50.1514H15.7645Z" stroke="#393939" stroke-width="1.6"/>
</symbol>


<symbol id="safely" viewBox="0 0 49 49" fill="none" xmlns="http://www.w3.org/2000/svg">
<path d="M45.7627 15.4836C44.7141 14.4343 43.0473 14.3684 41.9201 15.2869C41.7571 15.4197 41.8833 15.3026 39.4015 17.7845L45.8438 24.227L48.1592 21.9405C49.2786 20.8211 49.2786 18.9997 48.1592 17.8801L45.7627 15.4836Z" fill="#DCD6CB"/>
<path d="M26.1902 31.1177L22.4006 39.2385C22.1453 39.7856 22.2595 40.4338 22.6863 40.8606C23.1132 41.2876 23.7617 41.4016 24.3085 41.1464L32.4293 37.3566C32.7506 37.2067 31.7779 38.117 43.8009 26.2442L37.3713 19.8145C25.4507 31.7351 26.3432 30.7901 26.1902 31.1177Z" fill="#DCD6CB"/>
<path d="M34.8478 39.1207C34.4962 39.4678 34.091 39.7496 33.6434 39.9585L25.5226 43.7483C23.9257 44.4935 21.9748 44.2098 20.6563 42.891C19.3805 41.6153 19.0358 39.6596 19.7988 38.0244L23.5885 29.9034C23.8014 29.4474 24.0898 29.0357 24.4457 28.6796L36.6543 16.4711V4.30664C36.6543 1.93196 34.7223 0 32.3477 0H4.30664C1.93196 0 0 1.93196 0 4.30664V44.6934C0 47.068 1.93196 49 4.30664 49H32.3477C34.7223 49 36.6543 47.068 36.6543 44.6934V37.3366L34.8478 39.1207ZM7.65635 9.2832H29.0938C29.8866 9.2832 30.5294 9.92595 30.5294 10.7188C30.5294 11.5116 29.8866 12.1543 29.0938 12.1543H7.65635C6.86354 12.1543 6.2208 11.5116 6.2208 10.7188C6.2208 9.92595 6.86354 9.2832 7.65635 9.2832ZM7.65635 16.9395H24.5001C25.2929 16.9395 25.9356 17.5822 25.9356 18.375C25.9356 19.1678 25.2929 19.8105 24.5001 19.8105H7.65635C6.86354 19.8105 6.2208 19.1678 6.2208 18.375C6.2208 17.5822 6.86354 16.9395 7.65635 16.9395ZM6.2208 26.0312C6.2208 25.2384 6.86354 24.5957 7.65635 24.5957H19.9063C20.6992 24.5957 21.3419 25.2384 21.3419 26.0312C21.3419 26.8241 20.6992 27.4668 19.9063 27.4668H7.65635C6.86354 27.4668 6.2208 26.8241 6.2208 26.0312Z" fill="#DCD6CB"/>
</symbol>

<symbol id="securely" viewBox="0 0 49 49" fill="none" xmlns="http://www.w3.org/2000/svg">
<path d="M47.8669 7.12709C47.2141 6.853 46.4604 7.00244 45.9614 7.50464L38.4796 14.9882L34.1811 10.5305L41.4654 2.96127C42.1354 2.2662 42.1151 1.15958 41.42 0.489501C41.0938 0.175049 40.6582 -0.000511019 40.205 1.11734e-06H27.9684C27.5048 0.000103545 27.0602 0.18437 26.7325 0.51224L19.7401 7.50464C19.4122 7.8324 19.2279 8.27694 19.2278 8.74052V18.5053L2.32213 35.413C-0.774042 38.5091 -0.774042 43.529 2.32213 46.6253C5.4183 49.7215 10.4381 49.7214 13.5344 46.6253L30.4402 29.7177H40.205C40.6683 29.7181 41.1128 29.5345 41.4409 29.2073L48.4333 22.2149C48.7616 21.8867 48.9459 21.4415 48.9454 20.9773V8.74052C48.9448 8.03419 48.5193 7.3976 47.8669 7.12709ZM11.7233 39.6958L9.97518 41.4439C9.29209 42.1265 8.18506 42.1261 7.50248 41.443C6.81991 40.7599 6.82032 39.6528 7.50341 38.9703L9.25153 37.2221C9.93462 36.5396 11.0416 36.54 11.7242 37.223C12.4068 37.9062 12.4064 39.0132 11.7233 39.6958Z" fill="#DCD6CB"/>
</symbol>


<symbol id="autopark" viewBox="0 0 28 29" fill="none" xmlns="http://www.w3.org/2000/svg">
<path d="M27.0725 11.5131H26.4177V8.55319C26.4177 7.68636 25.7125 6.98113 24.8456 6.98113H23.526V4.8255C23.526 4.81389 23.5249 4.8025 23.5242 4.79106C23.5249 4.77962 23.526 4.76823 23.526 4.75662V3.15013C23.526 1.41313 22.1128 0 20.3758 0H7.26308C5.52609 0 4.11296 1.41313 4.11296 3.15013V4.75662C4.11296 4.76823 4.11404 4.77962 4.11472 4.79106C4.11404 4.8025 4.11296 4.81389 4.11296 4.8255V6.98107H2.79329C1.9264 6.98107 1.22117 7.6863 1.22117 8.55313V11.513H0.566406C0.253637 11.513 0 11.7666 0 12.0794V16.6356C0 16.9484 0.253637 17.202 0.566406 17.202H3.16298C3.47575 17.202 3.72939 16.9484 3.72939 16.6356V12.0794C3.72939 11.7666 3.47575 11.513 3.16298 11.513H2.35398V8.55313C2.35398 8.31094 2.55104 8.11388 2.79329 8.11388H4.11296V19.252V19.3334V25.054C4.11296 25.6257 4.51692 26.1043 5.05427 26.2209V27.4385C5.05427 28.2995 5.75474 29 6.61574 29H8.41487C9.27586 29 9.97634 28.2995 9.97634 27.4385V26.2485H17.6625V27.4385C17.6625 28.2995 18.363 29 19.224 29H21.0231C21.8841 29 22.5846 28.2995 22.5846 27.4385V26.2209C23.1219 26.1043 23.5259 25.6256 23.5259 25.054V21.9915V19.3334V19.2646V19.252V8.11388H24.8456C25.0878 8.11388 25.2849 8.31094 25.2849 8.55313V11.513H24.4759C24.1632 11.513 23.9095 11.7666 23.9095 12.0794V16.6356C23.9095 16.9484 24.1632 17.202 24.4759 17.202H27.0725C27.3853 17.202 27.6389 16.9484 27.6389 16.6356V12.0794C27.6389 11.7666 27.3853 11.5131 27.0725 11.5131ZM2.59652 12.6459V16.0692H1.13281V12.6459H2.59652ZM8.84353 27.4385C8.84353 27.6748 8.65118 27.8672 8.41487 27.8672H6.61574C6.37938 27.8672 6.18708 27.6748 6.18708 27.4385V26.2485H8.84353V27.4385ZM21.4518 27.4385C21.4518 27.6748 21.2595 27.8672 21.0232 27.8672H19.2241C18.9877 27.8672 18.7954 27.6748 18.7954 27.4385V26.2485H21.4518V27.4385ZM22.3932 25.054C22.3932 25.088 22.3655 25.1157 22.3314 25.1157H22.0182H18.229H9.40993H5.62068H5.30757C5.27347 25.1157 5.24577 25.088 5.24577 25.054V22.5579H9.45576C10.0347 22.5579 10.5056 22.087 10.5056 21.508V19.8184H17.2069V21.508C17.2069 22.087 17.6778 22.5579 18.2567 22.5579H22.3932V25.054ZM5.3194 21.4251V19.831H9.37283V21.4251H5.3194ZM22.3932 21.4251H18.3397V19.831H22.3932V21.4251ZM22.3932 7.54748V18.6856H14.2333L11.2419 15.2634C11.036 15.0279 10.6782 15.0038 10.4427 15.2098C10.2072 15.4157 10.1831 15.7735 10.389 16.009L12.7287 18.6856H5.24577V7.54748V5.3919H22.3932V7.54748ZM22.3932 4.19022H5.24577V3.15013C5.24577 2.03782 6.15072 1.13281 7.26308 1.13281H20.3758C21.4882 1.13281 22.3932 2.03782 22.3932 3.15013V4.19022ZM26.5061 16.0692H25.0423V12.6459H26.5061V16.0692Z" fill="white"/>
</symbol>


<symbol id="russo" viewBox="0 0 46 10" fill="none" xmlns="http://www.w3.org/2000/svg">
<path d="M11.8748 5.60778V0.222168L13.8129 0.222168V5.54037C13.8129 6.78999 14.5404 7.64899 15.9268 7.64899C17.3133 7.64899 18.0261 6.78912 18.0261 5.54037V0.222168L19.9781 0.222168V5.59482C19.9781 7.82442 18.6583 9.34193 15.9268 9.34193C13.1937 9.34193 11.8748 7.81059 11.8748 5.60778Z" fill="#999999"/>
<path d="M24.5836 7.9178L25.6193 6.46769C26.2524 7.1262 27.2344 7.67582 28.4728 7.67582C29.5233 7.67582 30.0343 7.19274 30.0343 6.68201C30.0343 5.09709 24.8659 6.1851 24.8659 2.81391C24.8659 1.32319 26.158 0.0874023 28.2711 0.0874023C29.6982 0.0874023 30.8821 0.516903 31.7706 1.33702L30.7072 2.73354C29.9814 2.06207 29.0115 1.75355 28.0961 1.75355C27.2751 1.75355 26.8179 2.11565 26.8179 2.65317C26.8179 4.07649 31.9724 3.12329 31.9724 6.46769C31.9724 8.10619 30.8016 9.34198 28.3793 9.34198C26.6568 9.34198 25.4184 8.76383 24.5836 7.9178Z" fill="#999999"/>
<path d="M36.4567 4.67179C36.4567 1.94961 38.4511 0 41.1791 0C43.92 0 45.9144 1.94961 45.9144 4.67179C45.9144 7.39312 43.92 9.34272 41.1791 9.34272C38.4511 9.34272 36.4567 7.39312 36.4567 4.67179ZM43.933 4.67179C43.933 2.97972 42.8479 1.70677 41.1791 1.70677C39.5102 1.70677 38.4381 2.97972 38.4381 4.67179C38.4381 6.35091 39.5102 7.63682 41.1791 7.63682C42.8479 7.63682 43.933 6.35091 43.933 4.67179Z" fill="#999999"/>
<path d="M5.24979 5.76852C6.21887 5.54037 7.21565 4.69433 7.21565 3.10941C7.21565 1.44413 6.07164 0.222168 4.20018 0.222168L0 0.222168L0 1.90042L1.9113 1.90042H2.05333L3.91786 1.90042C4.68515 1.90042 5.26365 2.35671 5.26365 3.10941C5.26365 3.86126 4.68428 4.31841 3.91786 4.31841L2.05333 4.31841H1.9113H0.000865871L0.000865871 9.18032H1.91216L1.91216 5.99753H3.31251L5.07486 9.18119L7.26934 9.18119L5.24979 5.76852Z" fill="#999999"/>
</symbol>


<symbol viewBox="0 0 8 43" fill="none" xmlns="http://www.w3.org/2000/svg">
<path d="M3.64644 42.3536C3.84171 42.5488 4.15829 42.5488 4.35355 42.3536L7.53553 39.1716C7.73079 38.9763 7.73079 38.6597 7.53553 38.4645C7.34027 38.2692 7.02369 38.2692 6.82843 38.4645L4 41.2929L1.17157 38.4645C0.976309 38.2692 0.659727 38.2692 0.464464 38.4645C0.269202 38.6597 0.269202 38.9763 0.464464 39.1716L3.64644 42.3536ZM3.5 -2.18557e-08L3.5 42L4.5 42L4.5 2.18557e-08L3.5 -2.18557e-08Z" fill="white" fill-opacity="0.6"/>
</symbol>

</svg>