<?xml version="1.0" standalone="no"?>
<!DOCTYPE svg PUBLIC "-//W3C//DTD SVG 20010904//EN"
 "http://www.w3.org/TR/2001/REC-SVG-20010904/DTD/svg10.dtd">
<svg version="1.0" xmlns="http://www.w3.org/2000/svg"
 width="700.000000pt" height="700.000000pt" viewBox="0 0 700.000000 700.000000"
 preserveAspectRatio="xMidYMid meet">
<metadata>
Created by potrace 1.11, written by Peter Selinger 2001-2013
</metadata>
<g transform="translate(0.000000,700.000000) scale(0.100000,-0.100000)"
fill="#000000" stroke="none">
<path d="M0 3500 l0 -3500 3500 0 3500 0 0 3500 0 3500 -3500 0 -3500 0 0
-3500z m3115 1505 c159 -28 294 -98 422 -218 l69 -66 69 65 c316 298 754 304
1077 14 78 -70 171 -196 223 -305 24 -49 220 -526 435 -1060 216 -533 394
-976 397 -982 4 -10 -24 -13 -119 -13 l-125 0 -373 923 c-205 507 -393 961
-417 1009 -78 152 -215 279 -361 335 -82 31 -231 42 -313 23 -177 -42 -335
-169 -432 -350 -19 -36 -205 -487 -413 -1002 l-379 -938 -123 0 c-113 0 -123
1 -118 18 4 9 129 320 280 691 l274 674 -31 75 c-51 124 -117 170 -207 143
-21 -6 -49 -24 -62 -40 -14 -15 -74 -149 -133 -297 -60 -148 -200 -492 -311
-764 l-200 -495 -123 -3 c-114 -2 -123 -1 -119 15 14 48 654 1616 681 1666 35
67 106 135 175 169 68 33 207 33 272 -1 64 -34 112 -74 145 -121 15 -22 32
-37 36 -33 4 4 41 90 82 191 l75 182 -69 64 c-120 111 -253 166 -404 166 -99
0 -177 -19 -266 -66 -112 -59 -232 -183 -294 -304 -10 -19 -190 -459 -401
-978 -210 -519 -384 -945 -387 -948 -2 -3 -58 -3 -124 -2 l-120 3 412 1015
c226 558 419 1031 429 1050 97 185 254 344 421 427 75 38 118 52 209 68 96 18
138 18 241 0z m1250 -717 c60 -31 126 -94 161 -154 14 -24 175 -413 359 -866
l333 -823 -120 -3 c-66 -1 -122 -1 -124 1 -3 2 -143 347 -313 767 -220 542
-317 771 -337 791 -34 36 -85 53 -130 44 -56 -10 -98 -56 -134 -145 l-32 -79
262 -648 c145 -356 271 -667 281 -691 l19 -43 -126 3 -126 3 -216 533 c-125
308 -219 527 -223 520 -4 -7 -43 -102 -87 -210 l-81 -198 130 -320 c71 -175
129 -322 129 -325 0 -3 -55 -5 -122 -5 l-123 0 -54 138 c-30 75 -61 153 -69
172 l-14 34 -70 -172 -71 -172 -123 0 -124 0 9 23 c5 12 63 155 129 317 66
162 211 520 322 795 111 275 211 518 222 539 27 54 114 144 163 169 64 32 85
37 170 33 62 -2 91 -8 130 -28z"/>
</g>
</svg>
